<?xml version="1.0" encoding="UTF-8"?>
<svg xmlns="http://www.w3.org/2000/svg" xmlns:xlink="http://www.w3.org/1999/xlink" width="612pt" height="792pt" viewBox="0 0 612 792" version="1.1">
<g id="surface1">
<rect x="0" y="0" width="612" height="792" style="fill:rgb(15.789795%,38.938904%,55.982971%);fill-opacity:1;stroke:none;"/>
<path style="fill:none;stroke-width:0.97;stroke-linecap:butt;stroke-linejoin:miter;stroke:rgb(100%,100%,100%);stroke-opacity:1;stroke-dasharray:4.852,4.852;stroke-miterlimit:10;" d="M 0.00181875 -0.00131875 C 0.00181875 -0.00131875 733.20885 -277.321631 1344.497912 -850.942725 C 1531.572131 -1026.4896 1544.747912 -1171.692725 1362.822131 -1164.02085 " transform="matrix(1,0,0,-1,-589.4276,-398.1146)"/>
<path style="fill:none;stroke-width:0.97;stroke-linecap:butt;stroke-linejoin:miter;stroke:rgb(100%,100%,100%);stroke-opacity:1;stroke-dasharray:4.852,4.852;stroke-miterlimit:10;" d="M -0.000175 -0.00033125 C -0.000175 -0.00033125 728.238106 -316.910487 1269.480294 -897.187831 C 1435.117013 -1074.769862 1421.214669 -1209.894862 1228.753731 -1187.69955 " transform="matrix(1,0,0,-1,-455.3592,-421.7933)"/>
<path style="fill:none;stroke-width:0.97;stroke-linecap:butt;stroke-linejoin:miter;stroke:rgb(100%,100%,100%);stroke-opacity:1;stroke-dasharray:4.852,4.852;stroke-miterlimit:10;" d="M 0.00179375 0.00161875 C 0.00179375 0.00161875 715.322106 -353.037444 1180.607262 -933.639006 C 1323.001794 -1111.3226 1282.169762 -1234.896819 1081.275231 -1198.41635 " transform="matrix(1,0,0,-1,-307.8807,-432.5101)"/>
<path style="fill:none;stroke-width:0.97;stroke-linecap:butt;stroke-linejoin:miter;stroke:rgb(100%,100%,100%);stroke-opacity:1;stroke-dasharray:4.852,4.852;stroke-miterlimit:10;" d="M -0.0001625 -0.0003625 C -0.0001625 -0.0003625 694.6014 -385.312862 1078.855306 -959.902706 C 1196.44515 -1135.746456 1129.136556 -1246.422237 921.995931 -1196.05505 " transform="matrix(1,0,0,-1,-148.6014,-430.1488)"/>
<path style="fill:none;stroke-width:0.97;stroke-linecap:butt;stroke-linejoin:miter;stroke:rgb(100%,100%,100%);stroke-opacity:1;stroke-dasharray:4.852,4.852;stroke-miterlimit:10;" d="M -0.00111875 0.000575 C -0.00111875 0.000575 666.299662 -413.378331 965.3231 -975.690831 C 1056.834819 -1147.776769 963.776225 -1244.343175 752.655131 -1180.64005 " transform="matrix(1,0,0,-1,20.7394,-414.7338)"/>
<path style="fill:none;stroke-width:0.97;stroke-linecap:butt;stroke-linejoin:miter;stroke:rgb(100%,100%,100%);stroke-opacity:1;stroke-dasharray:4.852,4.852;stroke-miterlimit:10;" d="M -0.00113125 -0.00080625 C -0.00113125 -0.00080625 630.725431 -436.938306 841.260588 -980.832837 C 905.690275 -1147.282056 787.897306 -1228.6844 575.100431 -1152.34065 " transform="matrix(1,0,0,-1,198.2941,-386.4344)"/>
<path style="fill:none;stroke-width:0.97;stroke-linecap:butt;stroke-linejoin:miter;stroke:rgb(100%,100%,100%);stroke-opacity:1;stroke-dasharray:4.852,4.852;stroke-miterlimit:10;" d="M -0.0002 -0.00080625 C -0.0002 -0.00080625 588.269331 -455.727369 708.015425 -975.266431 C 744.659956 -1134.266431 603.425581 -1199.617994 391.269331 -1111.46565 " transform="matrix(1,0,0,-1,382.1252,-345.5594)"/>
<path style="fill:none;stroke-width:0.97;stroke-linecap:butt;stroke-linejoin:miter;stroke:rgb(100%,100%,100%);stroke-opacity:1;stroke-dasharray:4.852,4.852;stroke-miterlimit:10;" d="M -0.0001375 0.0005875 C -0.0001375 0.0005875 539.390487 -469.542381 567.042831 -959.061912 C 575.503769 -1108.870506 412.363144 -1157.456444 203.167831 -1058.46035 " transform="matrix(1,0,0,-1,570.2267,-292.5541)"/>
<path style="fill:none;stroke-width:0.97;stroke-linecap:butt;stroke-linejoin:miter;stroke:rgb(100%,100%,100%);stroke-opacity:1;stroke-dasharray:4.852,4.852;stroke-miterlimit:10;" d="M 0.0009 -0.0018125 C 0.0009 -0.0018125 -728.753006 314.666156 -1274.295975 894.728656 C -1441.2491 1072.244281 -1428.940506 1208.006 -1237.042069 1186.66225 " transform="matrix(1,0,0,-1,2010.4366,1952.5685)"/>
<path style="fill:none;stroke-width:0.97;stroke-linecap:butt;stroke-linejoin:miter;stroke:rgb(100%,100%,100%);stroke-opacity:1;stroke-dasharray:4.852,4.852;stroke-miterlimit:10;" d="M 0.00183125 -0.0008875 C 0.00183125 -0.0008875 -716.302856 351.010831 -1186.216919 931.768644 C -1330.021606 1109.499112 -1290.771606 1233.795987 -1090.310669 1198.14755 " transform="matrix(1,0,0,-1,1863.7052,1964.0538)"/>
<path style="fill:none;stroke-width:0.97;stroke-linecap:butt;stroke-linejoin:miter;stroke:rgb(100%,100%,100%);stroke-opacity:1;stroke-dasharray:4.852,4.852;stroke-miterlimit:10;" d="M -0.00108125 -0.00084375 C -0.00108125 -0.00084375 -696.036237 383.522594 -1085.188581 958.643687 C -1204.282331 1134.647594 -1138.516706 1246.116344 -931.680769 1196.55775 " transform="matrix(1,0,0,-1,1705.0753,1962.464)"/>
<path style="fill:none;stroke-width:0.97;stroke-linecap:butt;stroke-linejoin:miter;stroke:rgb(100%,100%,100%);stroke-opacity:1;stroke-dasharray:4.852,4.852;stroke-miterlimit:10;" d="M 0.00084375 -0.00180625 C 0.00084375 -0.00180625 -668.174938 411.849756 -972.319469 975.056787 C -1065.4015 1147.412256 -973.831188 1244.841944 -762.881969 1181.90835 " transform="matrix(1,0,0,-1,1536.2765,1947.8146)"/>
<path style="fill:none;stroke-width:0.97;stroke-linecap:butt;stroke-linejoin:miter;stroke:rgb(100%,100%,100%);stroke-opacity:1;stroke-dasharray:4.852,4.852;stroke-miterlimit:10;" d="M -0.00105625 -0.00183125 C -0.00105625 -0.00183125 -633.016681 435.681763 -848.8409 980.826294 C -914.891681 1147.658325 -798.524494 1229.982544 -585.758869 1154.36145 " transform="matrix(1,0,0,-1,1359.1534,1920.2677)"/>
<path style="fill:none;stroke-width:0.97;stroke-linecap:butt;stroke-linejoin:miter;stroke:rgb(100%,100%,100%);stroke-opacity:1;stroke-dasharray:4.852,4.852;stroke-miterlimit:10;" d="M -0.00008125 -0.0018 C -0.00008125 -0.0018 -590.953206 454.756012 -716.097737 975.892731 C -754.394612 1135.377106 -614.500081 1201.697419 -402.242269 1114.21695 " transform="matrix(1,0,0,-1,1175.6368,1880.1232)"/>
<path style="fill:none;stroke-width:0.97;stroke-linecap:butt;stroke-linejoin:miter;stroke:rgb(100%,100%,100%);stroke-opacity:1;stroke-dasharray:4.852,4.852;stroke-miterlimit:10;" d="M -0.00013125 -0.0018125 C -0.00013125 -0.0018125 -542.441537 468.869281 -575.539194 960.310688 C -585.6681 1110.705219 -423.769662 1160.298969 -214.336069 1061.91225 " transform="matrix(1,0,0,-1,987.7306,1827.8185)"/>
<path style="fill:none;stroke-width:0.97;stroke-linecap:butt;stroke-linejoin:miter;stroke:rgb(100%,100%,100%);stroke-opacity:1;stroke-dasharray:4.852,4.852;stroke-miterlimit:10;" d="M -0.001125 -0.00188125 C -0.001125 -0.00188125 -488.008938 477.865306 -428.700344 934.244213 C -410.548 1073.908275 -228.415188 1106.2364 -24.090969 998.01765 " transform="matrix(1,0,0,-1,797.4855,1763.9239)"/>
<path style="fill:none;stroke-width:0.97;stroke-linecap:butt;stroke-linejoin:miter;stroke:rgb(100%,100%,100%);stroke-opacity:1;stroke-dasharray:4.852,4.852;stroke-miterlimit:10;" d="M -0.0011375 -0.001925 C -0.0011375 -0.001925 -428.247231 481.650419 -277.180825 897.986356 C -230.950356 1025.396512 -30.567544 1040.103544 166.416831 923.23245 " transform="matrix(1,0,0,-1,606.9777,1689.1387)"/>
<path style="fill:none;stroke-width:0.97;stroke-linecap:butt;stroke-linejoin:miter;stroke:rgb(100%,100%,100%);stroke-opacity:1;stroke-dasharray:4.852,4.852;stroke-miterlimit:10;" d="M -0.00114375 0.00005625 C -0.00114375 0.00005625 -363.81755 480.175837 -122.637862 851.925837 C -48.829269 965.691462 167.608231 962.617244 355.108231 838.37115 " transform="matrix(1,0,0,-1,418.2863,1604.2774)"/>
<path style="fill:none;stroke-width:0.97;stroke-linecap:butt;stroke-linejoin:miter;stroke:rgb(100%,100%,100%);stroke-opacity:1;stroke-dasharray:4.852,4.852;stroke-miterlimit:10;" d="M -0.00015 -0.00193125 C -0.00015 -0.00193125 -295.414213 473.462912 33.245944 796.568381 C 133.824069 895.451194 363.964694 874.626975 539.925631 744.36135 " transform="matrix(1,0,0,-1,233.4689,1510.2676)"/>
<path style="fill:none;stroke-width:0.97;stroke-linecap:butt;stroke-linejoin:miter;stroke:rgb(100%,100%,100%);stroke-opacity:1;stroke-dasharray:4.852,4.852;stroke-miterlimit:10;" d="M 0.001775 0.0010875 C 0.001775 0.0010875 -223.787287 461.579213 188.763494 732.520619 C 315.0174 815.434681 556.341619 777.090931 718.849431 642.22765 " transform="matrix(1,0,0,-1,54.5451,1408.1339)"/>
<path style="fill:none;stroke-width:0.97;stroke-linecap:butt;stroke-linejoin:miter;stroke:rgb(100%,100%,100%);stroke-opacity:1;stroke-dasharray:4.852,4.852;stroke-miterlimit:10;" d="M -0.00115625 -0.0008875 C -0.00115625 -0.0008875 -149.719906 444.659269 342.2215 660.475675 C 492.772281 726.52255 742.651187 671.073331 889.928531 533.08505 " transform="matrix(1,0,0,-1,-116.534,1298.9913)"/>
<path style="fill:none;stroke-width:0.97;stroke-linecap:butt;stroke-linejoin:miter;stroke:rgb(100%,100%,100%);stroke-opacity:1;stroke-dasharray:4.852,4.852;stroke-miterlimit:10;" d="M -0.00114375 -0.00085 C -0.00114375 -0.00085 -74.016769 422.889775 491.944169 581.221806 C 665.147294 629.678838 920.854325 557.733525 1051.295731 418.12415 " transform="matrix(1,0,0,-1,-277.9012,1184.0304)"/>
<path style="fill:none;stroke-width:0.97;stroke-linecap:butt;stroke-linejoin:miter;stroke:rgb(100%,100%,100%);stroke-opacity:1;stroke-dasharray:4.852,4.852;stroke-miterlimit:10;" d="M 0.00183125 -0.0009125 C 0.00183125 -0.0009125 2.494019 396.499087 636.298706 495.627994 C 830.26355 525.963931 1089.005738 438.307681 1201.189331 298.60065 " transform="matrix(1,0,0,-1,-427.7948,1064.5069)"/>
<path style="fill:none;stroke-width:0.97;stroke-linecap:butt;stroke-linejoin:miter;stroke:rgb(100%,100%,100%);stroke-opacity:1;stroke-dasharray:4.852,4.852;stroke-miterlimit:10;" d="M 0.001875 -0.0018625 C 0.001875 -0.0018625 78.978438 365.7872 773.712813 404.623137 C 986.322188 416.509856 1245.275312 314.0997 1337.974531 175.81845 " transform="matrix(1,0,0,-1,-564.58,941.7247)"/>
<path style="fill:none;stroke-width:0.97;stroke-linecap:butt;stroke-linejoin:miter;stroke:rgb(100%,100%,100%);stroke-opacity:1;stroke-dasharray:4.852,4.852;stroke-miterlimit:10;" d="M 0.00178125 0.0000625 C 0.00178125 0.0000625 154.599438 331.082094 902.677563 309.203188 C 1131.615063 302.507875 1387.954906 186.461 1460.158031 51.11725 " transform="matrix(1,0,0,-1,-686.7635,817.0235)"/>
<path style="fill:none;stroke-width:0.97;stroke-linecap:butt;stroke-linejoin:miter;stroke:rgb(100%,100%,100%);stroke-opacity:1;stroke-dasharray:4.852,4.852;stroke-miterlimit:10;" d="M -0.00011875 -0.000925 C -0.00011875 -0.000925 228.535037 292.760794 1021.796756 210.409231 C 1264.558475 185.206106 1515.488162 56.788137 1566.406131 -74.14155 " transform="matrix(1,0,0,-1,-793.0116,691.7647)"/>
<path style="fill:none;stroke-width:0.97;stroke-linecap:butt;stroke-linejoin:miter;stroke:rgb(100%,100%,100%);stroke-opacity:1;stroke-dasharray:4.852,4.852;stroke-miterlimit:10;" d="M 0.0008375 -0.00190625 C 0.0008375 -0.00190625 299.9774 251.248094 1129.75865 109.318406 C 1383.700056 65.880906 1626.4774 -73.505813 1655.559431 -198.59175 " transform="matrix(1,0,0,-1,-882.1649,567.3145)"/>
<path style="fill:none;stroke-width:0.97;stroke-linecap:butt;stroke-linejoin:miter;stroke:rgb(100%,100%,100%);stroke-opacity:1;stroke-dasharray:4.852,4.852;stroke-miterlimit:10;" d="M 0.0009 0.00105 C 0.0009 0.00105 368.141525 206.989331 1225.395431 7.0323 C 1487.743088 -54.159106 1719.723556 -202.995044 1726.645431 -320.87395 " transform="matrix(1,0,0,-1,-953.2509,445.0323)"/>
<path style="fill:none;stroke-width:0.97;stroke-linecap:butt;stroke-linejoin:miter;stroke:rgb(100%,100%,100%);stroke-opacity:1;stroke-dasharray:4.852,4.852;stroke-miterlimit:10;" d="M 0.0008125 -0.00190625 C 0.0008125 -0.00190625 432.289875 160.478563 1307.657062 -95.326125 C 1575.547687 -173.611281 1794.196125 -330.271437 1778.887531 -439.65425 " transform="matrix(1,0,0,-1,-1005.493,326.252)"/>
<path style="fill:none;stroke-width:0.97;stroke-linecap:butt;stroke-linejoin:miter;stroke:rgb(100%,100%,100%);stroke-opacity:1;stroke-dasharray:4.852,4.852;stroke-miterlimit:10;" d="M 0.0008875 -0.00043125 C 0.0008875 -0.00043125 491.719637 112.210506 1375.649325 -196.648869 C 1646.157137 -291.1684 1849.090731 -453.941838 1811.715731 -553.63715 " transform="matrix(1,0,0,-1,-1038.3212,212.2691)"/>
<path style="fill:none;stroke-width:0.97;stroke-linecap:butt;stroke-linejoin:miter;stroke:rgb(100%,100%,100%);stroke-opacity:1;stroke-dasharray:4.852,4.852;stroke-miterlimit:10;" d="M -0.00010625 0.000575 C -0.00010625 0.000575 545.78505 62.719325 1428.6288 -295.819738 C 1698.804581 -405.5463 1883.804581 -572.659581 1824.773331 -661.57755 " transform="matrix(1,0,0,-1,-1051.3788,104.3287)"/>
<path style="fill:none;stroke-width:0.97;stroke-linecap:butt;stroke-linejoin:miter;stroke:rgb(100%,100%,100%);stroke-opacity:1;stroke-dasharray:4.852,4.852;stroke-miterlimit:10;" d="M 0.00186875 -0.001375 C 0.00186875 -0.001375 593.8964 12.541594 1466.013587 -391.767 C 1732.912025 -515.497469 1897.962806 -685.126375 1817.915931 -762.29825 " transform="matrix(1,0,0,-1,-1044.5214,3.608)"/>
<path style="fill:none;stroke-width:0.97;stroke-linecap:butt;stroke-linejoin:miter;stroke:rgb(100%,100%,100%);stroke-opacity:1;stroke-dasharray:4.852,4.852;stroke-miterlimit:10;" d="M -0.00011875 -0.00043125 C -0.00011875 -0.00043125 635.519412 -37.769963 1487.402225 -483.437931 C 1748.10535 -619.82465 1891.402225 -790.117619 1791.218631 -854.69965 " transform="matrix(1,0,0,-1,-1017.8241,-88.7934)"/>
<path style="fill:none;stroke-width:0.97;stroke-linecap:butt;stroke-linejoin:miter;stroke:rgb(100%,100%,100%);stroke-opacity:1;stroke-dasharray:4.852,4.852;stroke-miterlimit:10;" d="M 0.000875 0.0000875 C 0.000875 0.0000875 670.211813 -87.667881 1492.559469 -569.831944 C 1744.223531 -717.390537 1864.204 -886.480381 1744.973531 -937.77335 " transform="matrix(1,0,0,-1,-971.579,-171.8671)"/>
<path style="fill:none;stroke-width:0.97;stroke-linecap:butt;stroke-linejoin:miter;stroke:rgb(100%,100%,100%);stroke-opacity:1;stroke-dasharray:4.852,4.852;stroke-miterlimit:10;" d="M 0.0018375 0.00063125 C 0.0018375 0.00063125 697.591681 -136.61265 1481.427619 -650.007181 C 1721.306525 -807.120463 1816.658087 -973.17515 1679.685431 -1010.61265 " transform="matrix(1,0,0,-1,-906.2909,-244.7064)"/>
<path style="fill:none;stroke-width:0.97;stroke-linecap:butt;stroke-linejoin:miter;stroke:rgb(100%,100%,100%);stroke-opacity:1;stroke-dasharray:4.852,4.852;stroke-miterlimit:10;" d="M -0.000075 -0.001375 C -0.000075 -0.001375 717.355394 -184.063875 1454.124925 -723.087313 C 1679.601488 -888.04825 1749.292894 -1049.247469 1596.066331 -1072.42325 " transform="matrix(1,0,0,-1,-822.6718,-306.517)"/>
<path style="fill:none;stroke-width:0.97;stroke-linecap:butt;stroke-linejoin:miter;stroke:rgb(100%,100%,100%);stroke-opacity:1;stroke-dasharray:4.852,4.852;stroke-miterlimit:10;" d="M 0.0008875 0.0016 C 0.0008875 0.0016 729.28995 -229.510119 1410.957919 -788.27965 C 1619.567294 -959.27965 1662.832919 -1113.869494 1495.028231 -1122.52965 " transform="matrix(1,0,0,-1,-721.6337,-356.6234)"/>
<path style="fill-rule:nonzero;fill:rgb(16.003418%,39.030457%,56.550598%);fill-opacity:1;stroke-width:10;stroke-linecap:butt;stroke-linejoin:miter;stroke:rgb(16.003418%,39.030457%,56.550598%);stroke-opacity:1;stroke-miterlimit:10;" d="M -0.00110625 -0.0008375 L -0.00110625 156.046038 L 26.737175 156.046038 L 26.737175 143.608538 L 245.893425 143.608538 L 245.893425 97.7726 L 315.256706 97.7726 L 315.256706 52.534319 L 319.256706 52.534319 L 319.256706 11.737444 L 174.694206 11.737444 L 174.694206 -0.0008375 Z M -0.00110625 -0.0008375 " transform="matrix(1,0,0,-1,146.3722,474.0226)"/>
<path style=" stroke:none;fill-rule:nonzero;fill:rgb(100%,100%,100%);fill-opacity:1;" d="M 149.230469 324.722656 C 147.140625 324.722656 145.871094 323.484375 145.871094 321.328125 C 145.871094 319.167969 147.140625 317.925781 149.230469 317.925781 C 150.679688 317.925781 151.949219 318.515625 152.230469 319.925781 L 150.230469 320.707031 C 150.121094 319.847656 149.78125 319.675781 149.289062 319.675781 C 148.601562 319.675781 148.25 320.1875 148.25 321.328125 C 148.25 322.453125 148.539062 322.972656 149.339844 322.972656 C 149.820312 322.972656 150.140625 322.703125 150.21875 322.074219 L 152.277344 322.605469 C 151.910156 324.152344 150.738281 324.722656 149.230469 324.722656 "/>
<path style=" stroke:none;fill-rule:nonzero;fill:rgb(100%,100%,100%);fill-opacity:1;" d="M 158.167969 322.914062 L 158.167969 324.625 L 152.851562 324.625 L 152.851562 318.027344 L 155.179688 318.027344 L 155.179688 322.914062 Z M 158.167969 322.914062 "/>
<path style=" stroke:none;fill-rule:nonzero;fill:rgb(100%,100%,100%);fill-opacity:1;" d="M 162.839844 320.355469 C 162.839844 319.886719 162.53125 319.675781 162.019531 319.675781 L 161.230469 319.675781 L 161.230469 321.035156 L 162.019531 321.035156 C 162.53125 321.035156 162.839844 320.824219 162.839844 320.355469 M 165.167969 320.355469 C 165.167969 321.855469 164.179688 322.683594 162.402344 322.683594 L 161.230469 322.683594 L 161.230469 324.625 L 158.902344 324.625 L 158.902344 318.027344 L 162.402344 318.027344 C 164.179688 318.027344 165.167969 318.855469 165.167969 320.355469 "/>
<path style=" stroke:none;fill-rule:nonzero;fill:rgb(100%,100%,100%);fill-opacity:1;" d="M 171.640625 321.855469 L 171.640625 320.167969 C 171.640625 319.964844 171.648438 319.726562 171.660156 319.464844 L 171.640625 319.464844 C 171.519531 319.695312 171.390625 319.925781 171.261719 320.125 L 170.460938 321.355469 C 170.351562 321.523438 170.242188 321.683594 170.109375 321.855469 Z M 171.609375 323.363281 L 168.390625 323.363281 L 168.390625 321.957031 C 168.582031 321.613281 168.910156 321.09375 169.351562 320.425781 L 170.917969 318.027344 L 173.609375 318.027344 L 173.609375 321.855469 L 174.496094 321.855469 L 174.496094 323.363281 L 173.609375 323.363281 L 173.609375 324.625 L 171.609375 324.625 Z M 171.609375 323.363281 "/>
<path style=" stroke:none;fill-rule:nonzero;fill:rgb(100%,100%,100%);fill-opacity:1;" d="M 175.871094 369.960938 L 159.253906 369.960938 L 145.871094 330.363281 L 160.453125 330.363281 L 165.914062 352.023438 L 167.832031 359.761719 L 169.632812 352.140625 L 175.210938 330.363281 L 189.25 330.363281 Z M 175.871094 369.960938 "/>
<path style=" stroke:none;fill-rule:nonzero;fill:rgb(100%,100%,100%);fill-opacity:1;" d="M 191.773438 330.363281 L 224.652344 330.363281 L 224.652344 340.621094 L 205.75 340.621094 L 205.75 345.542969 L 220.992188 345.542969 L 220.992188 355.023438 L 205.75 355.023438 L 205.75 359.703125 L 225.371094 359.703125 L 225.371094 369.960938 L 191.773438 369.960938 Z M 191.773438 330.363281 "/>
<path style=" stroke:none;fill-rule:nonzero;fill:rgb(100%,100%,100%);fill-opacity:1;" d="M 248.230469 370.5625 C 235.691406 370.5625 228.070312 363.121094 228.070312 350.164062 C 228.070312 337.203125 235.691406 329.761719 248.230469 329.761719 C 256.929688 329.761719 264.550781 333.304688 266.230469 341.761719 L 254.230469 346.441406 C 253.570312 341.28125 251.53125 340.261719 248.589844 340.261719 C 244.449219 340.261719 242.351562 343.324219 242.351562 350.164062 C 242.351562 356.941406 244.089844 360.0625 248.890625 360.0625 C 251.769531 360.0625 253.691406 358.441406 254.167969 354.660156 L 266.53125 357.84375 C 264.308594 367.140625 257.289062 370.5625 248.230469 370.5625 "/>
<path style=" stroke:none;fill-rule:nonzero;fill:rgb(100%,100%,100%);fill-opacity:1;" d="M 306.910156 340.621094 L 294.550781 340.621094 L 294.550781 369.960938 L 280.570312 369.960938 L 280.570312 340.621094 L 268.152344 340.621094 L 268.152344 330.363281 L 306.910156 330.363281 Z M 306.910156 340.621094 "/>
<path style=" stroke:none;fill-rule:nonzero;fill:rgb(100%,100%,100%);fill-opacity:1;" d="M 322.328125 350.164062 C 322.328125 357.0625 324.128906 360.0625 328.210938 360.0625 C 332.289062 360.0625 334.027344 357.0625 334.027344 350.164062 C 334.027344 343.261719 332.289062 340.261719 328.210938 340.261719 C 324.128906 340.261719 322.328125 343.261719 322.328125 350.164062 M 348.308594 350.164062 C 348.308594 363.121094 340.808594 370.5625 328.210938 370.5625 C 315.667969 370.5625 308.050781 363.121094 308.050781 350.164062 C 308.050781 337.203125 315.667969 329.765625 328.210938 329.765625 C 340.808594 329.765625 348.308594 337.203125 348.308594 350.164062 "/>
<path style=" stroke:none;fill-rule:nonzero;fill:rgb(100%,100%,100%);fill-opacity:1;" d="M 366.730469 347.640625 L 372.128906 347.640625 C 375.066406 347.640625 376.566406 346.683594 376.566406 343.984375 C 376.566406 341.34375 375.066406 340.324219 372.128906 340.324219 L 366.730469 340.324219 Z M 377.585938 369.960938 L 370.570312 356.820312 L 366.730469 356.820312 L 366.730469 369.960938 L 353.046875 369.960938 L 353.046875 330.363281 L 374.527344 330.363281 C 384.847656 330.363281 390.546875 335.34375 390.546875 342.960938 C 390.546875 348.960938 387.96875 352.863281 383.109375 354.78125 L 392.765625 369.960938 Z M 377.585938 369.960938 "/>
<path style=" stroke:none;fill-rule:nonzero;fill:rgb(100%,100%,100%);fill-opacity:1;" d="M 166.03125 416.398438 C 153.492188 416.398438 145.871094 408.960938 145.871094 396 C 145.871094 383.039062 153.492188 375.601562 166.03125 375.601562 C 174.730469 375.601562 182.351562 379.140625 184.03125 387.601562 L 172.03125 392.28125 C 171.371094 387.121094 169.332031 386.101562 166.390625 386.101562 C 162.25 386.101562 160.152344 389.160156 160.152344 396 C 160.152344 402.78125 161.890625 405.898438 166.691406 405.898438 C 169.570312 405.898438 171.492188 404.28125 171.96875 400.5 L 184.332031 403.679688 C 182.109375 412.976562 175.089844 416.398438 166.03125 416.398438 "/>
<path style=" stroke:none;fill-rule:nonzero;fill:rgb(100%,100%,100%);fill-opacity:1;" d="M 208.570312 399.539062 L 205.390625 386.339844 L 205.210938 386.339844 L 203.652344 393.0625 L 202.03125 399.539062 Z M 210.609375 408.238281 L 199.929688 408.238281 L 198.070312 415.796875 L 184.152344 415.796875 L 196.992188 376.199219 L 213.789062 376.199219 L 226.691406 415.796875 L 212.410156 415.796875 Z M 210.609375 408.238281 "/>
<path style=" stroke:none;fill-rule:nonzero;fill:rgb(100%,100%,100%);fill-opacity:1;" d="M 261.011719 405.539062 L 261.011719 415.796875 L 229.089844 415.796875 L 229.089844 376.199219 L 243.070312 376.199219 L 243.070312 405.539062 Z M 261.011719 405.539062 "/>
<path style=" stroke:none;fill-rule:nonzero;fill:rgb(100%,100%,100%);fill-opacity:1;" d="M 283.089844 416.398438 C 270.550781 416.398438 262.933594 408.960938 262.933594 396 C 262.933594 383.039062 270.550781 375.601562 283.089844 375.601562 C 291.789062 375.601562 299.410156 379.140625 301.089844 387.601562 L 289.089844 392.28125 C 288.429688 387.121094 286.390625 386.101562 283.449219 386.101562 C 279.3125 386.101562 277.210938 389.160156 277.210938 396 C 277.210938 402.78125 278.949219 405.898438 283.75 405.898438 C 286.632812 405.898438 288.550781 404.28125 289.03125 400.5 L 301.390625 403.679688 C 299.171875 412.976562 292.152344 416.398438 283.089844 416.398438 "/>
<path style=" stroke:none;fill-rule:nonzero;fill:rgb(100%,100%,100%);fill-opacity:1;" d="M 342.308594 398.761719 C 342.308594 410.578125 335.949219 416.398438 323.167969 416.398438 C 310.390625 416.398438 304.03125 410.578125 304.03125 398.761719 L 304.03125 376.199219 L 318.070312 376.199219 L 318.070312 399.839844 C 318.070312 403.859375 319.871094 405.898438 323.167969 405.898438 C 326.53125 405.898438 328.328125 403.859375 328.328125 399.839844 L 328.328125 376.199219 L 342.308594 376.199219 Z M 342.308594 398.761719 "/>
<path style=" stroke:none;fill-rule:nonzero;fill:rgb(100%,100%,100%);fill-opacity:1;" d="M 379.449219 405.539062 L 379.449219 415.796875 L 347.53125 415.796875 L 347.53125 376.199219 L 361.507812 376.199219 L 361.507812 405.539062 Z M 379.449219 405.539062 "/>
<path style=" stroke:none;fill-rule:nonzero;fill:rgb(100%,100%,100%);fill-opacity:1;" d="M 421.328125 398.761719 C 421.328125 410.578125 414.96875 416.398438 402.1875 416.398438 C 389.410156 416.398438 383.050781 410.578125 383.050781 398.761719 L 383.050781 376.199219 L 397.089844 376.199219 L 397.089844 399.839844 C 397.089844 403.859375 398.890625 405.898438 402.1875 405.898438 C 405.546875 405.898438 407.347656 403.859375 407.347656 399.839844 L 407.347656 376.199219 L 421.328125 376.199219 Z M 421.328125 398.761719 "/>
<path style=" stroke:none;fill-rule:nonzero;fill:rgb(100%,100%,100%);fill-opacity:1;" d="M 462.128906 381.242188 L 456.488281 390.242188 C 452.707031 387.601562 448.6875 385.859375 443.886719 385.859375 C 440.769531 385.859375 439.6875 386.640625 439.6875 387.71875 C 439.6875 388.679688 441.308594 389.039062 443.589844 389.582031 L 449.046875 390.839844 C 457.148438 392.699219 461.285156 396.058594 461.285156 402.417969 C 461.285156 412.019531 453.605469 416.398438 443.589844 416.398438 C 435.96875 416.398438 428.050781 414.238281 423.429688 410.398438 L 428.949219 401.21875 C 432.367188 403.980469 438.609375 406.140625 443.167969 406.140625 C 445.929688 406.140625 446.886719 405.480469 446.949219 404.460938 C 447.007812 403.320312 446.226562 402.78125 443.769531 402.238281 L 437.769531 400.917969 C 431.40625 399.539062 425.230469 397.140625 425.230469 389.21875 C 425.230469 381.121094 432.066406 375.601562 443.886719 375.601562 C 451.445312 375.601562 457.507812 377.519531 462.128906 381.242188 "/>
<path style=" stroke:none;fill-rule:nonzero;fill:rgb(100%,100%,100%);fill-opacity:1;" d="M 146.871094 422.039062 L 175.550781 422.039062 L 175.550781 427.558594 L 153.292969 427.558594 L 153.292969 438.957031 L 170.691406 438.957031 L 170.691406 444.355469 L 153.292969 444.355469 L 153.292969 456.117188 L 176.390625 456.117188 L 176.390625 461.636719 L 146.871094 461.636719 Z M 146.871094 422.039062 "/>
<path style=" stroke:none;fill-rule:nonzero;fill:rgb(100%,100%,100%);fill-opacity:1;" d="M 207.289062 461.636719 L 197.511719 446.398438 L 187.792969 461.636719 L 180.410156 461.636719 L 194.148438 441.535156 L 181.492188 422.039062 L 189.050781 422.039062 L 198.109375 436.4375 L 207.289062 422.039062 L 214.308594 422.039062 L 201.472656 441.296875 L 214.851562 461.636719 Z M 207.289062 461.636719 "/>
<path style=" stroke:none;fill-rule:nonzero;fill:rgb(100%,100%,100%);fill-opacity:1;" d="M 222.230469 422.039062 L 250.910156 422.039062 L 250.910156 427.558594 L 228.652344 427.558594 L 228.652344 438.957031 L 246.050781 438.957031 L 246.050781 444.355469 L 228.652344 444.355469 L 228.652344 456.117188 L 251.75 456.117188 L 251.75 461.636719 L 222.230469 461.636719 Z M 222.230469 422.039062 "/>
<path style=" stroke:none;fill-rule:nonzero;fill:rgb(100%,100%,100%);fill-opacity:1;" d="M 266.75 440.457031 L 276.050781 440.457031 C 281.210938 440.457031 283.726562 438.355469 283.726562 433.976562 C 283.726562 429.597656 281.210938 427.5 276.050781 427.5 L 266.75 427.5 Z M 285.347656 461.636719 L 275.269531 445.796875 L 266.75 445.796875 L 266.75 461.636719 L 260.390625 461.636719 L 260.390625 422.039062 L 276.527344 422.039062 C 284.988281 422.039062 290.390625 426.597656 290.390625 433.796875 C 290.390625 439.558594 287.148438 443.339844 281.808594 444.777344 L 292.726562 461.636719 Z M 285.347656 461.636719 "/>
<path style=" stroke:none;fill-rule:nonzero;fill:rgb(100%,100%,100%);fill-opacity:1;" d="M 317.148438 462.238281 C 305.691406 462.238281 298.492188 454.4375 298.492188 441.839844 C 298.492188 429.238281 305.75 421.4375 317.089844 421.4375 C 324.949219 421.4375 330.527344 424.738281 332.929688 431.160156 L 326.871094 433.855469 C 325.308594 429.175781 322.308594 427.019531 317.449219 427.019531 C 310.070312 427.019531 305.210938 432.417969 305.210938 441.839844 C 305.210938 451.199219 309.710938 456.65625 317.269531 456.65625 C 322.128906 456.65625 325.910156 454.136719 327.410156 449.097656 L 333.527344 451.136719 C 331.070312 458.394531 324.886719 462.238281 317.148438 462.238281 "/>
<path style=" stroke:none;fill-rule:nonzero;fill:rgb(100%,100%,100%);fill-opacity:1;" d="M 348.167969 461.636719 L 341.75 461.636719 L 341.75 422.039062 L 348.167969 422.039062 Z M 348.167969 461.636719 "/>
<path style=" stroke:none;fill-rule:nonzero;fill:rgb(100%,100%,100%);fill-opacity:1;" d="M 389.269531 429.359375 L 384.949219 433.5 C 381.886719 428.878906 378.226562 426.957031 373.070312 426.957031 C 367.246094 426.957031 364.730469 429.539062 364.730469 432.71875 C 364.730469 435.175781 366.109375 437.039062 370.847656 438.117188 L 378.886719 439.917969 C 386.507812 441.65625 389.449219 445.015625 389.449219 450.296875 C 389.449219 457.617188 383.148438 462.238281 373.730469 462.238281 C 365.328125 462.238281 359.390625 458.699219 356.148438 453.957031 L 360.589844 449.515625 C 363.046875 453.777344 367.609375 456.714844 373.910156 456.714844 C 379.425781 456.714844 382.726562 454.738281 382.789062 451.015625 C 382.789062 448.738281 381.527344 446.816406 377.269531 445.917969 L 368.570312 443.9375 C 361.367188 442.378906 358.007812 438.835938 358.007812 433.558594 C 358.007812 426.835938 363.828125 421.4375 373.425781 421.4375 C 380.507812 421.4375 385.667969 424.136719 389.269531 429.359375 "/>
<path style=" stroke:none;fill-rule:nonzero;fill:rgb(100%,100%,100%);fill-opacity:1;" d="M 398.449219 422.039062 L 427.128906 422.039062 L 427.128906 427.558594 L 404.871094 427.558594 L 404.871094 438.957031 L 422.269531 438.957031 L 422.269531 444.355469 L 404.871094 444.355469 L 404.871094 456.117188 L 427.96875 456.117188 L 427.96875 461.636719 L 398.449219 461.636719 Z M 398.449219 422.039062 "/>
<path style=" stroke:none;fill-rule:nonzero;fill:rgb(100%,100%,100%);fill-opacity:1;" d="M 465.949219 429.359375 L 461.628906 433.5 C 458.566406 428.878906 454.90625 426.957031 449.75 426.957031 C 443.925781 426.957031 441.410156 429.539062 441.410156 432.71875 C 441.410156 435.175781 442.789062 437.039062 447.527344 438.117188 L 455.566406 439.917969 C 463.1875 441.65625 466.128906 445.015625 466.128906 450.296875 C 466.128906 457.617188 459.828125 462.238281 450.410156 462.238281 C 442.007812 462.238281 436.070312 458.699219 432.828125 453.957031 L 437.269531 449.515625 C 439.726562 453.777344 444.289062 456.714844 450.589844 456.714844 C 456.105469 456.714844 459.40625 454.738281 459.46875 451.015625 C 459.46875 448.738281 458.207031 446.816406 453.949219 445.917969 L 445.25 443.9375 C 438.046875 442.378906 434.6875 438.835938 434.6875 433.558594 C 434.6875 426.835938 440.507812 421.4375 450.105469 421.4375 C 457.1875 421.4375 462.347656 424.136719 465.949219 429.359375 "/>
<path style=" stroke:none;fill-rule:nonzero;fill:rgb(100%,100%,100%);fill-opacity:1;" d="M 149.199219 469.085938 L 149.199219 470.003906 L 151.738281 470.003906 L 151.738281 471.714844 L 149.199219 471.714844 L 149.199219 473.972656 L 146.871094 473.972656 L 146.871094 467.375 L 152.339844 467.375 L 152.339844 469.085938 Z M 149.199219 469.085938 "/>
<path style=" stroke:none;fill-rule:nonzero;fill:rgb(100%,100%,100%);fill-opacity:1;" d="M 153.011719 467.375 L 158.488281 467.375 L 158.488281 469.085938 L 155.339844 469.085938 L 155.339844 469.90625 L 157.878906 469.90625 L 157.878906 471.484375 L 155.339844 471.484375 L 155.339844 472.265625 L 158.609375 472.265625 L 158.609375 473.972656 L 153.011719 473.972656 Z M 153.011719 467.375 "/>
<path style=" stroke:none;fill-rule:nonzero;fill:rgb(100%,100%,100%);fill-opacity:1;" d="M 164.589844 472.265625 L 164.589844 473.972656 L 159.273438 473.972656 L 159.273438 467.375 L 161.601562 467.375 L 161.601562 472.265625 Z M 164.589844 472.265625 "/>
<path style=" stroke:none;fill-rule:nonzero;fill:rgb(100%,100%,100%);fill-opacity:1;" d="M 169.308594 470.675781 C 169.308594 469.542969 169.089844 469.035156 168.230469 469.035156 L 167.652344 469.035156 L 167.652344 472.3125 L 168.230469 472.3125 C 169.089844 472.3125 169.308594 471.804688 169.308594 470.675781 M 171.6875 470.675781 C 171.6875 472.773438 170.628906 473.972656 168.5625 473.972656 L 165.324219 473.972656 L 165.324219 467.375 L 168.5625 467.375 C 170.628906 467.375 171.6875 468.574219 171.6875 470.675781 "/>
<path style=" stroke:none;fill-rule:nonzero;fill:rgb(100%,100%,100%);fill-opacity:1;" d="M 180.957031 473.972656 L 178.929688 473.972656 L 178.929688 471.683594 L 178.957031 469.464844 L 178.929688 469.464844 L 177.648438 473.972656 L 175.789062 473.972656 L 174.53125 469.464844 L 174.488281 469.464844 L 174.519531 471.683594 L 174.519531 473.972656 L 172.480469 473.972656 L 172.480469 467.375 L 175.738281 467.375 L 176.5 470.304688 L 176.789062 471.535156 L 176.808594 471.535156 L 177.097656 470.304688 L 177.859375 467.375 L 180.957031 467.375 Z M 180.957031 473.972656 "/>
<path style=" stroke:none;fill-rule:nonzero;fill:rgb(100%,100%,100%);fill-opacity:1;" d="M 185.429688 471.265625 L 184.902344 469.066406 L 184.871094 469.066406 L 184.609375 470.183594 L 184.339844 471.265625 Z M 185.769531 472.710938 L 183.992188 472.710938 L 183.679688 473.972656 L 181.363281 473.972656 L 183.5 467.375 L 186.296875 467.375 L 188.449219 473.972656 L 186.070312 473.972656 Z M 185.769531 472.710938 "/>
<path style=" stroke:none;fill-rule:nonzero;fill:rgb(100%,100%,100%);fill-opacity:1;" d="M 195.308594 473.972656 L 192.789062 473.972656 L 191.210938 470.976562 L 190.851562 470.164062 L 190.828125 470.164062 L 190.871094 471.523438 L 190.871094 473.972656 L 188.851562 473.972656 L 188.851562 467.375 L 191.371094 467.375 L 192.949219 470.382812 L 193.308594 471.183594 L 193.328125 471.183594 L 193.289062 469.824219 L 193.289062 467.375 L 195.308594 467.375 Z M 195.308594 473.972656 "/>
<path style=" stroke:none;fill-rule:nonzero;fill:rgb(100%,100%,100%);fill-opacity:1;" d="M 208.589844 470.253906 L 209.488281 470.253906 C 209.980469 470.253906 210.230469 470.09375 210.230469 469.644531 C 210.230469 469.203125 209.980469 469.035156 209.488281 469.035156 L 208.589844 469.035156 Z M 210.398438 473.972656 L 209.230469 471.785156 L 208.589844 471.785156 L 208.589844 473.972656 L 206.3125 473.972656 L 206.3125 467.375 L 209.890625 467.375 C 211.609375 467.375 212.558594 468.207031 212.558594 469.476562 C 212.558594 470.476562 212.128906 471.125 211.320312 471.445312 L 212.929688 473.972656 Z M 210.398438 473.972656 "/>
<path style=" stroke:none;fill-rule:nonzero;fill:rgb(100%,100%,100%);fill-opacity:1;" d="M 213.363281 467.375 L 218.839844 467.375 L 218.839844 469.085938 L 215.691406 469.085938 L 215.691406 469.90625 L 218.226562 469.90625 L 218.226562 471.484375 L 215.691406 471.484375 L 215.691406 472.265625 L 218.957031 472.265625 L 218.957031 473.972656 L 213.363281 473.972656 Z M 213.363281 467.375 "/>
<path style=" stroke:none;fill-rule:nonzero;fill:rgb(100%,100%,100%);fill-opacity:1;" d="M 222.769531 474.074219 C 220.679688 474.074219 219.410156 472.832031 219.410156 470.675781 C 219.410156 468.515625 220.679688 467.277344 222.769531 467.277344 C 224.21875 467.277344 225.488281 467.867188 225.769531 469.277344 L 223.769531 470.054688 C 223.660156 469.195312 223.320312 469.027344 222.828125 469.027344 C 222.140625 469.027344 221.789062 469.535156 221.789062 470.675781 C 221.789062 471.804688 222.078125 472.324219 222.878906 472.324219 C 223.359375 472.324219 223.679688 472.054688 223.757812 471.425781 L 225.816406 471.953125 C 225.449219 473.503906 224.277344 474.074219 222.769531 474.074219 "/>
<path style=" stroke:none;fill-rule:nonzero;fill:rgb(100%,100%,100%);fill-opacity:1;" d="M 232.859375 467.375 L 232.859375 473.972656 L 230.53125 473.972656 L 230.53125 471.515625 L 228.71875 471.515625 L 228.71875 473.972656 L 226.390625 473.972656 L 226.390625 467.375 L 228.71875 467.375 L 228.71875 469.804688 L 230.53125 469.804688 L 230.53125 467.375 Z M 232.859375 467.375 "/>
<path style=" stroke:none;fill-rule:nonzero;fill:rgb(100%,100%,100%);fill-opacity:1;" d="M 240.316406 473.972656 L 237.796875 473.972656 L 236.21875 470.976562 L 235.859375 470.164062 L 235.839844 470.164062 L 235.878906 471.523438 L 235.878906 473.972656 L 233.863281 473.972656 L 233.863281 467.375 L 236.378906 467.375 L 237.960938 470.382812 L 238.320312 471.183594 L 238.339844 471.183594 L 238.296875 469.824219 L 238.296875 467.375 L 240.316406 467.375 Z M 240.316406 473.972656 "/>
<path style=" stroke:none;fill-rule:nonzero;fill:rgb(100%,100%,100%);fill-opacity:1;" d="M 243.648438 473.972656 L 241.320312 473.972656 L 241.320312 467.375 L 243.648438 467.375 Z M 243.648438 473.972656 "/>
<path style=" stroke:none;fill-rule:nonzero;fill:rgb(100%,100%,100%);fill-opacity:1;" d="M 250.808594 469.085938 L 248.75 469.085938 L 248.75 473.972656 L 246.417969 473.972656 L 246.417969 469.085938 L 244.351562 469.085938 L 244.351562 467.375 L 250.808594 467.375 Z M 250.808594 469.085938 "/>
<path style=" stroke:none;fill-rule:nonzero;fill:rgb(100%,100%,100%);fill-opacity:1;" d="M 257.226562 472.3125 L 257.226562 473.972656 L 251.261719 473.972656 L 251.261719 472.382812 L 254.609375 469.035156 L 251.300781 469.035156 L 251.300781 467.375 L 257.117188 467.375 L 257.117188 468.964844 L 253.789062 472.3125 Z M 257.226562 472.3125 "/>
<path style=" stroke:none;fill-rule:nonzero;fill:rgb(100%,100%,100%);fill-opacity:1;" d="M 257.882812 467.375 L 263.359375 467.375 L 263.359375 469.085938 L 260.210938 469.085938 L 260.210938 469.90625 L 262.746094 469.90625 L 262.746094 471.484375 L 260.210938 471.484375 L 260.210938 472.265625 L 263.476562 472.265625 L 263.476562 473.972656 L 257.882812 473.972656 Z M 257.882812 467.375 "/>
<path style=" stroke:none;fill-rule:nonzero;fill:rgb(100%,100%,100%);fill-opacity:1;" d="M 266.417969 470.253906 L 267.316406 470.253906 C 267.808594 470.253906 268.058594 470.09375 268.058594 469.644531 C 268.058594 469.203125 267.808594 469.035156 267.316406 469.035156 L 266.417969 469.035156 Z M 268.230469 473.972656 L 267.058594 471.785156 L 266.417969 471.785156 L 266.417969 473.972656 L 264.140625 473.972656 L 264.140625 467.375 L 267.71875 467.375 C 269.4375 467.375 270.386719 468.207031 270.386719 469.476562 C 270.386719 470.476562 269.957031 471.125 269.148438 471.445312 L 270.757812 473.972656 Z M 268.230469 473.972656 "/>
<path style=" stroke:none;fill-rule:nonzero;fill:rgb(100%,100%,100%);fill-opacity:1;" d="M 285.417969 471.683594 L 285.417969 473.972656 L 283.089844 473.972656 L 283.089844 471.683594 L 280.78125 467.375 L 283.097656 467.375 L 283.800781 468.886719 L 284.269531 470.085938 L 284.738281 468.886719 L 285.4375 467.375 L 287.726562 467.375 Z M 285.417969 471.683594 "/>
<path style=" stroke:none;fill-rule:nonzero;fill:rgb(100%,100%,100%);fill-opacity:1;" d="M 288.320312 467.375 L 293.796875 467.375 L 293.796875 469.085938 L 290.648438 469.085938 L 290.648438 469.90625 L 293.1875 469.90625 L 293.1875 471.484375 L 290.648438 471.484375 L 290.648438 472.265625 L 293.917969 472.265625 L 293.917969 473.972656 L 288.320312 473.972656 Z M 288.320312 467.375 "/>
<path style=" stroke:none;fill-rule:nonzero;fill:rgb(100%,100%,100%);fill-opacity:1;" d="M 298.046875 471.265625 L 297.519531 469.066406 L 297.488281 469.066406 L 297.230469 470.183594 L 296.960938 471.265625 Z M 298.386719 472.710938 L 296.609375 472.710938 L 296.300781 473.972656 L 293.980469 473.972656 L 296.117188 467.375 L 298.917969 467.375 L 301.066406 473.972656 L 298.6875 473.972656 Z M 298.386719 472.710938 "/>
<path style=" stroke:none;fill-rule:nonzero;fill:rgb(100%,100%,100%);fill-opacity:1;" d="M 304.679688 470.253906 L 307.738281 470.253906 L 307.738281 473.972656 L 306.199219 473.972656 L 306.117188 473.203125 C 305.769531 473.773438 305.140625 474.070312 304.25 474.070312 C 302.539062 474.070312 301.261719 472.941406 301.261719 470.695312 C 301.261719 468.535156 302.53125 467.277344 304.679688 467.277344 C 306.308594 467.277344 307.238281 467.816406 307.757812 469.085938 L 305.589844 469.863281 C 305.496094 469.234375 305.167969 469.027344 304.699219 469.027344 C 303.941406 469.027344 303.640625 469.554688 303.640625 470.675781 C 303.640625 471.925781 304.03125 472.382812 304.878906 472.382812 C 305.40625 472.382812 305.789062 472.164062 305.789062 471.695312 L 305.789062 471.683594 L 304.679688 471.683594 Z M 304.679688 470.253906 "/>
<path style=" stroke:none;fill-rule:nonzero;fill:rgb(100%,100%,100%);fill-opacity:1;" d="M 308.691406 467.375 L 314.167969 467.375 L 314.167969 469.085938 L 311.019531 469.085938 L 311.019531 469.90625 L 313.558594 469.90625 L 313.558594 471.484375 L 311.019531 471.484375 L 311.019531 472.265625 L 314.289062 472.265625 L 314.289062 473.972656 L 308.691406 473.972656 Z M 308.691406 467.375 "/>
<path style=" stroke:none;fill-rule:nonzero;fill:rgb(100%,100%,100%);fill-opacity:1;" d="M 317.230469 470.253906 L 318.128906 470.253906 C 318.617188 470.253906 318.867188 470.09375 318.867188 469.644531 C 318.867188 469.203125 318.617188 469.035156 318.128906 469.035156 L 317.230469 469.035156 Z M 319.039062 473.972656 L 317.867188 471.785156 L 317.230469 471.785156 L 317.230469 473.972656 L 314.949219 473.972656 L 314.949219 467.375 L 318.527344 467.375 C 320.246094 467.375 321.195312 468.207031 321.195312 469.476562 C 321.195312 470.476562 320.765625 471.125 319.957031 471.445312 L 321.566406 473.972656 Z M 319.039062 473.972656 "/>
</g>
</svg>
