<?xml version="1.0" encoding="UTF-8"?>
<svg xmlns="http://www.w3.org/2000/svg" xmlns:xlink="http://www.w3.org/1999/xlink" width="113pt" height="115pt" viewBox="0 0 113 115" version="1.1">
<defs>
<clipPath id="clip1">
  <path d="M 2.082031 57 L 112 57 L 112 59 L 2.082031 59 Z M 2.082031 57 "/>
</clipPath>
<clipPath id="clip2">
  <path d="M 56 3 L 58 3 L 58 112.71875 L 56 112.71875 Z M 56 3 "/>
</clipPath>
<clipPath id="clip3">
  <path d="M 2.082031 2.71875 L 112.082031 2.71875 L 112.082031 112.71875 L 2.082031 112.71875 Z M 2.082031 2.71875 "/>
</clipPath>
<clipPath id="clip4">
  <path d="M 2.082031 77 L 21 77 L 21 108 L 2.082031 108 Z M 2.082031 77 "/>
</clipPath>
<clipPath id="clip5">
  <path d="M 2.082031 7 L 21 7 L 21 38 L 2.082031 38 Z M 2.082031 7 "/>
</clipPath>
<clipPath id="clip6">
  <path d="M 93 77 L 112.082031 77 L 112.082031 108 L 93 108 Z M 93 77 "/>
</clipPath>
<clipPath id="clip7">
  <path d="M 93 7 L 112.082031 7 L 112.082031 38 L 93 38 Z M 93 7 "/>
</clipPath>
</defs>
<g id="surface1">
<g clip-path="url(#clip1)" clip-rule="nonzero">
<path style="fill:none;stroke-width:10;stroke-linecap:butt;stroke-linejoin:miter;stroke:rgb(92.939758%,10.978699%,14.118958%);stroke-opacity:1;stroke-miterlimit:10;" d="M 30.820312 572.8125 L 1110.78125 572.8125 " transform="matrix(0.1,0,0,-0.1,0,115)"/>
</g>
<g clip-path="url(#clip2)" clip-rule="nonzero">
<path style="fill:none;stroke-width:10;stroke-linecap:butt;stroke-linejoin:miter;stroke:rgb(92.939758%,10.978699%,14.118958%);stroke-opacity:1;stroke-miterlimit:10;" d="M 570.820312 32.8125 L 570.820312 1112.8125 " transform="matrix(0.1,0,0,-0.1,0,115)"/>
</g>
<g clip-path="url(#clip3)" clip-rule="nonzero">
<path style="fill:none;stroke-width:10;stroke-linecap:butt;stroke-linejoin:miter;stroke:rgb(92.939758%,10.978699%,14.118958%);stroke-opacity:1;stroke-miterlimit:10;" d="M 30.820312 140.820312 L 57.8125 202.421875 L 84.804688 257.851562 L 111.796875 307.5 L 138.789062 351.601562 L 165.820312 390.546875 L 192.8125 424.609375 L 219.804688 454.140625 L 246.796875 479.492188 L 273.789062 500.9375 L 300.820312 518.789062 L 327.8125 533.4375 L 354.804688 545.15625 L 381.796875 554.257812 L 408.789062 561.132812 L 462.8125 569.335938 L 516.796875 572.382812 L 570.820312 572.8125 L 624.804688 573.242188 L 678.789062 576.25 L 732.8125 584.453125 L 759.804688 591.328125 L 786.796875 600.429688 L 813.789062 612.1875 L 840.820312 626.796875 L 867.8125 644.6875 L 894.804688 666.09375 L 921.796875 691.445312 L 948.789062 720.976562 L 975.820312 755.039062 L 1002.8125 793.984375 L 1029.804688 838.085938 L 1056.796875 887.734375 L 1083.789062 943.203125 L 1110.78125 1004.804688 " transform="matrix(0.1,0,0,-0.1,0,115)"/>
<path style="fill:none;stroke-width:10;stroke-linecap:butt;stroke-linejoin:miter;stroke:rgb(92.939758%,10.978699%,14.118958%);stroke-opacity:1;stroke-miterlimit:10;" d="M 30.820312 -723.203125 L 44.296875 -628.398438 L 57.8125 -538.359375 L 71.289062 -452.929688 L 84.804688 -371.992188 L 98.320312 -295.429688 L 111.796875 -223.085938 L 125.3125 -154.921875 L 138.789062 -90.742188 L 152.304688 -30.46875 L 165.820312 26.054688 L 179.296875 78.90625 L 192.8125 128.28125 L 206.289062 174.21875 L 219.804688 216.875 L 233.320312 256.40625 L 246.796875 292.851562 L 260.3125 326.40625 L 273.789062 357.1875 L 287.304688 385.273438 L 300.820312 410.820312 L 314.296875 433.90625 L 327.8125 454.6875 L 341.289062 473.320312 L 354.804688 489.84375 L 381.796875 517.226562 L 408.789062 537.8125 L 435.820312 552.539062 L 462.8125 562.421875 L 489.804688 568.4375 L 516.796875 571.523438 L 570.820312 572.8125 L 624.804688 574.101562 L 651.796875 577.1875 L 678.789062 583.164062 L 705.820312 593.046875 L 732.8125 607.8125 L 759.804688 628.359375 L 786.796875 655.742188 L 800.3125 672.304688 L 813.789062 690.898438 L 827.304688 711.679688 L 840.820312 734.804688 L 854.296875 760.351562 L 867.8125 788.4375 L 881.289062 819.179688 L 894.804688 852.734375 L 908.320312 889.21875 L 921.796875 928.710938 L 935.3125 971.367188 L 948.789062 1017.34375 L 962.304688 1066.679688 L 975.820312 1119.53125 L 989.296875 1176.054688 L 1002.8125 1236.367188 L 1016.289062 1300.507812 L 1029.804688 1368.710938 L 1043.28125 1441.015625 L 1056.796875 1517.578125 L 1070.3125 1598.515625 L 1083.789062 1683.945312 L 1097.304688 1774.023438 L 1110.78125 1868.789062 " transform="matrix(0.1,0,0,-0.1,0,115)"/>
<path style="fill:none;stroke-width:10;stroke-linecap:butt;stroke-linejoin:miter;stroke:rgb(92.939758%,10.978699%,14.118958%);stroke-opacity:1;stroke-miterlimit:10;" d="M 30.820312 -4611.210938 L 37.539062 -4419.21875 L 44.296875 -4232.03125 L 51.054688 -4049.609375 L 57.8125 -3871.835938 L 64.570312 -3698.671875 L 71.289062 -3530.078125 L 78.046875 -3366.015625 L 84.804688 -3206.328125 L 91.5625 -3051.054688 L 98.320312 -2900.078125 L 105.039062 -2753.359375 L 111.796875 -2610.820312 L 118.554688 -2472.421875 L 125.3125 -2338.085938 L 132.070312 -2207.773438 L 138.789062 -2081.40625 L 145.546875 -1958.945312 L 152.304688 -1840.273438 L 159.0625 -1725.390625 L 165.820312 -1614.21875 L 172.539062 -1506.640625 L 179.296875 -1402.695312 L 186.054688 -1302.265625 L 192.8125 -1205.3125 L 199.570312 -1111.757812 L 206.289062 -1021.523438 L 213.046875 -934.570312 L 219.804688 -850.859375 L 226.5625 -770.3125 L 233.320312 -692.8125 L 240.039062 -618.398438 L 246.796875 -546.953125 L 253.554688 -478.398438 L 260.3125 -412.734375 L 267.070312 -349.84375 L 273.789062 -289.6875 L 280.546875 -232.1875 L 287.304688 -177.34375 L 294.0625 -125.039062 L 300.820312 -75.195312 L 307.539062 -27.8125 L 314.296875 17.226562 L 321.054688 59.921875 L 327.8125 100.390625 L 334.570312 138.671875 L 341.289062 174.84375 L 348.046875 208.945312 L 354.804688 241.015625 L 368.320312 299.414062 L 381.796875 350.546875 L 395.3125 394.84375 L 408.789062 432.8125 L 422.304688 465 L 435.820312 491.796875 L 449.296875 513.75 L 462.8125 531.328125 L 476.289062 545 L 489.804688 555.3125 L 503.320312 562.695312 L 516.796875 567.617188 L 543.789062 572.148438 L 570.820312 572.8125 L 597.8125 573.4375 L 624.804688 577.96875 L 638.320312 582.929688 L 651.796875 590.3125 L 665.3125 600.585938 L 678.789062 614.257812 L 692.304688 631.835938 L 705.820312 653.789062 L 719.296875 680.625 L 732.8125 712.773438 L 746.289062 750.742188 L 759.804688 795.078125 L 773.320312 846.171875 L 786.796875 904.570312 L 793.554688 936.679688 L 800.3125 970.742188 L 807.070312 1006.914062 L 813.789062 1045.195312 L 820.546875 1085.664062 L 827.304688 1128.398438 L 834.0625 1173.398438 L 840.820312 1220.78125 L 847.539062 1270.625 L 854.296875 1322.929688 L 861.054688 1377.8125 L 867.8125 1435.273438 L 874.570312 1495.429688 L 881.289062 1558.320312 L 888.046875 1624.023438 L 894.804688 1692.539062 L 901.5625 1763.984375 L 908.320312 1838.4375 L 915.039062 1915.898438 L 921.796875 1996.445312 L 928.554688 2080.195312 L 935.3125 2167.109375 L 942.070312 2257.34375 L 948.789062 2350.898438 L 955.546875 2447.890625 L 962.304688 2548.320312 L 969.0625 2652.265625 L 975.820312 2759.804688 L 982.539062 2870.976562 L 989.296875 2985.859375 L 996.054688 3104.53125 L 1002.8125 3226.992188 L 1009.53125 3353.398438 L 1016.289062 3483.710938 L 1023.046875 3618.007812 L 1029.804688 3756.40625 L 1036.5625 3898.945312 L 1043.28125 4045.664062 L 1050.039062 4196.640625 L 1056.796875 4351.953125 L 1063.554688 4511.601562 L 1070.3125 4675.703125 L 1077.03125 4844.296875 L 1083.789062 5017.421875 L 1090.546875 5195.195312 L 1097.304688 5377.65625 L 1104.0625 5564.804688 L 1110.78125 5756.796875 " transform="matrix(0.1,0,0,-0.1,0,115)"/>
<path style="fill:none;stroke-width:10;stroke-linecap:butt;stroke-linejoin:miter;stroke:rgb(92.939758%,10.978699%,14.118958%);stroke-opacity:1;stroke-miterlimit:10;" d="M 30.820312 1868.789062 L 44.296875 1774.023438 L 57.8125 1683.945312 L 71.289062 1598.515625 L 84.804688 1517.578125 L 98.320312 1441.015625 L 111.796875 1368.710938 L 125.3125 1300.507812 L 138.789062 1236.367188 L 152.304688 1176.054688 L 165.820312 1119.53125 L 179.296875 1066.679688 L 192.8125 1017.34375 L 206.289062 971.367188 L 219.804688 928.710938 L 233.320312 889.21875 L 246.796875 852.734375 L 260.3125 819.179688 L 273.789062 788.4375 L 287.304688 760.351562 L 300.820312 734.804688 L 314.296875 711.679688 L 327.8125 690.898438 L 341.289062 672.304688 L 354.804688 655.742188 L 381.796875 628.359375 L 408.789062 607.8125 L 435.820312 593.046875 L 462.8125 583.164062 L 489.804688 577.1875 L 516.796875 574.101562 L 570.820312 572.8125 L 624.804688 571.523438 L 651.796875 568.4375 L 678.789062 562.421875 L 705.820312 552.539062 L 732.8125 537.8125 L 759.804688 517.226562 L 786.796875 489.84375 L 800.3125 473.320312 L 813.789062 454.6875 L 827.304688 433.90625 L 840.820312 410.820312 L 854.296875 385.273438 L 867.8125 357.1875 L 881.289062 326.40625 L 894.804688 292.851562 L 908.320312 256.40625 L 921.796875 216.875 L 935.3125 174.21875 L 948.789062 128.28125 L 962.304688 78.90625 L 975.820312 26.054688 L 989.296875 -30.46875 L 1002.8125 -90.742188 L 1016.289062 -154.921875 L 1029.804688 -223.085938 L 1043.28125 -295.429688 L 1056.796875 -371.992188 L 1070.3125 -452.929688 L 1083.789062 -538.359375 L 1097.304688 -628.398438 L 1110.78125 -723.203125 " transform="matrix(0.1,0,0,-0.1,0,115)"/>
<path style="fill:none;stroke-width:10;stroke-linecap:butt;stroke-linejoin:miter;stroke:rgb(92.939758%,10.978699%,14.118958%);stroke-opacity:1;stroke-miterlimit:10;" d="M 30.820312 5756.796875 L 37.539062 5564.804688 L 44.296875 5377.65625 L 51.054688 5195.195312 L 57.8125 5017.421875 L 64.570312 4844.296875 L 71.289062 4675.703125 L 78.046875 4511.601562 L 84.804688 4351.953125 L 91.5625 4196.640625 L 98.320312 4045.664062 L 105.039062 3898.945312 L 111.796875 3756.40625 L 118.554688 3618.007812 L 125.3125 3483.710938 L 132.070312 3353.398438 L 138.789062 3226.992188 L 145.546875 3104.53125 L 152.304688 2985.859375 L 159.0625 2870.976562 L 165.820312 2759.804688 L 172.539062 2652.265625 L 179.296875 2548.320312 L 186.054688 2447.890625 L 192.8125 2350.898438 L 199.570312 2257.34375 L 206.289062 2167.109375 L 213.046875 2080.195312 L 219.804688 1996.445312 L 226.5625 1915.898438 L 233.320312 1838.4375 L 240.039062 1763.984375 L 246.796875 1692.539062 L 253.554688 1624.023438 L 260.3125 1558.320312 L 267.070312 1495.429688 L 273.789062 1435.273438 L 280.546875 1377.8125 L 287.304688 1322.929688 L 294.0625 1270.625 L 300.820312 1220.78125 L 307.539062 1173.398438 L 314.296875 1128.398438 L 321.054688 1085.664062 L 327.8125 1045.195312 L 334.570312 1006.914062 L 341.289062 970.742188 L 348.046875 936.679688 L 354.804688 904.570312 L 368.320312 846.171875 L 381.796875 795.078125 L 395.3125 750.742188 L 408.789062 712.773438 L 422.304688 680.625 L 435.820312 653.789062 L 449.296875 631.835938 L 462.8125 614.257812 L 476.289062 600.585938 L 489.804688 590.3125 L 503.320312 582.929688 L 516.796875 577.96875 L 543.789062 573.4375 L 570.820312 572.8125 L 597.8125 572.148438 L 624.804688 567.617188 L 638.320312 562.695312 L 651.796875 555.3125 L 665.3125 545 L 678.789062 531.328125 L 692.304688 513.75 L 705.820312 491.796875 L 719.296875 465 L 732.8125 432.8125 L 746.289062 394.84375 L 759.804688 350.546875 L 773.320312 299.414062 L 786.796875 241.015625 L 793.554688 208.945312 L 800.3125 174.84375 L 807.070312 138.671875 L 813.789062 100.390625 L 820.546875 59.921875 L 827.304688 17.226562 L 834.0625 -27.8125 L 840.820312 -75.195312 L 847.539062 -125.039062 L 854.296875 -177.34375 L 861.054688 -232.1875 L 867.8125 -289.6875 L 874.570312 -349.84375 L 881.289062 -412.734375 L 888.046875 -478.398438 L 894.804688 -546.953125 L 901.5625 -618.398438 L 908.320312 -692.8125 L 915.039062 -770.3125 L 921.796875 -850.859375 L 928.554688 -934.570312 L 935.3125 -1021.523438 L 942.070312 -1111.757812 L 948.789062 -1205.3125 L 955.546875 -1302.265625 L 962.304688 -1402.695312 L 969.0625 -1506.640625 L 975.820312 -1614.21875 L 982.539062 -1725.390625 L 989.296875 -1840.273438 L 996.054688 -1958.945312 L 1002.8125 -2081.40625 L 1009.53125 -2207.773438 L 1016.289062 -2338.085938 L 1023.046875 -2472.421875 L 1029.804688 -2610.820312 L 1036.5625 -2753.359375 L 1043.28125 -2900.078125 L 1050.039062 -3051.054688 L 1056.796875 -3206.328125 L 1063.554688 -3366.015625 L 1070.3125 -3530.078125 L 1077.03125 -3698.671875 L 1083.789062 -3871.835938 L 1090.546875 -4049.609375 L 1097.304688 -4232.03125 L 1104.0625 -4419.21875 L 1110.78125 -4611.210938 " transform="matrix(0.1,0,0,-0.1,0,115)"/>
</g>
<g clip-path="url(#clip4)" clip-rule="nonzero">
<path style="fill:none;stroke-width:5;stroke-linecap:butt;stroke-linejoin:miter;stroke:rgb(13.729858%,12.159729%,12.548828%);stroke-opacity:1;stroke-miterlimit:10;" d="M 138.789062 302.8125 L 52.382812 140.820312 " transform="matrix(0.1,0,0,-0.1,0,115)"/>
</g>
<path style=" stroke:none;fill-rule:nonzero;fill:rgb(13.729858%,12.159729%,12.548828%);fill-opacity:1;" d="M 5.238281 100.917969 L 10.746094 95.695312 L 7.78125 96.15625 L 6.511719 93.4375 "/>
<path style="fill:none;stroke-width:5;stroke-linecap:butt;stroke-linejoin:miter;stroke:rgb(13.729858%,12.159729%,12.548828%);stroke-opacity:1;stroke-miterlimit:10;" d="M 138.789062 572.8125 L 52.382812 572.8125 " transform="matrix(0.1,0,0,-0.1,0,115)"/>
<path style=" stroke:none;fill-rule:nonzero;fill:rgb(13.729858%,12.159729%,12.548828%);fill-opacity:1;" d="M 5.238281 57.71875 L 12.441406 60.121094 L 10.640625 57.71875 L 12.441406 55.320312 "/>
<g clip-path="url(#clip5)" clip-rule="nonzero">
<path style="fill:none;stroke-width:5;stroke-linecap:butt;stroke-linejoin:miter;stroke:rgb(13.729858%,12.159729%,12.548828%);stroke-opacity:1;stroke-miterlimit:10;" d="M 138.789062 842.8125 L 52.382812 1004.804688 " transform="matrix(0.1,0,0,-0.1,0,115)"/>
</g>
<path style=" stroke:none;fill-rule:nonzero;fill:rgb(13.729858%,12.159729%,12.548828%);fill-opacity:1;" d="M 5.238281 14.519531 L 6.511719 22.003906 L 7.78125 19.285156 L 10.746094 19.742188 "/>
<path style="fill:none;stroke-width:5;stroke-linecap:butt;stroke-linejoin:miter;stroke:rgb(13.729858%,12.159729%,12.548828%);stroke-opacity:1;stroke-miterlimit:10;" d="M 354.804688 302.8125 L 311.601562 140.820312 " transform="matrix(0.1,0,0,-0.1,0,115)"/>
<path style=" stroke:none;fill-rule:nonzero;fill:rgb(13.729858%,12.159729%,12.548828%);fill-opacity:1;" d="M 31.160156 100.917969 L 35.335938 94.582031 L 32.550781 95.703125 L 30.695312 93.34375 "/>
<path style="fill:none;stroke-width:5;stroke-linecap:butt;stroke-linejoin:miter;stroke:rgb(13.729858%,12.159729%,12.548828%);stroke-opacity:1;stroke-miterlimit:10;" d="M 354.804688 572.8125 L 311.601562 572.8125 " transform="matrix(0.1,0,0,-0.1,0,115)"/>
<path style=" stroke:none;fill-rule:nonzero;fill:rgb(13.729858%,12.159729%,12.548828%);fill-opacity:1;" d="M 31.160156 57.71875 L 38.359375 60.121094 L 36.558594 57.71875 L 38.359375 55.320312 "/>
<path style="fill:none;stroke-width:5;stroke-linecap:butt;stroke-linejoin:miter;stroke:rgb(13.729858%,12.159729%,12.548828%);stroke-opacity:1;stroke-miterlimit:10;" d="M 354.804688 842.8125 L 311.601562 1004.804688 " transform="matrix(0.1,0,0,-0.1,0,115)"/>
<path style=" stroke:none;fill-rule:nonzero;fill:rgb(13.729858%,12.159729%,12.548828%);fill-opacity:1;" d="M 31.160156 14.519531 L 30.695312 22.09375 L 32.550781 19.738281 L 35.335938 20.859375 "/>
<path style="fill:none;stroke-width:5;stroke-linecap:butt;stroke-linejoin:miter;stroke:rgb(13.729858%,12.159729%,12.548828%);stroke-opacity:1;stroke-miterlimit:10;" d="M 570.820312 302.8125 L 570.820312 140.820312 " transform="matrix(0.1,0,0,-0.1,0,115)"/>
<path style=" stroke:none;fill-rule:nonzero;fill:rgb(13.729858%,12.159729%,12.548828%);fill-opacity:1;" d="M 57.082031 100.917969 L 59.480469 93.71875 L 57.082031 95.519531 L 54.679688 93.71875 "/>
<path style="fill:none;stroke-width:5;stroke-linecap:butt;stroke-linejoin:miter;stroke:rgb(13.729858%,12.159729%,12.548828%);stroke-opacity:1;stroke-miterlimit:10;" d="M 570.820312 572.8125 L 570.820312 572.8125 " transform="matrix(0.1,0,0,-0.1,0,115)"/>
<path style=" stroke:none;fill-rule:nonzero;fill:rgb(13.729858%,12.159729%,12.548828%);fill-opacity:1;" d="M 57.082031 57.71875 L 49.878906 55.320312 L 51.679688 57.71875 L 49.878906 60.121094 "/>
<path style="fill:none;stroke-width:5;stroke-linecap:butt;stroke-linejoin:miter;stroke:rgb(13.729858%,12.159729%,12.548828%);stroke-opacity:1;stroke-miterlimit:10;" d="M 570.820312 842.8125 L 570.820312 1004.804688 " transform="matrix(0.1,0,0,-0.1,0,115)"/>
<path style=" stroke:none;fill-rule:nonzero;fill:rgb(13.729858%,12.159729%,12.548828%);fill-opacity:1;" d="M 57.082031 14.519531 L 54.679688 21.71875 L 57.082031 19.917969 L 59.480469 21.71875 "/>
<path style="fill:none;stroke-width:5;stroke-linecap:butt;stroke-linejoin:miter;stroke:rgb(13.729858%,12.159729%,12.548828%);stroke-opacity:1;stroke-miterlimit:10;" d="M 786.796875 302.8125 L 830 140.820312 " transform="matrix(0.1,0,0,-0.1,0,115)"/>
<path style=" stroke:none;fill-rule:nonzero;fill:rgb(13.729858%,12.159729%,12.548828%);fill-opacity:1;" d="M 83 100.917969 L 83.464844 93.34375 L 81.609375 95.703125 L 78.824219 94.582031 "/>
<path style="fill:none;stroke-width:5;stroke-linecap:butt;stroke-linejoin:miter;stroke:rgb(13.729858%,12.159729%,12.548828%);stroke-opacity:1;stroke-miterlimit:10;" d="M 786.796875 572.8125 L 830 572.8125 " transform="matrix(0.1,0,0,-0.1,0,115)"/>
<path style=" stroke:none;fill-rule:nonzero;fill:rgb(13.729858%,12.159729%,12.548828%);fill-opacity:1;" d="M 83 57.71875 L 75.800781 55.320312 L 77.601562 57.71875 L 75.800781 60.121094 "/>
<path style="fill:none;stroke-width:5;stroke-linecap:butt;stroke-linejoin:miter;stroke:rgb(13.729858%,12.159729%,12.548828%);stroke-opacity:1;stroke-miterlimit:10;" d="M 786.796875 842.8125 L 830 1004.804688 " transform="matrix(0.1,0,0,-0.1,0,115)"/>
<path style=" stroke:none;fill-rule:nonzero;fill:rgb(13.729858%,12.159729%,12.548828%);fill-opacity:1;" d="M 83 14.519531 L 78.824219 20.859375 L 81.609375 19.738281 L 83.464844 22.09375 "/>
<g clip-path="url(#clip6)" clip-rule="nonzero">
<path style="fill:none;stroke-width:5;stroke-linecap:butt;stroke-linejoin:miter;stroke:rgb(13.729858%,12.159729%,12.548828%);stroke-opacity:1;stroke-miterlimit:10;" d="M 1002.8125 302.8125 L 1089.21875 140.820312 " transform="matrix(0.1,0,0,-0.1,0,115)"/>
</g>
<path style=" stroke:none;fill-rule:nonzero;fill:rgb(13.729858%,12.159729%,12.548828%);fill-opacity:1;" d="M 108.921875 100.917969 L 107.648438 93.4375 L 106.378906 96.15625 L 103.414062 95.695312 "/>
<path style="fill:none;stroke-width:5;stroke-linecap:butt;stroke-linejoin:miter;stroke:rgb(13.729858%,12.159729%,12.548828%);stroke-opacity:1;stroke-miterlimit:10;" d="M 1002.8125 572.8125 L 1089.21875 572.8125 " transform="matrix(0.1,0,0,-0.1,0,115)"/>
<path style=" stroke:none;fill-rule:nonzero;fill:rgb(13.729858%,12.159729%,12.548828%);fill-opacity:1;" d="M 108.921875 57.71875 L 101.71875 55.320312 L 103.519531 57.71875 L 101.71875 60.121094 "/>
<g clip-path="url(#clip7)" clip-rule="nonzero">
<path style="fill:none;stroke-width:5;stroke-linecap:butt;stroke-linejoin:miter;stroke:rgb(13.729858%,12.159729%,12.548828%);stroke-opacity:1;stroke-miterlimit:10;" d="M 1002.8125 842.8125 L 1089.21875 1004.804688 " transform="matrix(0.1,0,0,-0.1,0,115)"/>
</g>
<path style=" stroke:none;fill-rule:nonzero;fill:rgb(13.729858%,12.159729%,12.548828%);fill-opacity:1;" d="M 108.921875 14.519531 L 103.414062 19.742188 L 106.378906 19.285156 L 107.648438 22.003906 "/>
</g>
</svg>
