<?xml version="1.0" encoding="UTF-8"?>
<svg xmlns="http://www.w3.org/2000/svg" xmlns:xlink="http://www.w3.org/1999/xlink" width="147pt" height="146pt" viewBox="0 0 147 146" version="1.1">
<defs>
<clipPath id="clip1">
  <path d="M 72 0 L 74 0 L 74 145.800781 L 72 145.800781 Z M 72 0 "/>
</clipPath>
<clipPath id="clip2">
  <path d="M 60 0 L 146.101562 0 L 146.101562 82 L 60 82 Z M 60 0 "/>
</clipPath>
<clipPath id="clip3">
  <path d="M 60 64 L 146.101562 64 L 146.101562 145.800781 L 60 145.800781 Z M 60 64 "/>
</clipPath>
<clipPath id="clip4">
  <path d="M 0 64 L 86 64 L 86 145.800781 L 0 145.800781 Z M 0 64 "/>
</clipPath>
<clipPath id="clip5">
  <path d="M 0 0 L 146.101562 0 L 146.101562 59 L 0 59 Z M 0 0 "/>
</clipPath>
<clipPath id="clip6">
  <path d="M 0 87 L 146.101562 87 L 146.101562 145.800781 L 0 145.800781 Z M 0 87 "/>
</clipPath>
<clipPath id="clip7">
  <path d="M 59 0 L 146.101562 0 L 146.101562 87 L 59 87 Z M 59 0 "/>
</clipPath>
<clipPath id="clip8">
  <path d="M 59 58 L 146.101562 58 L 146.101562 145.800781 L 59 145.800781 Z M 59 58 "/>
</clipPath>
<clipPath id="clip9">
  <path d="M 0 58 L 88 58 L 88 145.800781 L 0 145.800781 Z M 0 58 "/>
</clipPath>
<clipPath id="clip10">
  <path d="M 87 0 L 146.101562 0 L 146.101562 145.800781 L 87 145.800781 Z M 87 0 "/>
</clipPath>
<clipPath id="clip11">
  <path d="M 0 0 L 59 0 L 59 145.800781 L 0 145.800781 Z M 0 0 "/>
</clipPath>
</defs>
<g id="surface1">
<path style=" stroke:none;fill-rule:nonzero;fill:rgb(18.03894%,19.219971%,57.249451%);fill-opacity:1;" d="M 75.238281 72.71875 C 75.238281 71.527344 74.273438 70.558594 73.082031 70.558594 C 71.886719 70.558594 70.917969 71.527344 70.917969 72.71875 C 70.917969 73.914062 71.886719 74.878906 73.082031 74.878906 C 74.273438 74.878906 75.238281 73.914062 75.238281 72.71875 "/>
<path style="fill:none;stroke-width:10;stroke-linecap:butt;stroke-linejoin:miter;stroke:rgb(18.03894%,19.219971%,57.249451%);stroke-opacity:1;stroke-miterlimit:10;" d="M 10.820312 732.8125 L 1450.78125 732.8125 " transform="matrix(0.1,0,0,-0.1,0,146)"/>
<g clip-path="url(#clip1)" clip-rule="nonzero">
<path style="fill:none;stroke-width:10;stroke-linecap:butt;stroke-linejoin:miter;stroke:rgb(18.03894%,19.219971%,57.249451%);stroke-opacity:1;stroke-miterlimit:10;" d="M 730.820312 12.8125 L 730.820312 1452.8125 " transform="matrix(0.1,0,0,-0.1,0,146)"/>
</g>
<g clip-path="url(#clip2)" clip-rule="nonzero">
<path style="fill:none;stroke-width:10;stroke-linecap:butt;stroke-linejoin:miter;stroke:rgb(18.03894%,19.219971%,57.249451%);stroke-opacity:1;stroke-miterlimit:10;" d="M 745.703125 3513.710938 L 746.289062 3412.851562 L 746.835938 3319.023438 L 747.382812 3231.5625 L 747.96875 3149.804688 L 748.515625 3073.203125 L 749.0625 3001.367188 L 749.648438 2933.789062 L 750.195312 2870.078125 L 750.78125 2810 L 751.328125 2753.203125 L 751.875 2699.414062 L 752.460938 2648.398438 L 753.007812 2600 L 753.554688 2553.945312 L 754.140625 2510.15625 L 754.6875 2468.398438 L 755.820312 2390.507812 L 756.953125 2319.296875 L 758.046875 2253.984375 L 759.179688 2193.789062 L 760.3125 2138.203125 L 761.445312 2086.71875 L 762.539062 2038.828125 L 763.671875 1994.21875 L 764.804688 1952.578125 L 765.9375 1913.59375 L 767.03125 1876.992188 L 768.164062 1842.617188 L 770.429688 1779.726562 L 772.65625 1723.554688 L 774.921875 1673.125 L 777.148438 1627.578125 L 779.414062 1586.210938 L 781.640625 1548.515625 L 783.90625 1514.023438 L 786.132812 1482.304688 L 788.398438 1453.085938 L 790.625 1426.054688 L 795.117188 1377.65625 L 799.609375 1335.546875 L 804.101562 1298.632812 L 808.59375 1265.9375 L 813.085938 1236.835938 L 817.578125 1210.742188 L 822.070312 1187.226562 L 831.054688 1146.523438 L 840.039062 1112.5 L 849.023438 1083.632812 L 857.96875 1058.867188 L 866.953125 1037.34375 L 875.9375 1018.515625 L 893.90625 987.03125 L 911.875 961.835938 L 929.84375 941.171875 L 947.8125 923.90625 L 965.78125 909.296875 L 983.75 896.757812 L 1019.648438 876.367188 L 1055.585938 860.46875 L 1091.523438 847.773438 L 1163.398438 828.671875 L 1235.234375 815 L 1307.109375 804.765625 L 1378.945312 796.796875 L 1450.78125 790.390625 " transform="matrix(0.1,0,0,-0.1,0,146)"/>
</g>
<g clip-path="url(#clip3)" clip-rule="nonzero">
<path style="fill:none;stroke-width:10;stroke-linecap:butt;stroke-linejoin:miter;stroke:rgb(18.03894%,19.219971%,57.249451%);stroke-opacity:1;stroke-miterlimit:10;" d="M 745.703125 -2048.125 L 746.289062 -1947.226562 L 746.835938 -1853.4375 L 747.382812 -1765.9375 L 747.96875 -1684.21875 L 748.515625 -1607.617188 L 749.0625 -1535.742188 L 749.648438 -1468.164062 L 750.195312 -1404.492188 L 750.78125 -1344.375 L 751.328125 -1287.578125 L 751.875 -1233.789062 L 752.460938 -1182.8125 L 753.007812 -1134.375 L 753.554688 -1088.359375 L 754.140625 -1044.53125 L 754.6875 -1002.773438 L 755.820312 -924.882812 L 756.953125 -853.710938 L 758.046875 -788.359375 L 759.179688 -728.203125 L 760.3125 -672.617188 L 761.445312 -621.09375 L 762.539062 -573.242188 L 763.671875 -528.632812 L 764.804688 -486.992188 L 765.9375 -447.96875 L 767.03125 -411.40625 L 768.164062 -377.03125 L 770.429688 -314.101562 L 772.65625 -257.96875 L 774.921875 -207.5 L 777.148438 -161.953125 L 779.414062 -120.625 L 781.640625 -82.929688 L 783.90625 -48.398438 L 786.132812 -16.71875 L 788.398438 12.5 L 790.625 39.570312 L 795.117188 87.96875 L 799.609375 130.039062 L 804.101562 166.992188 L 808.59375 199.648438 L 813.085938 228.75 L 817.578125 254.84375 L 822.070312 278.359375 L 831.054688 319.0625 L 840.039062 353.085938 L 849.023438 381.953125 L 857.96875 406.71875 L 866.953125 428.242188 L 875.9375 447.070312 L 893.90625 478.554688 L 911.875 503.789062 L 929.84375 524.453125 L 947.8125 541.679688 L 965.78125 556.289062 L 983.75 568.828125 L 1019.648438 589.21875 L 1055.585938 605.117188 L 1091.523438 617.8125 L 1163.398438 636.914062 L 1235.234375 650.585938 L 1307.109375 660.820312 L 1378.945312 668.828125 L 1450.78125 675.195312 " transform="matrix(0.1,0,0,-0.1,0,146)"/>
</g>
<g clip-path="url(#clip4)" clip-rule="nonzero">
<path style="fill:none;stroke-width:10;stroke-linecap:butt;stroke-linejoin:miter;stroke:rgb(18.03894%,19.219971%,57.249451%);stroke-opacity:1;stroke-miterlimit:10;" d="M 10.820312 675.195312 L 82.65625 668.828125 L 154.53125 660.820312 L 226.367188 650.585938 L 298.242188 636.914062 L 370.078125 617.8125 L 406.015625 605.117188 L 441.953125 589.21875 L 477.851562 568.828125 L 495.820312 556.289062 L 513.789062 541.679688 L 531.757812 524.453125 L 549.726562 503.789062 L 567.695312 478.554688 L 585.664062 447.070312 L 594.648438 428.242188 L 603.59375 406.71875 L 612.578125 381.953125 L 621.5625 353.085938 L 630.546875 319.0625 L 639.53125 278.359375 L 644.023438 254.84375 L 648.515625 228.75 L 653.007812 199.648438 L 657.5 166.992188 L 661.992188 130.039062 L 666.484375 87.96875 L 670.976562 39.570312 L 673.242188 12.5 L 675.46875 -16.71875 L 677.734375 -48.398438 L 679.960938 -82.929688 L 682.1875 -120.625 L 684.453125 -161.953125 L 686.679688 -207.5 L 688.945312 -257.96875 L 691.171875 -314.101562 L 693.4375 -377.03125 L 694.570312 -411.40625 L 695.664062 -447.96875 L 696.796875 -486.992188 L 697.929688 -528.632812 L 699.0625 -573.242188 L 700.15625 -621.09375 L 701.289062 -672.617188 L 702.421875 -728.203125 L 703.515625 -788.359375 L 704.648438 -853.710938 L 705.78125 -924.882812 L 706.914062 -1002.773438 L 707.460938 -1044.53125 L 708.007812 -1088.359375 L 708.59375 -1134.375 L 709.140625 -1182.8125 L 709.726562 -1233.789062 L 710.273438 -1287.578125 L 710.820312 -1344.375 L 711.40625 -1404.492188 L 711.953125 -1468.164062 L 712.539062 -1535.742188 L 713.085938 -1607.617188 L 713.632812 -1684.21875 L 714.21875 -1765.9375 L 714.765625 -1853.4375 L 715.3125 -1947.226562 L 715.898438 -2048.125 " transform="matrix(0.1,0,0,-0.1,0,146)"/>
</g>
<path style="fill:none;stroke-width:10;stroke-linecap:butt;stroke-linejoin:miter;stroke:rgb(18.03894%,19.219971%,57.249451%);stroke-opacity:1;stroke-miterlimit:10;" d="M 10.820312 790.390625 L 82.65625 796.796875 L 154.53125 804.765625 L 226.367188 815 L 298.242188 828.671875 L 370.078125 847.773438 L 406.015625 860.46875 L 441.953125 876.367188 L 477.851562 896.757812 L 495.820312 909.296875 L 513.789062 923.90625 L 531.757812 941.171875 L 549.726562 961.835938 L 567.695312 987.03125 L 585.664062 1018.515625 L 594.648438 1037.34375 L 603.59375 1058.867188 L 612.578125 1083.632812 L 621.5625 1112.5 L 630.546875 1146.523438 L 639.53125 1187.226562 L 644.023438 1210.742188 L 648.515625 1236.835938 L 653.007812 1265.9375 L 657.5 1298.632812 L 661.992188 1335.546875 L 666.484375 1377.65625 L 670.976562 1426.054688 L 673.242188 1453.085938 L 675.46875 1482.304688 L 677.734375 1514.023438 L 679.960938 1548.515625 L 682.1875 1586.210938 L 684.453125 1627.578125 L 686.679688 1673.125 L 688.945312 1723.554688 L 691.171875 1779.726562 L 693.4375 1842.617188 L 694.570312 1876.992188 L 695.664062 1913.59375 L 696.796875 1952.578125 L 697.929688 1994.21875 L 699.0625 2038.828125 L 700.15625 2086.71875 L 701.289062 2138.203125 L 702.421875 2193.789062 L 703.515625 2253.984375 L 704.648438 2319.296875 L 705.78125 2390.507812 L 706.914062 2468.398438 L 707.460938 2510.15625 L 708.007812 2553.945312 L 708.59375 2600 L 709.140625 2648.398438 L 709.726562 2699.414062 L 710.273438 2753.203125 L 710.820312 2810 L 711.40625 2870.078125 L 711.953125 2933.789062 L 712.539062 3001.367188 L 713.085938 3073.203125 L 713.632812 3149.804688 L 714.21875 3231.5625 L 714.765625 3319.023438 L 715.3125 3412.851562 L 715.898438 3513.710938 " transform="matrix(0.1,0,0,-0.1,0,146)"/>
<path style=" stroke:none;fill-rule:nonzero;fill:rgb(92.939758%,10.978699%,14.118958%);fill-opacity:1;" d="M 119.335938 26.464844 L 112.546875 29.859375 L 115.515625 30.285156 L 115.941406 33.253906 "/>
<path style=" stroke:none;fill-rule:nonzero;fill:rgb(92.939758%,10.978699%,14.118958%);fill-opacity:1;" d="M 32.933594 32.574219 L 29.539062 25.785156 L 29.117188 28.757812 L 26.148438 29.179688 "/>
<path style=" stroke:none;fill-rule:nonzero;fill:rgb(92.939758%,10.978699%,14.118958%);fill-opacity:1;" d="M 113.226562 112.863281 L 116.621094 119.652344 L 117.042969 116.683594 L 120.015625 116.257812 "/>
<path style=" stroke:none;fill-rule:nonzero;fill:rgb(92.939758%,10.978699%,14.118958%);fill-opacity:1;" d="M 26.824219 118.972656 L 33.613281 115.582031 L 30.644531 115.15625 L 30.21875 112.1875 "/>
<g clip-path="url(#clip5)" clip-rule="nonzero">
<path style="fill:none;stroke-width:10;stroke-linecap:butt;stroke-linejoin:miter;stroke:rgb(92.939758%,10.978699%,14.118958%);stroke-opacity:1;stroke-miterlimit:10;" d="M 10.820312 1508.28125 L 154.804688 1376.796875 L 226.796875 1313.28125 L 298.789062 1251.992188 L 370.820312 1193.828125 L 442.8125 1140.078125 L 514.804688 1092.8125 L 550.820312 1072.421875 L 586.796875 1054.804688 L 622.8125 1040.390625 L 658.789062 1029.648438 L 694.804688 1023.046875 L 730.820312 1020.78125 L 766.796875 1023.046875 L 802.8125 1029.648438 L 838.789062 1040.390625 L 874.804688 1054.804688 L 910.820312 1072.421875 L 946.796875 1092.8125 L 1018.789062 1140.078125 L 1090.78125 1193.828125 L 1162.8125 1251.992188 L 1234.804688 1313.28125 L 1306.796875 1376.796875 L 1450.78125 1508.28125 " transform="matrix(0.1,0,0,-0.1,0,146)"/>
</g>
<path style=" stroke:none;fill-rule:nonzero;fill:rgb(92.939758%,10.978699%,14.118958%);fill-opacity:1;" d="M 114.855469 22.019531 L 107.730469 24.644531 L 110.636719 25.394531 L 110.730469 28.394531 "/>
<path style=" stroke:none;fill-rule:nonzero;fill:rgb(92.939758%,10.978699%,14.118958%);fill-opacity:1;" d="M 38.054688 27.417969 L 33.929688 21.046875 L 33.835938 24.046875 L 30.929688 24.796875 "/>
<g clip-path="url(#clip6)" clip-rule="nonzero">
<path style="fill:none;stroke-width:10;stroke-linecap:butt;stroke-linejoin:miter;stroke:rgb(92.939758%,10.978699%,14.118958%);stroke-opacity:1;stroke-miterlimit:10;" d="M 10.820312 -42.65625 L 154.804688 88.828125 L 226.796875 152.304688 L 298.789062 213.59375 L 370.820312 271.757812 L 442.8125 325.507812 L 514.804688 372.8125 L 550.820312 393.164062 L 586.796875 410.820312 L 622.8125 425.234375 L 658.789062 435.9375 L 694.804688 442.578125 L 730.820312 444.804688 L 766.796875 442.578125 L 802.8125 435.9375 L 838.789062 425.234375 L 874.804688 410.820312 L 910.820312 393.164062 L 946.796875 372.8125 L 1018.789062 325.507812 L 1090.78125 271.757812 L 1162.8125 213.59375 L 1234.804688 152.304688 L 1306.796875 88.828125 L 1450.78125 -42.65625 " transform="matrix(0.1,0,0,-0.1,0,146)"/>
</g>
<path style=" stroke:none;fill-rule:nonzero;fill:rgb(92.939758%,10.978699%,14.118958%);fill-opacity:1;" d="M 108.105469 118.023438 L 112.230469 124.394531 L 112.324219 121.394531 L 115.226562 120.644531 "/>
<path style=" stroke:none;fill-rule:nonzero;fill:rgb(92.939758%,10.978699%,14.118958%);fill-opacity:1;" d="M 31.304688 123.417969 L 38.429688 120.792969 L 35.523438 120.046875 L 35.429688 117.046875 "/>
<g clip-path="url(#clip7)" clip-rule="nonzero">
<path style="fill:none;stroke-width:10;stroke-linecap:butt;stroke-linejoin:miter;stroke:rgb(92.939758%,10.978699%,14.118958%);stroke-opacity:1;stroke-miterlimit:10;" d="M 732.226562 734.21875 L 1450.78125 1452.8125 " transform="matrix(0.1,0,0,-0.1,0,146)"/>
</g>
<g clip-path="url(#clip8)" clip-rule="nonzero">
<path style="fill:none;stroke-width:10;stroke-linecap:butt;stroke-linejoin:miter;stroke:rgb(92.939758%,10.978699%,14.118958%);stroke-opacity:1;stroke-miterlimit:10;" d="M 732.226562 731.367188 L 1450.78125 12.8125 " transform="matrix(0.1,0,0,-0.1,0,146)"/>
</g>
<g clip-path="url(#clip9)" clip-rule="nonzero">
<path style="fill:none;stroke-width:10;stroke-linecap:butt;stroke-linejoin:miter;stroke:rgb(92.939758%,10.978699%,14.118958%);stroke-opacity:1;stroke-miterlimit:10;" d="M 729.375 731.367188 L 10.820312 12.8125 " transform="matrix(0.1,0,0,-0.1,0,146)"/>
</g>
<path style="fill:none;stroke-width:10;stroke-linecap:butt;stroke-linejoin:miter;stroke:rgb(92.939758%,10.978699%,14.118958%);stroke-opacity:1;stroke-miterlimit:10;" d="M 732.226562 734.21875 L 10.820312 1452.8125 " transform="matrix(0.1,0,0,-0.1,0,146)"/>
<g clip-path="url(#clip10)" clip-rule="nonzero">
<path style="fill:none;stroke-width:10;stroke-linecap:butt;stroke-linejoin:miter;stroke:rgb(92.939758%,10.978699%,14.118958%);stroke-opacity:1;stroke-miterlimit:10;" d="M 1506.25 12.8125 L 1374.804688 156.796875 L 1311.289062 228.789062 L 1250 300.820312 L 1191.835938 372.8125 L 1138.085938 444.804688 L 1090.78125 516.796875 L 1070.429688 552.8125 L 1052.773438 588.789062 L 1038.398438 624.804688 L 1027.65625 660.820312 L 1021.054688 696.796875 L 1018.789062 732.8125 L 1021.054688 768.789062 L 1027.65625 804.804688 L 1038.398438 840.820312 L 1052.773438 876.796875 L 1070.429688 912.8125 L 1090.78125 948.789062 L 1138.085938 1020.78125 L 1191.835938 1092.8125 L 1250 1164.804688 L 1311.289062 1236.796875 L 1374.804688 1308.789062 L 1506.25 1452.8125 " transform="matrix(0.1,0,0,-0.1,0,146)"/>
</g>
<path style=" stroke:none;fill-rule:nonzero;fill:rgb(92.939758%,10.978699%,14.118958%);fill-opacity:1;" d="M 123.777344 30.945312 L 117.40625 35.070312 L 120.40625 35.164062 L 121.15625 38.066406 "/>
<path style=" stroke:none;fill-rule:nonzero;fill:rgb(92.939758%,10.978699%,14.118958%);fill-opacity:1;" d="M 118.382812 107.746094 L 121.003906 114.867188 L 121.753906 111.964844 L 124.753906 111.871094 "/>
<g clip-path="url(#clip11)" clip-rule="nonzero">
<path style="fill:none;stroke-width:10;stroke-linecap:butt;stroke-linejoin:miter;stroke:rgb(92.939758%,10.978699%,14.118958%);stroke-opacity:1;stroke-miterlimit:10;" d="M -44.648438 12.8125 L 86.796875 156.796875 L 150.3125 228.789062 L 211.601562 300.820312 L 269.765625 372.8125 L 323.515625 444.804688 L 370.820312 516.796875 L 391.171875 552.8125 L 408.789062 588.789062 L 423.203125 624.804688 L 433.945312 660.820312 L 440.546875 696.796875 L 442.8125 732.8125 L 440.546875 768.789062 L 433.945312 804.804688 L 423.203125 840.820312 L 408.789062 876.796875 L 391.171875 912.8125 L 370.820312 948.789062 L 323.515625 1020.78125 L 269.765625 1092.8125 L 211.601562 1164.804688 L 150.3125 1236.796875 L 86.796875 1308.789062 L -44.648438 1452.8125 " transform="matrix(0.1,0,0,-0.1,0,146)"/>
</g>
<path style=" stroke:none;fill-rule:nonzero;fill:rgb(92.939758%,10.978699%,14.118958%);fill-opacity:1;" d="M 27.777344 37.691406 L 25.15625 30.570312 L 24.40625 33.476562 L 21.40625 33.570312 "/>
<path style=" stroke:none;fill-rule:nonzero;fill:rgb(92.939758%,10.978699%,14.118958%);fill-opacity:1;" d="M 22.382812 114.492188 L 28.753906 110.371094 L 25.753906 110.277344 L 25.003906 107.371094 "/>
</g>
</svg>
