<?xml version="1.0" encoding="UTF-8"?>
<svg xmlns="http://www.w3.org/2000/svg" xmlns:xlink="http://www.w3.org/1999/xlink" width="80pt" height="103pt" viewBox="0 0 80 103" version="1.1">
<g id="surface1">
<path style=" stroke:none;fill-rule:nonzero;fill:rgb(80.076599%,80.076599%,80.076599%);fill-opacity:1;" d="M 76.082031 13.121094 C 76.082031 7.375 59.960938 2.71875 40.082031 2.71875 C 20.199219 2.71875 4.082031 7.375 4.082031 13.121094 C 4.082031 18.863281 20.199219 23.519531 40.082031 23.519531 C 59.960938 23.519531 76.082031 18.863281 76.082031 13.121094 "/>
<path style="fill:none;stroke-width:10;stroke-linecap:butt;stroke-linejoin:miter;stroke:rgb(0%,0%,0%);stroke-opacity:1;stroke-miterlimit:10;" d="M 40.820312 129.257812 L 112.8125 198.28125 L 184.804688 265.117188 L 256.796875 327.34375 L 292.8125 354.960938 L 328.789062 378.242188 L 346.796875 387.421875 L 364.804688 394.414062 L 382.8125 398.867188 L 400.820312 400.351562 L 418.789062 398.867188 L 436.796875 394.414062 L 454.804688 387.421875 L 472.8125 378.242188 L 508.789062 354.960938 L 544.804688 327.34375 L 616.796875 265.117188 L 688.789062 198.28125 L 760.820312 129.257812 " transform="matrix(0.1,0,0,-0.1,0,103)"/>
<path style="fill:none;stroke-width:10;stroke-linecap:butt;stroke-linejoin:miter;stroke:rgb(0%,0%,0%);stroke-opacity:1;stroke-miterlimit:10;" d="M 40.820312 118.789062 C 40.820312 61.367188 201.992188 14.804688 400.820312 14.804688 C 599.609375 14.804688 760.820312 61.367188 760.820312 118.789062 " transform="matrix(0.1,0,0,-0.1,0,103)"/>
<path style="fill:none;stroke-width:10;stroke-linecap:butt;stroke-linejoin:miter;stroke:rgb(0%,0%,0%);stroke-opacity:1;stroke-dasharray:30,30;stroke-dashoffset:15;stroke-miterlimit:10;" d="M 760.820312 118.789062 C 760.820312 176.25 599.609375 222.8125 400.820312 222.8125 C 201.992188 222.8125 40.820312 176.25 40.820312 118.789062 " transform="matrix(0.1,0,0,-0.1,0,103)"/>
<path style="fill:none;stroke-width:10;stroke-linecap:butt;stroke-linejoin:miter;stroke:rgb(92.939758%,10.978699%,14.118958%);stroke-opacity:1;stroke-miterlimit:10;" d="M 40.820312 888.320312 L 112.8125 819.296875 L 184.804688 752.5 L 256.796875 690.234375 L 292.8125 662.617188 L 328.789062 639.375 L 346.796875 630.195312 L 364.804688 623.164062 L 382.8125 618.75 L 400.820312 617.226562 L 418.789062 618.75 L 436.796875 623.164062 L 454.804688 630.195312 L 472.8125 639.375 L 508.789062 662.617188 L 544.804688 690.234375 L 616.796875 752.5 L 688.789062 819.296875 L 760.820312 888.320312 " transform="matrix(0.1,0,0,-0.1,0,103)"/>
<path style="fill:none;stroke-width:10;stroke-linecap:butt;stroke-linejoin:miter;stroke:rgb(92.939758%,10.978699%,14.118958%);stroke-opacity:1;stroke-miterlimit:10;" d="M 760.820312 898.789062 C 760.820312 956.25 599.609375 1002.8125 400.820312 1002.8125 C 201.992188 1002.8125 40.820312 956.25 40.820312 898.789062 C 40.820312 841.367188 201.992188 794.804688 400.820312 794.804688 C 599.609375 794.804688 760.820312 841.367188 760.820312 898.789062 " transform="matrix(0.1,0,0,-0.1,0,103)"/>
</g>
</svg>
