<?xml version="1.0" encoding="UTF-8"?>
<svg xmlns="http://www.w3.org/2000/svg" xmlns:xlink="http://www.w3.org/1999/xlink" width="112pt" height="101pt" viewBox="0 0 112 101" version="1.1">
<defs>
<clipPath id="clip1">
  <path d="M 0 0 L 107.101562 0 L 107.101562 101 L 0 101 Z M 0 0 "/>
</clipPath>
</defs>
<g id="surface1">
<g clip-path="url(#clip1)" clip-rule="nonzero">
<path style="fill:none;stroke-width:10;stroke-linecap:butt;stroke-linejoin:miter;stroke:rgb(92.939758%,10.978699%,14.118958%);stroke-opacity:1;stroke-miterlimit:10;" d="M 520.820312 532.8125 L 527.265625 534.882812 L 531.796875 540.78125 L 532.773438 549.257812 L 529.179688 558.59375 L 520.820312 566.71875 L 508.203125 571.523438 L 492.890625 571.210938 L 476.875 564.6875 L 462.734375 551.679688 L 452.929688 532.8125 L 450.429688 521.640625 L 449.804688 509.726562 L 451.289062 497.382812 L 454.921875 484.921875 L 460.820312 472.8125 L 468.945312 461.445312 L 479.21875 451.171875 L 491.445312 442.460938 L 505.390625 435.625 L 520.820312 431.015625 L 537.265625 428.90625 L 554.335938 429.53125 L 571.640625 433.046875 L 588.59375 439.492188 L 604.765625 448.828125 L 619.609375 461.015625 L 632.65625 475.820312 L 643.4375 492.96875 L 651.484375 512.109375 L 656.523438 532.8125 L 658.203125 554.570312 L 656.328125 576.835938 L 650.78125 599.023438 L 641.5625 620.546875 L 628.75 640.78125 L 612.539062 659.0625 L 593.203125 674.882812 L 571.132812 687.695312 L 546.796875 696.992188 L 520.820312 702.460938 L 493.710938 703.710938 L 466.289062 700.585938 L 439.140625 693.007812 L 413.085938 681.015625 L 388.867188 664.765625 L 367.070312 644.492188 L 348.476562 620.585938 L 333.632812 593.59375 L 323.085938 564.101562 L 317.226562 532.8125 L 316.367188 500.429688 L 320.742188 467.8125 L 330.351562 435.742188 L 345.117188 405.15625 L 364.84375 376.835938 L 389.179688 351.640625 L 417.617188 330.234375 L 449.492188 313.359375 L 484.179688 301.5625 L 520.820312 295.3125 L 558.476562 294.882812 L 596.289062 300.46875 L 633.242188 312.109375 L 668.398438 329.6875 L 700.742188 352.851562 L 729.414062 381.25 L 753.59375 414.179688 L 772.5 451.015625 L 785.546875 490.859375 L 792.226562 532.8125 L 792.226562 575.78125 L 785.390625 618.789062 L 771.71875 660.664062 L 751.367188 700.3125 L 724.726562 736.71875 L 692.304688 768.867188 L 654.804688 795.820312 L 613.046875 816.757812 L 568.046875 831.054688 L 520.820312 838.164062 L 472.5 837.773438 L 424.335938 829.6875 L 377.539062 813.945312 L 333.320312 790.820312 L 292.890625 760.703125 L 274.414062 743.242188 L 257.265625 724.257812 L 241.640625 703.867188 L 227.578125 682.226562 L 215.15625 659.414062 L 204.570312 635.546875 L 195.820312 610.820312 L 189.023438 585.351562 L 184.257812 559.296875 L 181.523438 532.8125 L 180.859375 506.054688 L 182.34375 479.179688 L 185.9375 452.421875 L 191.640625 425.859375 L 199.492188 399.726562 L 209.414062 374.140625 L 221.367188 349.296875 L 235.3125 325.390625 L 251.171875 302.539062 L 268.90625 280.898438 L 288.320312 260.625 L 309.414062 241.835938 L 331.992188 224.6875 L 355.976562 209.335938 L 381.210938 195.820312 L 407.578125 184.296875 L 434.84375 174.84375 L 462.929688 167.539062 L 491.640625 162.421875 L 520.820312 159.570312 L 550.234375 159.023438 L 579.726562 160.820312 L 609.101562 164.921875 L 638.242188 171.40625 L 666.875 180.15625 L 694.84375 191.171875 L 722.03125 204.453125 L 748.164062 219.882812 L 773.085938 237.382812 L 796.71875 256.914062 L 818.789062 278.28125 L 839.21875 301.445312 L 857.8125 326.289062 L 874.492188 352.578125 L 889.101562 380.234375 L 901.5625 409.0625 L 911.757812 438.945312 L 919.570312 469.648438 L 925 500.976562 L 927.929688 532.8125 L 928.398438 564.882812 L 926.289062 597.03125 L 921.640625 629.023438 L 914.492188 660.703125 L 904.804688 691.835938 L 892.65625 722.265625 L 878.085938 751.757812 L 861.171875 780.078125 L 841.992188 807.148438 L 820.703125 832.695312 L 797.34375 856.601562 L 772.070312 878.671875 L 745.078125 898.75 L 716.445312 916.71875 L 686.367188 932.460938 L 655 945.859375 L 622.578125 956.757812 L 589.257812 965.117188 L 555.273438 970.820312 L 520.820312 973.867188 L 486.054688 974.21875 L 451.289062 971.796875 L 416.640625 966.640625 L 382.382812 958.75 L 348.75 948.125 L 315.9375 934.882812 L 284.140625 919.023438 L 253.554688 900.625 L 224.414062 879.804688 L 196.914062 856.679688 L 171.210938 831.367188 L 147.5 804.023438 L 125.898438 774.765625 L 106.640625 743.828125 L 89.804688 711.328125 L 75.507812 677.5 L 63.867188 642.5 L 55 606.5625 L 48.945312 569.921875 L 45.78125 532.8125 L 45.546875 495.390625 L 48.28125 457.96875 L 53.984375 420.742188 L 62.578125 383.90625 L 74.101562 347.773438 L 88.515625 312.539062 L 105.664062 278.398438 L 125.546875 245.625 L 148.007812 214.375 L 172.929688 184.921875 L 200.195312 157.421875 L 229.648438 132.03125 L 261.09375 108.984375 L 294.375 88.398438 L 329.296875 70.429688 L 365.625 55.234375 L 403.164062 42.890625 L 441.71875 33.476562 L 481.015625 27.109375 L 520.820312 23.867188 L 560.859375 23.75 L 600.9375 26.757812 L 640.78125 32.96875 L 680.15625 42.304688 L 718.828125 54.765625 L 756.484375 70.273438 L 792.929688 88.75 L 827.929688 110.078125 L 861.25 134.179688 L 892.65625 160.9375 L 921.992188 190.15625 L 949.023438 221.679688 L 973.554688 255.351562 L 995.429688 290.976562 L 1014.492188 328.320312 L 1030.625 367.148438 L 1043.710938 407.265625 L 1053.632812 448.398438 L 1060.3125 490.351562 L 1063.671875 532.8125 " transform="matrix(0.1,0,0,-0.1,0,101)"/>
</g>
<path style=" stroke:none;fill-rule:nonzero;fill:rgb(92.939758%,10.978699%,14.118958%);fill-opacity:1;" d="M 48.480469 17.183594 L 54.480469 19.582031 L 52.980469 17.183594 L 54.480469 14.785156 "/>
</g>
</svg>
