<?xml version="1.0" encoding="UTF-8"?>
<svg xmlns="http://www.w3.org/2000/svg" xmlns:xlink="http://www.w3.org/1999/xlink" width="120pt" height="120pt" viewBox="0 0 120 120" version="1.1">
<g id="surface1">
<path style="fill:none;stroke-width:10;stroke-linecap:butt;stroke-linejoin:miter;stroke:rgb(18.03894%,19.219971%,57.249451%);stroke-opacity:1;stroke-miterlimit:10;" d="M 1176.796875 592.8125 L 1175.46875 592.851562 L 1171.484375 593.085938 L 1164.921875 593.75 L 1155.78125 595 L 1144.21875 597.070312 L 1130.351562 600.117188 L 1114.335938 604.335938 L 1096.289062 609.804688 L 1076.445312 616.679688 L 1055.039062 625.078125 L 1032.226562 635.078125 L 1008.242188 646.679688 L 957.851562 674.960938 L 905.78125 709.765625 L 854.0625 750.585938 L 804.453125 796.445312 L 758.59375 846.054688 L 717.773438 897.8125 L 682.96875 949.84375 L 654.6875 1000.234375 L 643.046875 1024.21875 L 633.085938 1047.03125 L 624.6875 1068.476562 L 617.8125 1088.28125 L 612.304688 1106.328125 L 608.125 1122.34375 L 605.078125 1136.210938 L 603.007812 1147.773438 L 601.71875 1156.914062 L 601.09375 1163.476562 L 600.820312 1167.460938 L 600.820312 1168.789062 L 600.78125 1167.460938 L 600.507812 1163.476562 L 599.84375 1156.914062 L 598.59375 1147.773438 L 596.523438 1136.210938 L 593.476562 1122.34375 L 589.296875 1106.328125 L 583.789062 1088.28125 L 576.914062 1068.476562 L 568.515625 1047.03125 L 558.515625 1024.21875 L 546.914062 1000.234375 L 518.632812 949.84375 L 483.828125 897.8125 L 443.007812 846.054688 L 397.148438 796.445312 L 347.539062 750.585938 L 295.820312 709.765625 L 243.75 674.960938 L 193.359375 646.679688 L 169.414062 635.078125 L 146.5625 625.078125 L 125.15625 616.679688 L 105.3125 609.804688 L 87.265625 604.335938 L 71.25 600.117188 L 57.382812 597.070312 L 45.820312 595 L 36.679688 593.75 L 30.117188 593.085938 L 26.132812 592.851562 L 24.804688 592.8125 L 26.132812 592.773438 L 30.117188 592.539062 L 36.679688 591.875 L 45.820312 590.585938 L 57.382812 588.515625 L 71.25 585.46875 L 87.265625 581.289062 L 105.3125 575.820312 L 125.15625 568.90625 L 146.5625 560.507812 L 169.414062 550.546875 L 193.359375 538.90625 L 243.75 510.625 L 295.820312 475.820312 L 347.539062 435.039062 L 397.148438 389.140625 L 443.007812 339.53125 L 483.828125 287.8125 L 518.632812 235.742188 L 546.914062 185.351562 L 558.515625 161.40625 L 568.515625 138.59375 L 576.914062 117.148438 L 583.789062 97.304688 L 589.296875 79.257812 L 593.476562 63.242188 L 596.523438 49.375 L 598.59375 37.8125 L 599.84375 28.710938 L 600.507812 22.109375 L 600.78125 18.125 L 600.820312 16.796875 L 600.820312 18.125 L 601.09375 22.109375 L 601.71875 28.710938 L 603.007812 37.8125 L 605.078125 49.375 L 608.125 63.242188 L 612.304688 79.257812 L 617.8125 97.304688 L 624.6875 117.148438 L 633.085938 138.59375 L 643.046875 161.40625 L 654.6875 185.351562 L 682.96875 235.742188 L 717.773438 287.8125 L 758.59375 339.53125 L 804.453125 389.140625 L 854.0625 435.039062 L 905.78125 475.820312 L 957.851562 510.625 L 1008.242188 538.90625 L 1032.226562 550.546875 L 1055.039062 560.507812 L 1076.445312 568.90625 L 1096.289062 575.820312 L 1114.335938 581.289062 L 1130.351562 585.46875 L 1144.21875 588.515625 L 1155.78125 590.585938 L 1164.921875 591.875 L 1171.484375 592.539062 L 1175.46875 592.773438 L 1176.796875 592.8125 " transform="matrix(0.1,0,0,-0.1,0,120)"/>
<path style="fill:none;stroke-width:5;stroke-linecap:butt;stroke-linejoin:miter;stroke:rgb(13.729858%,12.159729%,12.548828%);stroke-opacity:1;stroke-miterlimit:10;" d="M 1176.796875 592.8125 C 1176.796875 910.898438 918.90625 1168.789062 600.820312 1168.789062 C 282.695312 1168.789062 24.804688 910.898438 24.804688 592.8125 C 24.804688 274.6875 282.695312 16.796875 600.820312 16.796875 C 918.90625 16.796875 1176.796875 274.6875 1176.796875 592.8125 " transform="matrix(0.1,0,0,-0.1,0,120)"/>
<path style="fill:none;stroke-width:10;stroke-linecap:butt;stroke-linejoin:miter;stroke:rgb(13.729858%,12.159729%,12.548828%);stroke-opacity:1;stroke-miterlimit:10;" d="M 878.28125 1003.671875 C 878.28125 1083.164062 813.828125 1147.65625 734.296875 1147.65625 C 654.765625 1147.65625 590.3125 1083.164062 590.3125 1003.671875 C 590.3125 924.140625 654.765625 859.648438 734.296875 859.648438 C 813.828125 859.648438 878.28125 924.140625 878.28125 1003.671875 " transform="matrix(0.1,0,0,-0.1,0,120)"/>
<path style="fill:none;stroke-width:5;stroke-linecap:butt;stroke-linejoin:miter;stroke:rgb(13.729858%,12.159729%,12.548828%);stroke-opacity:1;stroke-miterlimit:10;" d="M 600.820312 592.8125 L 778.789062 1140.625 " transform="matrix(0.1,0,0,-0.1,0,120)"/>
<path style="fill:none;stroke-width:5;stroke-linecap:butt;stroke-linejoin:miter;stroke:rgb(13.729858%,12.159729%,12.548828%);stroke-opacity:1;stroke-miterlimit:10;" d="M 734.296875 1003.671875 L 617.8125 1088.28125 " transform="matrix(0.1,0,0,-0.1,0,120)"/>
<path style=" stroke:none;fill-rule:nonzero;fill:rgb(92.939758%,10.978699%,14.118958%);fill-opacity:1;" d="M 64.660156 11.171875 C 64.660156 9.578125 63.371094 8.289062 61.78125 8.289062 C 60.191406 8.289062 58.898438 9.578125 58.898438 11.171875 C 58.898438 12.761719 60.191406 14.050781 61.78125 14.050781 C 63.371094 14.050781 64.660156 12.761719 64.660156 11.171875 "/>
</g>
</svg>
