<?xml version="1.0" encoding="UTF-8"?>
<svg xmlns="http://www.w3.org/2000/svg" xmlns:xlink="http://www.w3.org/1999/xlink" width="148pt" height="107pt" viewBox="0 0 148 107" version="1.1">
<defs>
<clipPath id="clip1">
  <path d="M 2 0 L 148 0 L 148 79 L 2 79 Z M 2 0 "/>
</clipPath>
</defs>
<g id="surface1">
<g clip-path="url(#clip1)" clip-rule="nonzero">
<path style="fill:none;stroke-width:20;stroke-linecap:butt;stroke-linejoin:miter;stroke:rgb(0%,0%,0%);stroke-opacity:1;stroke-miterlimit:10;" d="M 30.820312 567.96875 L 102.8125 576.132812 L 174.804688 586.835938 L 246.796875 601.328125 L 318.789062 621.71875 L 354.804688 635.117188 L 390.820312 651.445312 L 426.796875 671.367188 L 462.8125 695.507812 L 498.789062 724.296875 L 534.804688 757.265625 L 606.796875 828.320312 L 642.8125 861.289062 L 678.789062 890.078125 L 714.804688 914.257812 L 750.820312 934.179688 L 786.796875 950.507812 L 822.8125 963.90625 L 894.804688 984.257812 L 966.796875 998.75 L 1038.789062 1009.453125 L 1182.8125 1024.0625 L 1326.796875 1033.476562 L 1470.78125 1040 " transform="matrix(0.1,0,0,-0.1,0,107)"/>
</g>
<path style="fill:none;stroke-width:10;stroke-linecap:butt;stroke-linejoin:miter;stroke:rgb(92.939758%,10.978699%,14.118958%);stroke-opacity:1;stroke-miterlimit:10;" d="M 1454.0625 499.179688 C 1454.0625 767.65625 1236.40625 985.3125 967.890625 985.3125 C 699.414062 985.3125 481.71875 767.65625 481.71875 499.179688 C 481.71875 230.664062 699.414062 13.007812 967.890625 13.007812 C 1236.40625 13.007812 1454.0625 230.664062 1454.0625 499.179688 " transform="matrix(0.1,0,0,-0.1,0,107)"/>
<path style="fill:none;stroke-width:5;stroke-linecap:butt;stroke-linejoin:miter;stroke:rgb(13.729858%,12.159729%,12.548828%);stroke-opacity:1;stroke-miterlimit:10;" d="M 714.804688 914.257812 L 967.890625 499.179688 " transform="matrix(0.1,0,0,-0.1,0,107)"/>
<path style=" stroke:none;fill-rule:nonzero;fill:rgb(18.03894%,19.219971%,57.249451%);fill-opacity:1;" d="M 74.179688 15.574219 C 74.179688 14.082031 72.972656 12.875 71.480469 12.875 C 69.988281 12.875 68.78125 14.082031 68.78125 15.574219 C 68.78125 17.066406 69.988281 18.273438 71.480469 18.273438 C 72.972656 18.273438 74.179688 17.066406 74.179688 15.574219 "/>
<path style=" stroke:none;fill-rule:nonzero;fill:rgb(92.939758%,10.978699%,14.118958%);fill-opacity:1;" d="M 99.488281 57.082031 C 99.488281 55.59375 98.28125 54.382812 96.789062 54.382812 C 95.296875 54.382812 94.089844 55.59375 94.089844 57.082031 C 94.089844 58.574219 95.296875 59.78125 96.789062 59.78125 C 98.28125 59.78125 99.488281 58.574219 99.488281 57.082031 "/>
</g>
</svg>
