<?xml version="1.0" encoding="UTF-8"?>
<svg xmlns="http://www.w3.org/2000/svg" xmlns:xlink="http://www.w3.org/1999/xlink" width="107pt" height="95pt" viewBox="0 0 107 95" version="1.1">
<g id="surface1">
<path style="fill:none;stroke-width:10;stroke-linecap:butt;stroke-linejoin:miter;stroke:rgb(92.939758%,10.978699%,14.118958%);stroke-opacity:1;stroke-miterlimit:10;" d="M 695.078125 330.703125 L 624.609375 329.257812 L 552.382812 325 L 479.921875 318.007812 L 408.75 308.4375 L 340.3125 296.484375 L 275.976562 282.34375 L 217.1875 266.367188 L 165.039062 248.867188 L 141.835938 239.6875 L 120.703125 230.234375 L 101.71875 220.585938 L 85.039062 210.78125 L 70.703125 200.9375 L 58.828125 190.976562 L 49.414062 181.09375 L 42.578125 171.210938 L 38.320312 161.484375 L 36.640625 151.914062 L 37.578125 142.539062 L 41.132812 133.4375 L 47.304688 124.648438 L 55.976562 116.210938 L 67.1875 108.164062 L 80.859375 100.546875 L 96.914062 93.398438 L 115.273438 86.796875 L 135.820312 80.703125 L 158.476562 75.234375 L 209.570312 66.09375 L 267.539062 59.609375 L 331.171875 55.859375 L 399.140625 54.960938 L 470.039062 56.914062 L 542.421875 61.679688 L 614.726562 69.140625 L 685.546875 79.179688 L 753.359375 91.5625 L 816.757812 106.015625 L 874.453125 122.304688 L 925.234375 140.039062 L 947.695312 149.335938 L 968.046875 158.867188 L 986.210938 168.554688 L 1002.03125 178.398438 L 1015.507812 188.28125 L 1026.484375 198.203125 L 1034.960938 208.125 L 1040.898438 217.929688 L 1044.21875 227.617188 L 1044.921875 237.109375 L 1043.007812 246.40625 L 1038.515625 255.390625 L 1031.445312 264.0625 L 1021.835938 272.382812 L 1009.726562 280.273438 L 995.15625 287.734375 L 978.28125 294.648438 L 959.101562 301.09375 L 937.773438 306.953125 L 914.414062 312.226562 " transform="matrix(0.1,0,0,-0.1,0,95)"/>
<path style=" stroke:none;fill-rule:nonzero;fill:rgb(92.939758%,10.978699%,14.118958%);fill-opacity:1;" d="M 87.871094 63.304688 L 93.558594 66.074219 L 92.332031 63.898438 L 94.082031 62.109375 "/>
<path style="fill:none;stroke-width:10;stroke-linecap:butt;stroke-linejoin:miter;stroke:rgb(13.729858%,12.159729%,12.548828%);stroke-opacity:1;stroke-miterlimit:10;" d="M 540.820312 192.8125 L 540.820312 912.8125 " transform="matrix(0.1,0,0,-0.1,0,95)"/>
<path style=" stroke:none;fill-rule:nonzero;fill:rgb(0%,0%,0%);fill-opacity:1;" d="M 54.082031 3.71875 L 52.082031 9.71875 L 54.082031 8.21875 L 56.082031 9.71875 "/>
</g>
</svg>
