<?xml version="1.0" encoding="UTF-8"?>
<svg xmlns="http://www.w3.org/2000/svg" xmlns:xlink="http://www.w3.org/1999/xlink" width="161pt" height="84pt" viewBox="0 0 161 84" version="1.1">
<g id="surface1">
<path style="fill:none;stroke-width:5;stroke-linecap:butt;stroke-linejoin:miter;stroke:rgb(18.03894%,19.219971%,57.249451%);stroke-opacity:1;stroke-miterlimit:10;" d="M 46.640625 36.992188 L 46.640625 786.992188 " transform="matrix(0.1,0,0,-0.1,0,84)"/>
<path style="fill:none;stroke-width:5;stroke-linecap:butt;stroke-linejoin:miter;stroke:rgb(18.03894%,19.219971%,57.249451%);stroke-opacity:1;stroke-miterlimit:10;" d="M 172.34375 36.992188 L 172.34375 786.992188 " transform="matrix(0.1,0,0,-0.1,0,84)"/>
<path style="fill:none;stroke-width:5;stroke-linecap:butt;stroke-linejoin:miter;stroke:rgb(18.03894%,19.219971%,57.249451%);stroke-opacity:1;stroke-miterlimit:10;" d="M 298.046875 36.992188 L 298.046875 786.992188 " transform="matrix(0.1,0,0,-0.1,0,84)"/>
<path style="fill:none;stroke-width:5;stroke-linecap:butt;stroke-linejoin:miter;stroke:rgb(18.03894%,19.219971%,57.249451%);stroke-opacity:1;stroke-miterlimit:10;" d="M 423.789062 36.992188 L 423.789062 786.992188 " transform="matrix(0.1,0,0,-0.1,0,84)"/>
<path style="fill:none;stroke-width:5;stroke-linecap:butt;stroke-linejoin:miter;stroke:rgb(18.03894%,19.219971%,57.249451%);stroke-opacity:1;stroke-miterlimit:10;" d="M 549.492188 36.992188 L 549.492188 786.992188 " transform="matrix(0.1,0,0,-0.1,0,84)"/>
<path style="fill:none;stroke-width:5;stroke-linecap:butt;stroke-linejoin:miter;stroke:rgb(18.03894%,19.219971%,57.249451%);stroke-opacity:1;stroke-miterlimit:10;" d="M 675.195312 36.992188 L 675.195312 786.992188 " transform="matrix(0.1,0,0,-0.1,0,84)"/>
<path style="fill:none;stroke-width:5;stroke-linecap:butt;stroke-linejoin:miter;stroke:rgb(18.03894%,19.219971%,57.249451%);stroke-opacity:1;stroke-miterlimit:10;" d="M 800.898438 36.992188 L 800.898438 786.992188 " transform="matrix(0.1,0,0,-0.1,0,84)"/>
<path style="fill:none;stroke-width:5;stroke-linecap:butt;stroke-linejoin:miter;stroke:rgb(18.03894%,19.219971%,57.249451%);stroke-opacity:1;stroke-miterlimit:10;" d="M 926.640625 36.992188 L 926.640625 786.992188 " transform="matrix(0.1,0,0,-0.1,0,84)"/>
<path style="fill:none;stroke-width:5;stroke-linecap:butt;stroke-linejoin:miter;stroke:rgb(18.03894%,19.219971%,57.249451%);stroke-opacity:1;stroke-miterlimit:10;" d="M 1052.34375 36.992188 L 1052.34375 786.992188 " transform="matrix(0.1,0,0,-0.1,0,84)"/>
<path style="fill:none;stroke-width:5;stroke-linecap:butt;stroke-linejoin:miter;stroke:rgb(18.03894%,19.219971%,57.249451%);stroke-opacity:1;stroke-miterlimit:10;" d="M 1178.046875 36.992188 L 1178.046875 786.992188 " transform="matrix(0.1,0,0,-0.1,0,84)"/>
<path style="fill:none;stroke-width:5;stroke-linecap:butt;stroke-linejoin:miter;stroke:rgb(18.03894%,19.219971%,57.249451%);stroke-opacity:1;stroke-miterlimit:10;" d="M 1303.789062 36.992188 L 1303.789062 786.992188 " transform="matrix(0.1,0,0,-0.1,0,84)"/>
<path style="fill:none;stroke-width:5;stroke-linecap:butt;stroke-linejoin:miter;stroke:rgb(18.03894%,19.219971%,57.249451%);stroke-opacity:1;stroke-miterlimit:10;" d="M 1429.492188 36.992188 L 1429.492188 786.992188 " transform="matrix(0.1,0,0,-0.1,0,84)"/>
<path style="fill:none;stroke-width:5;stroke-linecap:butt;stroke-linejoin:miter;stroke:rgb(18.03894%,19.219971%,57.249451%);stroke-opacity:1;stroke-miterlimit:10;" d="M 1555.195312 36.992188 L 1555.195312 786.992188 " transform="matrix(0.1,0,0,-0.1,0,84)"/>
<path style="fill:none;stroke-width:15;stroke-linecap:butt;stroke-linejoin:miter;stroke:rgb(18.03894%,19.219971%,57.249451%);stroke-opacity:1;stroke-miterlimit:10;" d="M 46.640625 36.992188 L 46.640625 786.992188 " transform="matrix(0.1,0,0,-0.1,0,84)"/>
<path style="fill:none;stroke-width:15;stroke-linecap:butt;stroke-linejoin:miter;stroke:rgb(18.03894%,19.219971%,57.249451%);stroke-opacity:1;stroke-miterlimit:10;" d="M 1555.195312 36.992188 L 1555.195312 786.992188 " transform="matrix(0.1,0,0,-0.1,0,84)"/>
<path style="fill:none;stroke-width:5;stroke-linecap:butt;stroke-linejoin:miter;stroke:rgb(92.939758%,10.978699%,14.118958%);stroke-opacity:1;stroke-miterlimit:10;" d="M 46.640625 36.992188 L 1555.195312 36.992188 " transform="matrix(0.1,0,0,-0.1,0,84)"/>
<path style="fill:none;stroke-width:5;stroke-linecap:butt;stroke-linejoin:miter;stroke:rgb(92.939758%,10.978699%,14.118958%);stroke-opacity:1;stroke-miterlimit:10;" d="M 46.640625 161.992188 L 1555.195312 161.992188 " transform="matrix(0.1,0,0,-0.1,0,84)"/>
<path style="fill:none;stroke-width:5;stroke-linecap:butt;stroke-linejoin:miter;stroke:rgb(92.939758%,10.978699%,14.118958%);stroke-opacity:1;stroke-miterlimit:10;" d="M 46.640625 286.992188 L 1555.195312 286.992188 " transform="matrix(0.1,0,0,-0.1,0,84)"/>
<path style="fill:none;stroke-width:5;stroke-linecap:butt;stroke-linejoin:miter;stroke:rgb(92.939758%,10.978699%,14.118958%);stroke-opacity:1;stroke-miterlimit:10;" d="M 46.640625 411.992188 L 1555.195312 411.992188 " transform="matrix(0.1,0,0,-0.1,0,84)"/>
<path style="fill:none;stroke-width:5;stroke-linecap:butt;stroke-linejoin:miter;stroke:rgb(92.939758%,10.978699%,14.118958%);stroke-opacity:1;stroke-miterlimit:10;" d="M 46.640625 536.992188 L 1555.195312 536.992188 " transform="matrix(0.1,0,0,-0.1,0,84)"/>
<path style="fill:none;stroke-width:5;stroke-linecap:butt;stroke-linejoin:miter;stroke:rgb(92.939758%,10.978699%,14.118958%);stroke-opacity:1;stroke-miterlimit:10;" d="M 46.640625 661.992188 L 1555.195312 661.992188 " transform="matrix(0.1,0,0,-0.1,0,84)"/>
<path style="fill:none;stroke-width:5;stroke-linecap:butt;stroke-linejoin:miter;stroke:rgb(92.939758%,10.978699%,14.118958%);stroke-opacity:1;stroke-miterlimit:10;" d="M 46.640625 786.992188 L 1555.195312 786.992188 " transform="matrix(0.1,0,0,-0.1,0,84)"/>
<path style="fill:none;stroke-width:15;stroke-linecap:butt;stroke-linejoin:miter;stroke:rgb(92.939758%,10.978699%,14.118958%);stroke-opacity:1;stroke-miterlimit:10;" d="M 46.640625 786.992188 L 1555.195312 786.992188 " transform="matrix(0.1,0,0,-0.1,0,84)"/>
<path style="fill:none;stroke-width:15;stroke-linecap:butt;stroke-linejoin:miter;stroke:rgb(0%,53.573608%,25.097656%);stroke-opacity:1;stroke-miterlimit:10;" d="M 46.640625 36.992188 L 1555.195312 36.992188 " transform="matrix(0.1,0,0,-0.1,0,84)"/>
<path style="fill:none;stroke-width:5;stroke-linecap:butt;stroke-linejoin:miter;stroke:rgb(18.03894%,19.219971%,57.249451%);stroke-opacity:1;stroke-miterlimit:10;" d="M 46.640625 411.992188 L 46.640625 768.242188 " transform="matrix(0.1,0,0,-0.1,0,84)"/>
<path style=" stroke:none;fill-rule:nonzero;fill:rgb(18.03894%,19.219971%,57.249451%);fill-opacity:1;" d="M 4.664062 7.175781 L 2.261719 14.375 L 4.664062 12.574219 L 7.0625 14.375 "/>
<path style="fill:none;stroke-width:5;stroke-linecap:butt;stroke-linejoin:miter;stroke:rgb(18.03894%,19.219971%,57.249451%);stroke-opacity:1;stroke-miterlimit:10;" d="M 1555.195312 411.992188 L 1555.195312 55.742188 " transform="matrix(0.1,0,0,-0.1,0,84)"/>
<path style=" stroke:none;fill-rule:nonzero;fill:rgb(18.03894%,19.219971%,57.249451%);fill-opacity:1;" d="M 155.519531 78.425781 L 157.921875 71.226562 L 155.519531 73.023438 L 153.121094 71.226562 "/>
<path style="fill:none;stroke-width:15;stroke-linecap:butt;stroke-linejoin:miter;stroke:rgb(13.729858%,12.159729%,12.548828%);stroke-opacity:1;stroke-miterlimit:10;" d="M 46.640625 411.992188 L 1555.195312 411.992188 " transform="matrix(0.1,0,0,-0.1,0,84)"/>
</g>
</svg>
