<?xml version="1.0" encoding="UTF-8"?>
<svg xmlns="http://www.w3.org/2000/svg" xmlns:xlink="http://www.w3.org/1999/xlink" width="179pt" height="97pt" viewBox="0 0 179 97" version="1.1">
<defs>
<clipPath id="clip1">
  <path d="M 0 5 L 176.5 5 L 176.5 97 L 0 97 Z M 0 5 "/>
</clipPath>
<clipPath id="clip2">
  <path d="M 0 0 L 176.5 0 L 176.5 91 L 0 91 Z M 0 0 "/>
</clipPath>
<clipPath id="clip3">
  <path d="M 0 0 L 176.5 0 L 176.5 77 L 0 77 Z M 0 0 "/>
</clipPath>
<clipPath id="clip4">
  <path d="M 0 0 L 176.5 0 L 176.5 97 L 0 97 Z M 0 0 "/>
</clipPath>
<clipPath id="clip5">
  <path d="M 130 41 L 176.5 41 L 176.5 57 L 130 57 Z M 130 41 "/>
</clipPath>
<clipPath id="clip6">
  <path d="M 127 26 L 176.5 26 L 176.5 49 L 127 49 Z M 127 26 "/>
</clipPath>
<clipPath id="clip7">
  <path d="M 130 41 L 176.5 41 L 176.5 57 L 130 57 Z M 130 41 "/>
</clipPath>
<clipPath id="clip8">
  <path d="M 116 27 L 176.5 27 L 176.5 71 L 116 71 Z M 116 27 "/>
</clipPath>
</defs>
<g id="surface1">
<g clip-path="url(#clip1)" clip-rule="nonzero">
<path style="fill:none;stroke-width:15;stroke-linecap:butt;stroke-linejoin:miter;stroke:rgb(0%,53.573608%,25.097656%);stroke-opacity:1;stroke-miterlimit:10;" d="M 1374.84375 484.140625 L 1374.257812 500.3125 L 1370.46875 516.445312 L 1363.476562 532.421875 L 1353.28125 548.164062 L 1339.921875 563.59375 L 1323.515625 578.671875 L 1303.984375 593.242188 L 1281.523438 607.265625 L 1256.132812 620.625 L 1227.929688 633.242188 L 1196.992188 645.078125 L 1163.476562 656.015625 L 1127.5 665.976562 L 1089.179688 674.882812 L 1048.710938 682.695312 L 1006.25 689.257812 L 961.992188 694.609375 L 916.09375 698.59375 L 820.429688 702.421875 L 721.171875 700.273438 L 620.351562 691.875 L 520.351562 677.070312 L 423.515625 655.78125 L 377.109375 642.773438 L 332.421875 628.203125 L 289.804688 612.148438 L 249.53125 594.609375 L 211.992188 575.742188 L 177.421875 555.546875 L 146.132812 534.140625 L 118.398438 511.640625 L 94.492188 488.164062 L 74.609375 463.789062 L 59.0625 438.710938 L 47.929688 413.046875 L 41.484375 386.992188 L 39.804688 360.625 L 43.046875 334.179688 L 51.289062 307.851562 L 64.53125 281.71875 L 82.8125 256.09375 L 106.132812 231.054688 L 134.375 206.835938 L 167.5 183.632812 L 205.3125 161.601562 L 247.65625 140.9375 L 294.296875 121.757812 L 345 104.296875 L 399.53125 88.710938 L 457.460938 75.078125 L 518.515625 63.59375 L 582.304688 54.375 L 648.398438 47.460938 L 716.367188 43.007812 L 785.78125 41.09375 L 856.132812 41.71875 L 926.953125 45 L 997.773438 50.859375 L 1068.046875 59.375 L 1137.304688 70.507812 L 1205.039062 84.179688 L 1270.742188 100.390625 L 1333.984375 119.023438 L 1394.21875 139.960938 L 1451.054688 163.164062 L 1504.0625 188.4375 L 1552.851562 215.625 L 1596.992188 244.609375 L 1636.210938 275.15625 L 1670.195312 307.109375 L 1698.671875 340.273438 L 1721.445312 374.375 L 1738.359375 409.257812 L 1749.21875 444.6875 L 1753.984375 480.390625 " transform="matrix(0.1,0,0,-0.1,0,97)"/>
</g>
<g clip-path="url(#clip2)" clip-rule="nonzero">
<path style="fill:none;stroke-width:15;stroke-linecap:butt;stroke-linejoin:miter;stroke:rgb(92.939758%,10.978699%,14.118958%);stroke-opacity:1;stroke-miterlimit:10;" d="M 1753.984375 480.390625 L 1752.617188 516.132812 L 1745.117188 551.71875 L 1731.5625 586.914062 L 1712.03125 621.445312 L 1686.71875 655.15625 L 1655.78125 687.734375 L 1619.453125 719.0625 L 1578.085938 748.867188 L 1531.875 777.03125 L 1481.25 803.320312 L 1426.601562 827.617188 L 1368.28125 849.765625 L 1306.796875 869.648438 L 1242.539062 887.148438 L 1176.015625 902.1875 L 1107.695312 914.648438 L 1038.125 924.570312 L 967.734375 931.875 L 897.03125 936.523438 L 826.5625 938.554688 L 756.796875 938.007812 L 688.203125 934.921875 L 621.25 929.375 L 556.367188 921.40625 L 493.945312 911.171875 L 434.453125 898.710938 L 378.203125 884.21875 L 325.546875 867.773438 L 276.757812 849.570312 L 232.148438 829.765625 L 191.953125 808.515625 L 156.328125 785.976562 L 125.46875 762.34375 L 99.492188 737.8125 L 78.4375 712.578125 L 62.421875 686.757812 L 51.40625 660.585938 L 45.351562 634.257812 L 44.21875 607.890625 L 47.929688 581.71875 L 56.367188 555.859375 L 69.296875 530.507812 L 86.640625 505.78125 L 108.125 481.835938 L 133.515625 458.828125 L 162.617188 436.796875 L 195.117188 415.9375 L 230.742188 396.328125 L 269.21875 378.007812 L 310.234375 361.132812 L 353.476562 345.703125 L 398.632812 331.757812 L 445.429688 319.375 L 493.476562 308.554688 L 592.226562 291.757812 L 692.460938 281.367188 L 791.914062 277.226562 L 888.359375 279.140625 L 979.921875 286.640625 L 1023.359375 292.382812 L 1064.882812 299.375 L 1104.375 307.5 L 1141.679688 316.71875 L 1176.601562 326.992188 L 1209.0625 338.164062 L 1238.90625 350.234375 L 1265.976562 363.085938 L 1290.234375 376.601562 L 1311.5625 390.78125 L 1329.921875 405.507812 L 1345.195312 420.664062 L 1357.382812 436.171875 L 1366.40625 451.992188 L 1372.226562 468.007812 L 1374.84375 484.140625 " transform="matrix(0.1,0,0,-0.1,0,97)"/>
</g>
<path style="fill:none;stroke-width:5;stroke-linecap:butt;stroke-linejoin:miter;stroke:rgb(92.939758%,10.978699%,14.118958%);stroke-opacity:1;stroke-miterlimit:10;" d="M 1469.648438 483.203125 L 1468.867188 504.257812 L 1464.140625 525.273438 L 1455.46875 546.054688 L 1442.96875 566.484375 L 1426.640625 586.484375 L 1406.5625 605.9375 L 1382.851562 624.6875 L 1355.664062 642.65625 L 1325.078125 659.726562 L 1291.25 675.78125 L 1254.414062 690.703125 L 1214.6875 704.453125 L 1172.304688 716.875 L 1127.539062 727.929688 L 1080.546875 737.539062 L 1031.601562 745.625 L 981.015625 752.109375 L 929.023438 756.914062 L 821.992188 761.445312 L 712.929688 758.945312 L 604.375 749.257812 L 551.054688 741.71875 L 498.867188 732.460938 L 448.085938 721.484375 L 399.023438 708.789062 L 351.992188 694.453125 L 307.34375 678.59375 L 265.3125 661.210938 L 226.25 642.460938 L 190.351562 622.382812 L 157.929688 601.09375 L 129.21875 578.75 L 104.414062 555.429688 L 83.710938 531.25 L 67.304688 506.40625 L 55.351562 481.015625 L 47.929688 455.234375 L 45.195312 429.21875 L 47.1875 403.085938 L 53.945312 377.109375 L 65.507812 351.328125 L 81.796875 326.015625 L 102.773438 301.25 L 128.359375 277.265625 L 158.476562 254.21875 L 192.929688 232.226562 L 231.523438 211.484375 L 274.101562 192.109375 L 320.390625 174.257812 L 370.117188 158.085938 L 423.007812 143.671875 L 478.75 131.171875 L 536.953125 120.664062 L 597.304688 112.226562 L 659.414062 105.9375 L 722.890625 101.914062 L 787.304688 100.117188 L 852.265625 100.664062 L 917.304688 103.515625 L 982.03125 108.710938 L 1046.015625 116.171875 L 1108.828125 125.976562 L 1170 137.96875 L 1229.140625 152.148438 L 1285.898438 168.4375 L 1339.84375 186.71875 L 1390.585938 206.914062 L 1437.773438 228.867188 L 1481.132812 252.5 L 1520.3125 277.617188 L 1555.039062 304.0625 L 1585.117188 331.71875 L 1610.3125 360.351562 L 1630.429688 389.84375 L 1645.351562 419.960938 L 1654.960938 450.507812 L 1659.179688 481.328125 " transform="matrix(0.1,0,0,-0.1,0,97)"/>
<path style="fill:none;stroke-width:5;stroke-linecap:butt;stroke-linejoin:miter;stroke:rgb(92.939758%,10.978699%,14.118958%);stroke-opacity:1;stroke-miterlimit:10;" d="M 1564.414062 482.265625 L 1563.4375 508.242188 L 1557.773438 534.101562 L 1547.5 559.6875 L 1532.65625 584.804688 L 1513.320312 609.375 L 1489.648438 633.203125 L 1461.757812 656.132812 L 1429.804688 678.046875 L 1393.984375 698.828125 L 1354.609375 718.28125 L 1311.796875 736.367188 L 1265.898438 752.890625 L 1217.148438 767.8125 L 1165.859375 781.015625 L 1112.34375 792.421875 L 1056.953125 801.953125 L 1000.039062 809.570312 L 941.914062 815.234375 L 882.96875 818.867188 L 823.515625 820.46875 L 763.984375 820.078125 L 704.6875 817.617188 L 646.015625 813.125 L 588.359375 806.640625 L 532.03125 798.203125 L 477.382812 787.890625 L 424.765625 775.703125 L 374.53125 761.796875 L 326.914062 746.171875 L 282.265625 728.984375 L 240.859375 710.3125 L 202.929688 690.3125 L 168.75 669.0625 L 138.4375 646.679688 L 112.304688 623.359375 L 90.429688 599.179688 L 72.929688 574.375 L 60 549.023438 L 51.640625 523.320312 L 47.929688 497.382812 L 48.90625 471.40625 L 54.570312 445.546875 L 64.84375 420 L 79.6875 394.84375 L 99.023438 370.273438 L 122.734375 346.445312 L 150.625 323.515625 L 182.578125 301.601562 L 218.359375 280.820312 L 257.773438 261.367188 L 300.546875 243.320312 L 346.484375 226.757812 L 395.234375 211.835938 L 446.484375 198.632812 L 500 187.226562 L 555.390625 177.695312 L 612.304688 170.078125 L 670.429688 164.414062 L 729.414062 160.78125 L 788.828125 159.179688 L 848.398438 159.609375 L 907.65625 162.070312 L 966.328125 166.523438 L 1023.984375 173.007812 L 1080.3125 181.445312 L 1134.960938 191.757812 L 1187.578125 203.945312 L 1237.8125 217.851562 L 1285.429688 233.476562 L 1330.078125 250.664062 L 1371.484375 269.335938 L 1409.414062 289.335938 L 1443.632812 310.625 L 1473.90625 332.96875 L 1500.078125 356.289062 L 1521.953125 380.46875 L 1539.414062 405.273438 L 1552.34375 430.625 L 1560.703125 456.367188 L 1564.414062 482.265625 " transform="matrix(0.1,0,0,-0.1,0,97)"/>
<path style="fill:none;stroke-width:5;stroke-linecap:butt;stroke-linejoin:miter;stroke:rgb(92.939758%,10.978699%,14.118958%);stroke-opacity:1;stroke-miterlimit:10;" d="M 1659.179688 481.328125 L 1658.007812 512.1875 L 1651.445312 542.890625 L 1639.53125 573.28125 L 1622.34375 603.125 L 1600.039062 632.265625 L 1572.695312 660.46875 L 1540.625 687.617188 L 1503.945312 713.476562 L 1462.929688 737.929688 L 1417.929688 760.820312 L 1369.179688 781.992188 L 1317.070312 801.328125 L 1261.953125 818.710938 L 1204.179688 834.0625 L 1144.179688 847.304688 L 1082.34375 858.320312 L 1019.0625 867.070312 L 954.804688 873.554688 L 890 877.695312 L 825.039062 879.53125 L 760.390625 879.0625 L 696.445312 876.289062 L 633.632812 871.25 L 572.34375 864.023438 L 513.007812 854.6875 L 455.9375 843.28125 L 401.484375 829.960938 L 350.039062 814.765625 L 301.835938 797.890625 L 257.226562 779.375 L 216.40625 759.414062 L 179.648438 738.164062 L 147.109375 715.703125 L 118.984375 692.265625 L 95.390625 667.96875 L 76.40625 642.96875 L 62.1875 617.5 L 52.65625 591.640625 L 47.929688 565.585938 L 47.929688 539.570312 L 52.617188 513.632812 L 61.953125 488.046875 L 75.742188 462.890625 L 93.90625 438.359375 L 116.289062 414.53125 L 142.65625 391.640625 L 172.851562 369.726562 L 206.640625 348.945312 L 243.789062 329.414062 L 283.984375 311.25 L 327.03125 294.492188 L 372.578125 279.257812 L 420.3125 265.625 L 470 253.59375 L 521.25 243.320312 L 573.828125 234.726562 L 681.445312 222.890625 L 790.351562 218.203125 L 898.007812 220.585938 L 950.585938 224.375 L 1001.953125 229.84375 L 1051.835938 236.914062 L 1099.921875 245.585938 L 1145.976562 255.742188 L 1189.765625 267.304688 L 1231.015625 280.234375 L 1269.570312 294.414062 L 1305.195312 309.765625 L 1337.695312 326.210938 L 1366.914062 343.632812 L 1392.734375 361.875 L 1415 380.898438 L 1433.554688 400.546875 L 1448.398438 420.742188 L 1459.375 441.328125 L 1466.484375 462.1875 L 1469.648438 483.203125 " transform="matrix(0.1,0,0,-0.1,0,97)"/>
<g clip-path="url(#clip3)" clip-rule="nonzero">
<path style="fill:none;stroke-width:5;stroke-linecap:butt;stroke-linejoin:miter;stroke:rgb(92.939758%,10.978699%,14.118958%);stroke-opacity:1;stroke-miterlimit:10;" d="M 1753.984375 480.390625 L 1752.617188 516.132812 L 1745.117188 551.71875 L 1731.5625 586.914062 L 1712.03125 621.445312 L 1686.71875 655.15625 L 1655.78125 687.734375 L 1619.453125 719.0625 L 1578.085938 748.867188 L 1531.875 777.03125 L 1481.25 803.320312 L 1426.601562 827.617188 L 1368.28125 849.765625 L 1306.796875 869.648438 L 1242.539062 887.148438 L 1176.015625 902.1875 L 1107.695312 914.648438 L 1038.125 924.570312 L 967.734375 931.875 L 897.03125 936.523438 L 826.5625 938.554688 L 756.796875 938.007812 L 688.203125 934.921875 L 621.25 929.375 L 556.367188 921.40625 L 493.945312 911.171875 L 434.453125 898.710938 L 378.203125 884.21875 L 325.546875 867.773438 L 276.757812 849.570312 L 232.148438 829.765625 L 191.953125 808.515625 L 156.328125 785.976562 L 125.46875 762.34375 L 99.492188 737.8125 L 78.4375 712.578125 L 62.421875 686.757812 L 51.40625 660.585938 L 45.351562 634.257812 L 44.21875 607.890625 L 47.929688 581.71875 L 56.367188 555.859375 L 69.296875 530.507812 L 86.640625 505.78125 L 108.125 481.835938 L 133.515625 458.828125 L 162.617188 436.796875 L 195.117188 415.9375 L 230.742188 396.328125 L 269.21875 378.007812 L 310.234375 361.132812 L 353.476562 345.703125 L 398.632812 331.757812 L 445.429688 319.375 L 493.476562 308.554688 L 592.226562 291.757812 L 692.460938 281.367188 L 791.914062 277.226562 L 888.359375 279.140625 L 979.921875 286.640625 L 1023.359375 292.382812 L 1064.882812 299.375 L 1104.375 307.5 L 1141.679688 316.71875 L 1176.601562 326.992188 L 1209.0625 338.164062 L 1238.90625 350.234375 L 1265.976562 363.085938 L 1290.234375 376.601562 L 1311.5625 390.78125 L 1329.921875 405.507812 L 1345.195312 420.664062 L 1357.382812 436.171875 L 1366.40625 451.992188 L 1372.226562 468.007812 L 1374.84375 484.140625 " transform="matrix(0.1,0,0,-0.1,0,97)"/>
</g>
<g clip-path="url(#clip4)" clip-rule="nonzero">
<path style="fill:none;stroke-width:15;stroke-linecap:butt;stroke-linejoin:miter;stroke:rgb(13.729858%,12.159729%,12.548828%);stroke-opacity:1;stroke-miterlimit:10;" d="M 1564.414062 482.265625 L 1563.4375 508.242188 L 1557.773438 534.101562 L 1547.5 559.6875 L 1532.65625 584.804688 L 1513.320312 609.375 L 1489.648438 633.203125 L 1461.757812 656.132812 L 1429.804688 678.046875 L 1393.984375 698.828125 L 1354.609375 718.28125 L 1311.796875 736.367188 L 1265.898438 752.890625 L 1217.148438 767.8125 L 1165.859375 781.015625 L 1112.34375 792.421875 L 1056.953125 801.953125 L 1000.039062 809.570312 L 941.914062 815.234375 L 882.96875 818.867188 L 823.515625 820.46875 L 763.984375 820.078125 L 704.6875 817.617188 L 646.015625 813.125 L 588.359375 806.640625 L 532.03125 798.203125 L 477.382812 787.890625 L 424.765625 775.703125 L 374.53125 761.796875 L 326.914062 746.171875 L 282.265625 728.984375 L 240.859375 710.3125 L 202.929688 690.3125 L 168.75 669.0625 L 138.4375 646.679688 L 112.304688 623.359375 L 90.429688 599.179688 L 72.929688 574.375 L 60 549.023438 L 51.640625 523.320312 L 47.929688 497.382812 L 48.90625 471.40625 L 54.570312 445.546875 L 64.84375 420 L 79.6875 394.84375 L 99.023438 370.273438 L 122.734375 346.445312 L 150.625 323.515625 L 182.578125 301.601562 L 218.359375 280.820312 L 257.773438 261.367188 L 300.546875 243.320312 L 346.484375 226.757812 L 395.234375 211.835938 L 446.484375 198.632812 L 500 187.226562 L 555.390625 177.695312 L 612.304688 170.078125 L 670.429688 164.414062 L 729.414062 160.78125 L 788.828125 159.179688 L 848.398438 159.609375 L 907.65625 162.070312 L 966.328125 166.523438 L 1023.984375 173.007812 L 1080.3125 181.445312 L 1134.960938 191.757812 L 1187.578125 203.945312 L 1237.8125 217.851562 L 1285.429688 233.476562 L 1330.078125 250.664062 L 1371.484375 269.335938 L 1409.414062 289.335938 L 1443.632812 310.625 L 1473.90625 332.96875 L 1500.078125 356.289062 L 1521.953125 380.46875 L 1539.414062 405.273438 L 1552.34375 430.625 L 1560.703125 456.367188 L 1564.414062 482.265625 " transform="matrix(0.1,0,0,-0.1,0,97)"/>
</g>
<g clip-path="url(#clip5)" clip-rule="nonzero">
<path style="fill:none;stroke-width:5;stroke-linecap:butt;stroke-linejoin:miter;stroke:rgb(18.03894%,19.219971%,57.249451%);stroke-opacity:1;stroke-miterlimit:10;" d="M 1374.84375 484.140625 L 1412.773438 483.789062 L 1450.664062 483.398438 L 1488.59375 483.007812 L 1526.484375 482.65625 L 1564.414062 482.265625 L 1602.304688 481.875 L 1640.234375 481.523438 L 1678.125 481.132812 L 1716.054688 480.742188 L 1753.984375 480.390625 " transform="matrix(0.1,0,0,-0.1,0,97)"/>
</g>
<g clip-path="url(#clip6)" clip-rule="nonzero">
<path style="fill:none;stroke-width:5;stroke-linecap:butt;stroke-linejoin:miter;stroke:rgb(18.03894%,19.219971%,57.249451%);stroke-opacity:1;stroke-miterlimit:10;" d="M 1347.734375 555.078125 L 1383.125 563.242188 L 1418.476562 571.367188 L 1453.867188 579.53125 L 1489.257812 587.65625 L 1524.609375 595.820312 L 1560 603.945312 L 1595.351562 612.109375 L 1630.742188 620.273438 L 1666.132812 628.398438 L 1701.484375 636.5625 " transform="matrix(0.1,0,0,-0.1,0,97)"/>
</g>
<path style="fill:none;stroke-width:5;stroke-linecap:butt;stroke-linejoin:miter;stroke:rgb(18.03894%,19.219971%,57.249451%);stroke-opacity:1;stroke-miterlimit:10;" d="M 1259.101562 619.179688 L 1314.726562 650.117188 L 1342.539062 665.625 L 1398.164062 696.5625 L 1425.976562 712.070312 L 1481.601562 743.007812 L 1509.414062 758.515625 L 1537.226562 773.984375 " transform="matrix(0.1,0,0,-0.1,0,97)"/>
<path style="fill:none;stroke-width:5;stroke-linecap:butt;stroke-linejoin:miter;stroke:rgb(18.03894%,19.219971%,57.249451%);stroke-opacity:1;stroke-miterlimit:10;" d="M 1114.960938 669.0625 L 1183.242188 751.71875 L 1200.3125 772.421875 L 1251.523438 834.414062 L 1268.554688 855.078125 L 1285.625 875.742188 " transform="matrix(0.1,0,0,-0.1,0,97)"/>
<path style="fill:none;stroke-width:5;stroke-linecap:butt;stroke-linejoin:miter;stroke:rgb(18.03894%,19.219971%,57.249451%);stroke-opacity:1;stroke-miterlimit:10;" d="M 926.445312 697.851562 L 932.148438 721.09375 L 937.8125 744.375 L 943.515625 767.617188 L 949.21875 790.898438 L 954.921875 814.140625 L 960.625 837.421875 L 966.328125 860.664062 L 971.992188 883.945312 L 977.695312 907.1875 L 983.398438 930.46875 " transform="matrix(0.1,0,0,-0.1,0,97)"/>
<path style="fill:none;stroke-width:5;stroke-linecap:butt;stroke-linejoin:miter;stroke:rgb(18.03894%,19.219971%,57.249451%);stroke-opacity:1;stroke-miterlimit:10;" d="M 710 699.648438 L 706.328125 723.085938 L 702.65625 746.484375 L 698.945312 769.921875 L 695.273438 793.359375 L 691.601562 816.757812 L 687.890625 840.195312 L 680.546875 887.070312 L 676.835938 910.46875 L 673.164062 933.90625 " transform="matrix(0.1,0,0,-0.1,0,97)"/>
<path style="fill:none;stroke-width:5;stroke-linecap:butt;stroke-linejoin:miter;stroke:rgb(18.03894%,19.219971%,57.249451%);stroke-opacity:1;stroke-miterlimit:10;" d="M 487.578125 670.664062 L 478.476562 692.539062 L 469.375 714.375 L 451.171875 758.125 L 442.070312 779.960938 L 432.96875 801.835938 L 423.867188 823.671875 L 414.765625 845.546875 L 405.664062 867.382812 L 396.5625 889.257812 " transform="matrix(0.1,0,0,-0.1,0,97)"/>
<path style="fill:none;stroke-width:5;stroke-linecap:butt;stroke-linejoin:miter;stroke:rgb(18.03894%,19.219971%,57.249451%);stroke-opacity:1;stroke-miterlimit:10;" d="M 285.195312 610.273438 L 275.46875 629.84375 L 265.703125 649.414062 L 255.976562 668.984375 L 246.210938 688.59375 L 236.484375 708.164062 L 226.71875 727.734375 L 216.992188 747.34375 L 207.265625 766.914062 L 197.5 786.484375 L 187.773438 806.054688 " transform="matrix(0.1,0,0,-0.1,0,97)"/>
<path style="fill:none;stroke-width:5;stroke-linecap:butt;stroke-linejoin:miter;stroke:rgb(18.03894%,19.219971%,57.249451%);stroke-opacity:1;stroke-miterlimit:10;" d="M 130.273438 521.757812 L 93.476562 627.695312 L 87.34375 645.3125 L 68.945312 698.28125 " transform="matrix(0.1,0,0,-0.1,0,97)"/>
<path style="fill:none;stroke-width:5;stroke-linecap:butt;stroke-linejoin:miter;stroke:rgb(18.03894%,19.219971%,57.249451%);stroke-opacity:1;stroke-miterlimit:10;" d="M 47.929688 413.046875 L 47.929688 581.71875 " transform="matrix(0.1,0,0,-0.1,0,97)"/>
<path style="fill:none;stroke-width:5;stroke-linecap:butt;stroke-linejoin:miter;stroke:rgb(18.03894%,19.219971%,57.249451%);stroke-opacity:1;stroke-miterlimit:10;" d="M 56.5625 296.210938 L 62.773438 313.710938 L 75.273438 348.789062 L 81.484375 366.328125 L 87.734375 383.828125 L 100.234375 418.90625 L 106.445312 436.445312 L 112.695312 453.945312 L 118.945312 471.484375 " transform="matrix(0.1,0,0,-0.1,0,97)"/>
<path style="fill:none;stroke-width:5;stroke-linecap:butt;stroke-linejoin:miter;stroke:rgb(18.03894%,19.219971%,57.249451%);stroke-opacity:1;stroke-miterlimit:10;" d="M 163.554688 186.171875 L 173.710938 205.546875 L 204.0625 263.671875 L 214.179688 283.085938 L 224.296875 302.460938 L 234.453125 321.835938 L 244.570312 341.210938 L 254.6875 360.625 L 264.804688 380 " transform="matrix(0.1,0,0,-0.1,0,97)"/>
<path style="fill:none;stroke-width:5;stroke-linecap:butt;stroke-linejoin:miter;stroke:rgb(18.03894%,19.219971%,57.249451%);stroke-opacity:1;stroke-miterlimit:10;" d="M 362.773438 98.90625 L 372.617188 120.546875 L 382.5 142.226562 L 402.1875 185.585938 L 412.03125 207.226562 L 421.914062 228.90625 L 451.445312 293.945312 L 461.328125 315.585938 " transform="matrix(0.1,0,0,-0.1,0,97)"/>
<path style="fill:none;stroke-width:5;stroke-linecap:butt;stroke-linejoin:miter;stroke:rgb(18.03894%,19.219971%,57.249451%);stroke-opacity:1;stroke-miterlimit:10;" d="M 633.515625 48.789062 L 638.320312 72.148438 L 643.085938 95.46875 L 647.890625 118.828125 L 652.65625 142.148438 L 657.421875 165.507812 L 662.226562 188.828125 L 671.757812 235.546875 L 676.5625 258.867188 L 681.328125 282.226562 " transform="matrix(0.1,0,0,-0.1,0,97)"/>
<path style="fill:none;stroke-width:5;stroke-linecap:butt;stroke-linejoin:miter;stroke:rgb(18.03894%,19.219971%,57.249451%);stroke-opacity:1;stroke-miterlimit:10;" d="M 942.734375 46.054688 L 938.320312 69.414062 L 933.945312 92.773438 L 929.53125 116.132812 L 925.15625 139.53125 L 920.78125 162.890625 L 916.367188 186.25 L 907.617188 232.96875 L 903.203125 256.328125 L 898.828125 279.6875 " transform="matrix(0.1,0,0,-0.1,0,97)"/>
<path style="fill:none;stroke-width:5;stroke-linecap:butt;stroke-linejoin:miter;stroke:rgb(18.03894%,19.219971%,57.249451%);stroke-opacity:1;stroke-miterlimit:10;" d="M 1249.101562 94.6875 L 1233.359375 115.703125 L 1217.578125 136.679688 L 1201.796875 157.695312 L 1186.054688 178.671875 L 1154.492188 220.703125 L 1138.75 241.679688 L 1122.96875 262.65625 L 1107.226562 283.671875 L 1091.445312 304.648438 " transform="matrix(0.1,0,0,-0.1,0,97)"/>
<path style="fill:none;stroke-width:5;stroke-linecap:butt;stroke-linejoin:miter;stroke:rgb(18.03894%,19.219971%,57.249451%);stroke-opacity:1;stroke-miterlimit:10;" d="M 1509.726562 191.367188 L 1482.929688 207.382812 L 1456.171875 223.398438 L 1429.414062 239.453125 L 1375.898438 271.484375 L 1349.101562 287.5 L 1322.34375 303.554688 L 1295.585938 319.570312 L 1268.789062 335.585938 L 1242.03125 351.640625 " transform="matrix(0.1,0,0,-0.1,0,97)"/>
<path style="fill:none;stroke-width:5;stroke-linecap:butt;stroke-linejoin:miter;stroke:rgb(18.03894%,19.219971%,57.249451%);stroke-opacity:1;stroke-miterlimit:10;" d="M 1686.71875 325.390625 L 1651.914062 334.257812 L 1617.148438 343.085938 L 1582.34375 351.953125 L 1547.539062 360.78125 L 1512.734375 369.648438 L 1477.96875 378.476562 L 1443.164062 387.304688 L 1408.398438 396.171875 L 1373.59375 405.039062 L 1338.789062 413.867188 " transform="matrix(0.1,0,0,-0.1,0,97)"/>
<g clip-path="url(#clip7)" clip-rule="nonzero">
<path style="fill:none;stroke-width:5;stroke-linecap:butt;stroke-linejoin:miter;stroke:rgb(18.03894%,19.219971%,57.249451%);stroke-opacity:1;stroke-miterlimit:10;" d="M 1753.984375 480.390625 L 1716.054688 480.742188 L 1678.125 481.132812 L 1640.234375 481.523438 L 1602.304688 481.875 L 1564.414062 482.265625 L 1526.484375 482.65625 L 1488.59375 483.007812 L 1450.664062 483.398438 L 1412.773438 483.789062 L 1374.84375 484.140625 " transform="matrix(0.1,0,0,-0.1,0,97)"/>
</g>
<g clip-path="url(#clip8)" clip-rule="nonzero">
<path style="fill:none;stroke-width:15;stroke-linecap:butt;stroke-linejoin:miter;stroke:rgb(18.03894%,19.219971%,57.249451%);stroke-opacity:1;stroke-miterlimit:10;" d="M 1374.84375 484.140625 L 1412.773438 483.789062 L 1450.664062 483.398438 L 1488.59375 483.007812 L 1526.484375 482.65625 L 1564.414062 482.265625 L 1602.304688 481.875 L 1640.234375 481.523438 L 1678.125 481.132812 L 1716.054688 480.742188 L 1753.984375 480.390625 " transform="matrix(0.1,0,0,-0.1,0,97)"/>
<path style="fill:none;stroke-width:15;stroke-linecap:butt;stroke-linejoin:miter;stroke:rgb(18.03894%,19.219971%,57.249451%);stroke-opacity:1;stroke-miterlimit:10;" d="M 1374.84375 484.140625 L 1753.984375 480.390625 " transform="matrix(0.1,0,0,-0.1,0,97)"/>
</g>
<path style=" stroke:none;fill-rule:nonzero;fill:rgb(18.03894%,19.219971%,57.249451%);fill-opacity:1;" d="M 175.398438 48.960938 L 169.417969 46.902344 L 170.898438 48.917969 L 169.378906 50.902344 "/>
</g>
</svg>
