<?xml version="1.0" encoding="UTF-8"?>
<svg xmlns="http://www.w3.org/2000/svg" xmlns:xlink="http://www.w3.org/1999/xlink" width="150pt" height="150pt" viewBox="0 0 150 150" version="1.1">
<defs>
<clipPath id="clip1">
  <path d="M 2.082031 75 L 148 75 L 148 77 L 2.082031 77 Z M 2.082031 75 "/>
</clipPath>
<clipPath id="clip2">
  <path d="M 74 3 L 76 3 L 76 148.71875 L 74 148.71875 Z M 74 3 "/>
</clipPath>
<clipPath id="clip3">
  <path d="M 62 2.71875 L 148.082031 2.71875 L 148.082031 87 L 62 87 Z M 62 2.71875 "/>
</clipPath>
<clipPath id="clip4">
  <path d="M 62 2.71875 L 148.082031 2.71875 L 148.082031 82 L 62 82 Z M 62 2.71875 "/>
</clipPath>
<clipPath id="clip5">
  <path d="M 62 64 L 148.082031 64 L 148.082031 148.71875 L 62 148.71875 Z M 62 64 "/>
</clipPath>
<clipPath id="clip6">
  <path d="M 62 70 L 148.082031 70 L 148.082031 148.71875 L 62 148.71875 Z M 62 70 "/>
</clipPath>
<clipPath id="clip7">
  <path d="M 2.082031 64 L 89 64 L 89 148.71875 L 2.082031 148.71875 Z M 2.082031 64 "/>
</clipPath>
<clipPath id="clip8">
  <path d="M 2.082031 70 L 88 70 L 88 148.71875 L 2.082031 148.71875 Z M 2.082031 70 "/>
</clipPath>
<clipPath id="clip9">
  <path d="M 2.082031 2.71875 L 89 2.71875 L 89 87 L 2.082031 87 Z M 2.082031 2.71875 "/>
</clipPath>
<clipPath id="clip10">
  <path d="M 2.082031 2.71875 L 88 2.71875 L 88 82 L 2.082031 82 Z M 2.082031 2.71875 "/>
</clipPath>
<clipPath id="clip11">
  <path d="M 2.082031 2.71875 L 148.082031 2.71875 L 148.082031 62 L 2.082031 62 Z M 2.082031 2.71875 "/>
</clipPath>
<clipPath id="clip12">
  <path d="M 2.082031 2.71875 L 148.082031 2.71875 L 148.082031 76 L 2.082031 76 Z M 2.082031 2.71875 "/>
</clipPath>
<clipPath id="clip13">
  <path d="M 2.082031 90 L 148.082031 90 L 148.082031 148.71875 L 2.082031 148.71875 Z M 2.082031 90 "/>
</clipPath>
<clipPath id="clip14">
  <path d="M 2.082031 75 L 148.082031 75 L 148.082031 148.71875 L 2.082031 148.71875 Z M 2.082031 75 "/>
</clipPath>
<clipPath id="clip15">
  <path d="M 61 2.71875 L 148.082031 2.71875 L 148.082031 90 L 61 90 Z M 61 2.71875 "/>
</clipPath>
<clipPath id="clip16">
  <path d="M 61 61 L 148.082031 61 L 148.082031 148.71875 L 61 148.71875 Z M 61 61 "/>
</clipPath>
<clipPath id="clip17">
  <path d="M 2.082031 61 L 90 61 L 90 148.71875 L 2.082031 148.71875 Z M 2.082031 61 "/>
</clipPath>
<clipPath id="clip18">
  <path d="M 2.082031 2.71875 L 90 2.71875 L 90 90 L 2.082031 90 Z M 2.082031 2.71875 "/>
</clipPath>
<clipPath id="clip19">
  <path d="M 89 2.71875 L 148.082031 2.71875 L 148.082031 148.71875 L 89 148.71875 Z M 89 2.71875 "/>
</clipPath>
<clipPath id="clip20">
  <path d="M 75 2.71875 L 148.082031 2.71875 L 148.082031 148.71875 L 75 148.71875 Z M 75 2.71875 "/>
</clipPath>
<clipPath id="clip21">
  <path d="M 2.082031 2.71875 L 61 2.71875 L 61 148.71875 L 2.082031 148.71875 Z M 2.082031 2.71875 "/>
</clipPath>
<clipPath id="clip22">
  <path d="M 2.082031 2.71875 L 75 2.71875 L 75 148.71875 L 2.082031 148.71875 Z M 2.082031 2.71875 "/>
</clipPath>
</defs>
<g id="surface1">
<path style=" stroke:none;fill-rule:nonzero;fill:rgb(92.939758%,10.978699%,14.118958%);fill-opacity:1;" d="M 77.238281 75.71875 C 77.238281 74.527344 76.273438 73.558594 75.082031 73.558594 C 73.886719 73.558594 72.917969 74.527344 72.917969 75.71875 C 72.917969 76.914062 73.886719 77.878906 75.082031 77.878906 C 76.273438 77.878906 77.238281 76.914062 77.238281 75.71875 "/>
<g clip-path="url(#clip1)" clip-rule="nonzero">
<path style="fill:none;stroke-width:10;stroke-linecap:butt;stroke-linejoin:miter;stroke:rgb(92.939758%,10.978699%,14.118958%);stroke-opacity:1;stroke-miterlimit:10;" d="M 30.820312 742.8125 L 1470.78125 742.8125 " transform="matrix(0.1,0,0,-0.1,0,150)"/>
</g>
<g clip-path="url(#clip2)" clip-rule="nonzero">
<path style="fill:none;stroke-width:10;stroke-linecap:butt;stroke-linejoin:miter;stroke:rgb(92.939758%,10.978699%,14.118958%);stroke-opacity:1;stroke-miterlimit:10;" d="M 750.820312 22.8125 L 750.820312 1462.8125 " transform="matrix(0.1,0,0,-0.1,0,150)"/>
</g>
<path style=" stroke:none;fill-rule:nonzero;fill:rgb(92.939758%,10.978699%,14.118958%);fill-opacity:1;" d="M 122.601562 75.71875 L 115.398438 73.320312 L 117.199219 75.71875 L 115.398438 78.121094 "/>
<path style=" stroke:none;fill-rule:nonzero;fill:rgb(92.939758%,10.978699%,14.118958%);fill-opacity:1;" d="M 27.558594 75.71875 L 34.761719 78.121094 L 32.960938 75.71875 L 34.761719 73.320312 "/>
<path style=" stroke:none;fill-rule:nonzero;fill:rgb(92.939758%,10.978699%,14.118958%);fill-opacity:1;" d="M 75.082031 36.839844 L 77.480469 29.640625 L 75.082031 31.441406 L 72.679688 29.640625 "/>
<path style=" stroke:none;fill-rule:nonzero;fill:rgb(92.939758%,10.978699%,14.118958%);fill-opacity:1;" d="M 75.082031 114.601562 L 72.679688 121.800781 L 75.082031 120 L 77.480469 121.800781 "/>
<g clip-path="url(#clip3)" clip-rule="nonzero">
<path style="fill:none;stroke-width:10;stroke-linecap:butt;stroke-linejoin:miter;stroke:rgb(92.939758%,10.978699%,14.118958%);stroke-opacity:1;stroke-miterlimit:10;" d="M 761.523438 2680.273438 L 761.796875 2630.742188 L 762.070312 2583.710938 L 762.34375 2538.945312 L 762.890625 2455.664062 L 763.476562 2379.765625 L 764.023438 2310.273438 L 764.609375 2246.484375 L 765.15625 2187.65625 L 765.703125 2133.28125 L 766.289062 2082.8125 L 766.835938 2035.898438 L 767.382812 1992.1875 L 767.96875 1951.289062 L 768.515625 1913.007812 L 769.0625 1877.070312 L 770.195312 1811.445312 L 771.328125 1753.007812 L 772.460938 1700.625 L 773.554688 1653.398438 L 774.6875 1610.585938 L 775.820312 1571.640625 L 776.953125 1536.054688 L 778.046875 1503.398438 L 779.179688 1473.28125 L 780.3125 1445.507812 L 781.445312 1419.765625 L 783.671875 1373.515625 L 785.9375 1333.203125 L 788.164062 1297.695312 L 790.429688 1266.25 L 792.65625 1238.164062 L 794.921875 1212.96875 L 797.148438 1190.195312 L 801.640625 1150.664062 L 806.132812 1117.539062 L 810.625 1089.414062 L 815.117188 1065.234375 L 819.609375 1044.179688 L 824.101562 1025.703125 L 833.085938 994.804688 L 842.070312 970.039062 L 851.054688 949.648438 L 860.039062 932.65625 L 869.023438 918.242188 L 877.96875 905.820312 L 895.9375 885.664062 L 913.90625 869.921875 L 931.875 857.304688 L 967.8125 838.359375 L 1003.710938 824.765625 L 1039.648438 814.570312 L 1111.523438 800.273438 L 1183.398438 790.742188 L 1255.234375 783.90625 L 1327.109375 778.789062 L 1398.945312 774.804688 L 1470.78125 771.601562 " transform="matrix(0.1,0,0,-0.1,0,150)"/>
</g>
<path style=" stroke:none;fill-rule:nonzero;fill:rgb(92.939758%,10.978699%,14.118958%);fill-opacity:1;" d="M 122.574219 71.398438 L 115.683594 68.21875 L 117.207031 70.800781 L 115.152344 72.988281 "/>
<g clip-path="url(#clip4)" clip-rule="nonzero">
<path style="fill:none;stroke-width:10;stroke-linecap:butt;stroke-linejoin:miter;stroke:rgb(92.939758%,10.978699%,14.118958%);stroke-opacity:1;stroke-miterlimit:10;" d="M 767.96875 4368.28125 L 768.515625 4253.4375 L 769.0625 4145.625 L 769.648438 4044.257812 L 770.195312 3948.75 L 770.78125 3858.59375 L 771.328125 3773.398438 L 771.875 3692.695312 L 772.460938 3616.210938 L 773.007812 3543.59375 L 773.554688 3474.53125 L 774.140625 3408.828125 L 774.6875 3346.171875 L 775.273438 3286.445312 L 775.820312 3229.375 L 776.367188 3174.765625 L 776.953125 3122.539062 L 777.5 3072.539062 L 778.046875 3024.53125 L 779.179688 2934.296875 L 780.3125 2850.9375 L 781.445312 2773.632812 L 782.539062 2701.835938 L 783.671875 2634.960938 L 784.804688 2572.460938 L 785.9375 2513.984375 L 787.03125 2459.101562 L 788.164062 2407.539062 L 789.296875 2358.984375 L 790.429688 2313.164062 L 791.523438 2269.882812 L 792.65625 2228.945312 L 794.921875 2153.28125 L 797.148438 2084.921875 L 799.414062 2022.929688 L 801.640625 1966.367188 L 803.90625 1914.648438 L 806.132812 1867.070312 L 808.398438 1823.203125 L 810.625 1782.65625 L 812.851562 1745.039062 L 815.117188 1710.039062 L 817.34375 1677.421875 L 819.609375 1646.914062 L 824.101562 1591.523438 L 828.59375 1542.539062 L 833.085938 1498.867188 L 837.578125 1459.726562 L 842.070312 1424.453125 L 846.5625 1392.460938 L 851.054688 1363.398438 L 855.546875 1336.757812 L 860.039062 1312.34375 L 869.023438 1269.0625 L 877.96875 1231.914062 L 886.953125 1199.648438 L 895.9375 1171.367188 L 904.921875 1146.40625 L 913.90625 1124.179688 L 931.875 1086.328125 L 949.84375 1055.3125 L 967.8125 1029.453125 L 985.78125 1007.539062 L 1003.710938 988.75 L 1021.71875 972.421875 L 1039.648438 958.164062 L 1075.585938 934.335938 L 1111.523438 915.273438 L 1147.460938 899.648438 L 1183.398438 886.601562 L 1255.234375 866.132812 L 1327.109375 850.742188 L 1398.945312 838.789062 L 1470.78125 829.179688 " transform="matrix(0.1,0,0,-0.1,0,150)"/>
</g>
<path style=" stroke:none;fill-rule:nonzero;fill:rgb(92.939758%,10.978699%,14.118958%);fill-opacity:1;" d="M 122.378906 62.6875 L 116.308594 58.132812 L 117.253906 60.976562 L 114.789062 62.6875 "/>
<g clip-path="url(#clip5)" clip-rule="nonzero">
<path style="fill:none;stroke-width:10;stroke-linecap:butt;stroke-linejoin:miter;stroke:rgb(92.939758%,10.978699%,14.118958%);stroke-opacity:1;stroke-miterlimit:10;" d="M 761.523438 -1194.648438 L 761.796875 -1145.15625 L 762.070312 -1098.085938 L 762.34375 -1053.359375 L 762.890625 -970.039062 L 763.476562 -894.140625 L 764.023438 -824.6875 L 764.609375 -760.859375 L 765.15625 -702.070312 L 765.703125 -647.65625 L 766.289062 -597.226562 L 766.835938 -550.3125 L 767.382812 -506.5625 L 767.96875 -465.703125 L 768.515625 -427.421875 L 769.0625 -391.484375 L 770.195312 -325.859375 L 771.328125 -267.382812 L 772.460938 -215 L 773.554688 -167.773438 L 774.6875 -125 L 775.820312 -86.054688 L 776.953125 -50.46875 L 778.046875 -17.773438 L 779.179688 12.304688 L 780.3125 40.078125 L 781.445312 65.859375 L 783.671875 112.070312 L 785.9375 152.421875 L 788.164062 187.890625 L 790.429688 219.335938 L 792.65625 247.421875 L 794.921875 272.65625 L 797.148438 295.429688 L 801.640625 334.921875 L 806.132812 368.046875 L 810.625 396.171875 L 815.117188 420.390625 L 819.609375 441.445312 L 824.101562 459.882812 L 833.085938 490.78125 L 842.070312 515.585938 L 851.054688 535.9375 L 860.039062 552.96875 L 869.023438 567.382812 L 877.96875 579.765625 L 895.9375 599.921875 L 913.90625 615.664062 L 931.875 628.28125 L 967.8125 647.226562 L 1003.710938 660.820312 L 1039.648438 671.015625 L 1111.523438 685.3125 L 1183.398438 694.84375 L 1255.234375 701.679688 L 1327.109375 706.796875 L 1398.945312 710.820312 L 1470.78125 713.984375 " transform="matrix(0.1,0,0,-0.1,0,150)"/>
</g>
<path style=" stroke:none;fill-rule:nonzero;fill:rgb(92.939758%,10.978699%,14.118958%);fill-opacity:1;" d="M 122.574219 80.042969 L 115.152344 78.453125 L 117.207031 80.640625 L 115.683594 83.222656 "/>
<g clip-path="url(#clip6)" clip-rule="nonzero">
<path style="fill:none;stroke-width:10;stroke-linecap:butt;stroke-linejoin:miter;stroke:rgb(92.939758%,10.978699%,14.118958%);stroke-opacity:1;stroke-miterlimit:10;" d="M 767.96875 -2882.695312 L 768.515625 -2767.8125 L 769.0625 -2660.039062 L 769.648438 -2558.632812 L 770.195312 -2463.125 L 770.78125 -2373.007812 L 771.328125 -2287.773438 L 771.875 -2207.109375 L 772.460938 -2130.625 L 773.007812 -2058.007812 L 773.554688 -1988.945312 L 774.140625 -1923.203125 L 774.6875 -1860.585938 L 775.273438 -1800.820312 L 775.820312 -1743.75 L 776.367188 -1689.179688 L 776.953125 -1636.953125 L 777.5 -1586.914062 L 778.046875 -1538.945312 L 779.179688 -1448.710938 L 780.3125 -1365.3125 L 781.445312 -1288.046875 L 782.539062 -1216.25 L 783.671875 -1149.335938 L 784.804688 -1086.875 L 785.9375 -1028.359375 L 787.03125 -973.515625 L 788.164062 -921.953125 L 789.296875 -873.398438 L 790.429688 -827.578125 L 791.523438 -784.296875 L 792.65625 -743.320312 L 794.921875 -667.65625 L 797.148438 -599.335938 L 799.414062 -537.304688 L 801.640625 -480.78125 L 803.90625 -429.023438 L 806.132812 -381.484375 L 808.398438 -337.617188 L 810.625 -297.070312 L 812.851562 -259.453125 L 815.117188 -224.453125 L 817.34375 -191.835938 L 819.609375 -161.328125 L 824.101562 -105.9375 L 828.59375 -56.914062 L 833.085938 -13.28125 L 837.578125 25.859375 L 842.070312 61.132812 L 846.5625 93.125 L 851.054688 122.226562 L 855.546875 148.828125 L 860.039062 173.242188 L 869.023438 216.523438 L 877.96875 253.710938 L 886.953125 285.976562 L 895.9375 314.21875 L 904.921875 339.21875 L 913.90625 361.445312 L 931.875 399.257812 L 949.84375 430.273438 L 967.8125 456.132812 L 985.78125 478.046875 L 1003.710938 496.835938 L 1021.71875 513.164062 L 1039.648438 527.460938 L 1075.585938 551.289062 L 1111.523438 570.351562 L 1147.460938 585.976562 L 1183.398438 598.984375 L 1255.234375 619.492188 L 1327.109375 634.84375 L 1398.945312 646.835938 L 1470.78125 656.40625 " transform="matrix(0.1,0,0,-0.1,0,150)"/>
</g>
<path style=" stroke:none;fill-rule:nonzero;fill:rgb(92.939758%,10.978699%,14.118958%);fill-opacity:1;" d="M 122.378906 88.753906 L 114.789062 88.753906 L 117.253906 90.460938 L 116.308594 93.308594 "/>
<g clip-path="url(#clip7)" clip-rule="nonzero">
<path style="fill:none;stroke-width:10;stroke-linecap:butt;stroke-linejoin:miter;stroke:rgb(92.939758%,10.978699%,14.118958%);stroke-opacity:1;stroke-miterlimit:10;" d="M 30.820312 713.984375 L 102.65625 710.820312 L 174.53125 706.796875 L 246.367188 701.679688 L 318.242188 694.84375 L 390.078125 685.3125 L 461.953125 671.015625 L 497.851562 660.820312 L 533.789062 647.226562 L 569.726562 628.28125 L 587.695312 615.664062 L 605.664062 599.921875 L 623.59375 579.765625 L 632.578125 567.382812 L 641.5625 552.96875 L 650.546875 535.9375 L 659.53125 515.585938 L 668.515625 490.78125 L 677.5 459.882812 L 681.992188 441.445312 L 686.484375 420.390625 L 690.976562 396.171875 L 695.46875 368.046875 L 699.960938 334.921875 L 704.453125 295.429688 L 706.679688 272.65625 L 708.945312 247.421875 L 711.171875 219.335938 L 713.4375 187.890625 L 715.664062 152.421875 L 717.929688 112.070312 L 720.15625 65.859375 L 721.289062 40.078125 L 722.421875 12.304688 L 723.515625 -17.773438 L 724.648438 -50.46875 L 725.78125 -86.054688 L 726.914062 -125 L 728.007812 -167.773438 L 729.140625 -215 L 730.273438 -267.382812 L 731.40625 -325.859375 L 732.539062 -391.484375 L 733.085938 -427.421875 L 733.632812 -465.703125 L 734.21875 -506.5625 L 734.765625 -550.3125 L 735.3125 -597.226562 L 735.898438 -647.65625 L 736.445312 -702.070312 L 736.992188 -760.859375 L 737.578125 -824.6875 L 738.125 -894.140625 L 738.710938 -970.039062 L 739.257812 -1053.359375 L 739.53125 -1098.085938 L 739.804688 -1145.15625 L 740.117188 -1194.648438 " transform="matrix(0.1,0,0,-0.1,0,150)"/>
</g>
<path style=" stroke:none;fill-rule:nonzero;fill:rgb(92.939758%,10.978699%,14.118958%);fill-opacity:1;" d="M 27.585938 80.042969 L 34.476562 83.222656 L 32.953125 80.640625 L 35.007812 78.453125 "/>
<g clip-path="url(#clip8)" clip-rule="nonzero">
<path style="fill:none;stroke-width:10;stroke-linecap:butt;stroke-linejoin:miter;stroke:rgb(92.939758%,10.978699%,14.118958%);stroke-opacity:1;stroke-miterlimit:10;" d="M 30.820312 656.40625 L 102.65625 646.835938 L 174.53125 634.84375 L 246.367188 619.492188 L 318.242188 598.984375 L 354.140625 585.976562 L 390.078125 570.351562 L 426.015625 551.289062 L 461.953125 527.460938 L 479.882812 513.164062 L 497.851562 496.835938 L 515.820312 478.046875 L 533.789062 456.132812 L 551.757812 430.273438 L 569.726562 399.257812 L 587.695312 361.445312 L 596.679688 339.21875 L 605.664062 314.21875 L 614.648438 285.976562 L 623.59375 253.710938 L 632.578125 216.523438 L 641.5625 173.242188 L 646.054688 148.828125 L 650.546875 122.226562 L 655.039062 93.125 L 659.53125 61.132812 L 664.023438 25.859375 L 668.515625 -13.28125 L 673.007812 -56.914062 L 677.5 -105.9375 L 681.992188 -161.328125 L 684.257812 -191.835938 L 686.484375 -224.453125 L 688.710938 -259.453125 L 690.976562 -297.070312 L 693.242188 -337.617188 L 695.46875 -381.484375 L 697.734375 -429.023438 L 699.960938 -480.78125 L 702.1875 -537.304688 L 704.453125 -599.335938 L 706.679688 -667.65625 L 708.945312 -743.320312 L 710.078125 -784.296875 L 711.171875 -827.578125 L 712.304688 -873.398438 L 713.4375 -921.953125 L 714.570312 -973.515625 L 715.664062 -1028.359375 L 716.796875 -1086.875 L 717.929688 -1149.335938 L 719.0625 -1216.25 L 720.15625 -1288.046875 L 721.289062 -1365.3125 L 722.421875 -1448.710938 L 723.515625 -1538.945312 L 724.101562 -1586.914062 L 724.648438 -1636.953125 L 725.234375 -1689.179688 L 725.78125 -1743.75 L 726.328125 -1800.820312 L 726.914062 -1860.585938 L 727.460938 -1923.203125 L 728.007812 -1988.945312 L 728.59375 -2058.007812 L 729.140625 -2130.625 L 729.726562 -2207.109375 L 730.273438 -2287.773438 L 730.820312 -2373.007812 L 731.40625 -2463.125 L 731.953125 -2558.632812 L 732.539062 -2660.039062 L 733.085938 -2767.8125 L 733.632812 -2882.695312 " transform="matrix(0.1,0,0,-0.1,0,150)"/>
</g>
<path style=" stroke:none;fill-rule:nonzero;fill:rgb(92.939758%,10.978699%,14.118958%);fill-opacity:1;" d="M 27.78125 88.753906 L 33.851562 93.308594 L 32.90625 90.460938 L 35.371094 88.753906 "/>
<g clip-path="url(#clip9)" clip-rule="nonzero">
<path style="fill:none;stroke-width:10;stroke-linecap:butt;stroke-linejoin:miter;stroke:rgb(92.939758%,10.978699%,14.118958%);stroke-opacity:1;stroke-miterlimit:10;" d="M 30.820312 771.601562 L 102.65625 774.804688 L 174.53125 778.789062 L 246.367188 783.90625 L 318.242188 790.742188 L 390.078125 800.273438 L 461.953125 814.570312 L 497.851562 824.765625 L 533.789062 838.359375 L 569.726562 857.304688 L 587.695312 869.921875 L 605.664062 885.664062 L 623.59375 905.820312 L 632.578125 918.242188 L 641.5625 932.65625 L 650.546875 949.648438 L 659.53125 970.039062 L 668.515625 994.804688 L 677.5 1025.703125 L 681.992188 1044.179688 L 686.484375 1065.234375 L 690.976562 1089.414062 L 695.46875 1117.539062 L 699.960938 1150.664062 L 704.453125 1190.195312 L 706.679688 1212.96875 L 708.945312 1238.164062 L 711.171875 1266.25 L 713.4375 1297.695312 L 715.664062 1333.203125 L 717.929688 1373.515625 L 720.15625 1419.765625 L 721.289062 1445.507812 L 722.421875 1473.28125 L 723.515625 1503.398438 L 724.648438 1536.054688 L 725.78125 1571.640625 L 726.914062 1610.585938 L 728.007812 1653.398438 L 729.140625 1700.625 L 730.273438 1753.007812 L 731.40625 1811.445312 L 732.539062 1877.070312 L 733.085938 1913.007812 L 733.632812 1951.289062 L 734.21875 1992.1875 L 734.765625 2035.898438 L 735.3125 2082.8125 L 735.898438 2133.28125 L 736.445312 2187.65625 L 736.992188 2246.484375 L 737.578125 2310.273438 L 738.125 2379.765625 L 738.710938 2455.664062 L 739.257812 2538.945312 L 739.53125 2583.710938 L 739.804688 2630.742188 L 740.117188 2680.273438 " transform="matrix(0.1,0,0,-0.1,0,150)"/>
</g>
<path style=" stroke:none;fill-rule:nonzero;fill:rgb(92.939758%,10.978699%,14.118958%);fill-opacity:1;" d="M 27.585938 71.398438 L 35.007812 72.988281 L 32.953125 70.800781 L 34.476562 68.21875 "/>
<g clip-path="url(#clip10)" clip-rule="nonzero">
<path style="fill:none;stroke-width:10;stroke-linecap:butt;stroke-linejoin:miter;stroke:rgb(92.939758%,10.978699%,14.118958%);stroke-opacity:1;stroke-miterlimit:10;" d="M 30.820312 829.179688 L 102.65625 838.789062 L 174.53125 850.742188 L 246.367188 866.132812 L 318.242188 886.601562 L 354.140625 899.648438 L 390.078125 915.273438 L 426.015625 934.335938 L 461.953125 958.164062 L 479.882812 972.421875 L 497.851562 988.75 L 515.820312 1007.539062 L 533.789062 1029.453125 L 551.757812 1055.3125 L 569.726562 1086.328125 L 587.695312 1124.179688 L 596.679688 1146.40625 L 605.664062 1171.367188 L 614.648438 1199.648438 L 623.59375 1231.914062 L 632.578125 1269.0625 L 641.5625 1312.34375 L 646.054688 1336.757812 L 650.546875 1363.398438 L 655.039062 1392.460938 L 659.53125 1424.453125 L 664.023438 1459.726562 L 668.515625 1498.867188 L 673.007812 1542.539062 L 677.5 1591.523438 L 681.992188 1646.914062 L 684.257812 1677.421875 L 686.484375 1710.039062 L 688.710938 1745.039062 L 690.976562 1782.65625 L 693.242188 1823.203125 L 695.46875 1867.070312 L 697.734375 1914.648438 L 699.960938 1966.367188 L 702.1875 2022.929688 L 704.453125 2084.921875 L 706.679688 2153.28125 L 708.945312 2228.945312 L 710.078125 2269.882812 L 711.171875 2313.164062 L 712.304688 2358.984375 L 713.4375 2407.539062 L 714.570312 2459.101562 L 715.664062 2513.984375 L 716.796875 2572.460938 L 717.929688 2634.960938 L 719.0625 2701.835938 L 720.15625 2773.632812 L 721.289062 2850.9375 L 722.421875 2934.296875 L 723.515625 3024.53125 L 724.101562 3072.539062 L 724.648438 3122.539062 L 725.234375 3174.765625 L 725.78125 3229.375 L 726.328125 3286.445312 L 726.914062 3346.171875 L 727.460938 3408.828125 L 728.007812 3474.53125 L 728.59375 3543.59375 L 729.140625 3616.210938 L 729.726562 3692.695312 L 730.273438 3773.398438 L 730.820312 3858.59375 L 731.40625 3948.75 L 731.953125 4044.257812 L 732.539062 4145.625 L 733.085938 4253.4375 L 733.632812 4368.28125 " transform="matrix(0.1,0,0,-0.1,0,150)"/>
</g>
<path style=" stroke:none;fill-rule:nonzero;fill:rgb(92.939758%,10.978699%,14.118958%);fill-opacity:1;" d="M 27.78125 62.6875 L 35.371094 62.6875 L 32.90625 60.976562 L 33.851562 58.132812 "/>
<g clip-path="url(#clip11)" clip-rule="nonzero">
<path style="fill:none;stroke-width:10;stroke-linecap:butt;stroke-linejoin:miter;stroke:rgb(18.03894%,19.219971%,57.249451%);stroke-opacity:1;stroke-miterlimit:10;" d="M 30.820312 1518.28125 L 174.804688 1386.796875 L 246.796875 1323.28125 L 318.789062 1261.992188 L 390.820312 1203.828125 L 462.8125 1150.078125 L 534.804688 1102.8125 L 570.820312 1082.421875 L 606.796875 1064.804688 L 642.8125 1050.390625 L 678.789062 1039.648438 L 714.804688 1033.046875 L 750.820312 1030.78125 L 786.796875 1033.046875 L 822.8125 1039.648438 L 858.789062 1050.390625 L 894.804688 1064.804688 L 930.820312 1082.421875 L 966.796875 1102.8125 L 1038.789062 1150.078125 L 1110.78125 1203.828125 L 1182.8125 1261.992188 L 1254.804688 1323.28125 L 1326.796875 1386.796875 L 1470.78125 1518.28125 " transform="matrix(0.1,0,0,-0.1,0,150)"/>
</g>
<g clip-path="url(#clip12)" clip-rule="nonzero">
<path style="fill:none;stroke-width:10;stroke-linecap:butt;stroke-linejoin:miter;stroke:rgb(18.03894%,19.219971%,57.249451%);stroke-opacity:1;stroke-miterlimit:10;" d="M 30.820312 1477.070312 L 174.804688 1336.523438 L 318.789062 1198.164062 L 462.8125 1064.804688 L 534.804688 1002.382812 L 570.820312 973.320312 L 606.796875 946.445312 L 642.8125 922.8125 L 678.789062 903.789062 L 714.804688 891.210938 L 732.8125 887.929688 L 750.820312 886.796875 L 768.789062 887.929688 L 786.796875 891.210938 L 822.8125 903.789062 L 858.789062 922.8125 L 894.804688 946.445312 L 930.820312 973.320312 L 966.796875 1002.382812 L 1038.789062 1064.804688 L 1182.8125 1198.164062 L 1326.796875 1336.523438 L 1470.78125 1477.070312 " transform="matrix(0.1,0,0,-0.1,0,150)"/>
</g>
<g clip-path="url(#clip13)" clip-rule="nonzero">
<path style="fill:none;stroke-width:10;stroke-linecap:butt;stroke-linejoin:miter;stroke:rgb(18.03894%,19.219971%,57.249451%);stroke-opacity:1;stroke-miterlimit:10;" d="M 30.820312 -32.65625 L 174.804688 98.828125 L 246.796875 162.304688 L 318.789062 223.59375 L 390.820312 281.757812 L 462.8125 335.507812 L 534.804688 382.8125 L 570.820312 403.164062 L 606.796875 420.820312 L 642.8125 435.234375 L 678.789062 445.9375 L 714.804688 452.578125 L 750.820312 454.804688 L 786.796875 452.578125 L 822.8125 445.9375 L 858.789062 435.234375 L 894.804688 420.820312 L 930.820312 403.164062 L 966.796875 382.8125 L 1038.789062 335.507812 L 1110.78125 281.757812 L 1182.8125 223.59375 L 1254.804688 162.304688 L 1326.796875 98.828125 L 1470.78125 -32.65625 " transform="matrix(0.1,0,0,-0.1,0,150)"/>
</g>
<g clip-path="url(#clip14)" clip-rule="nonzero">
<path style="fill:none;stroke-width:10;stroke-linecap:butt;stroke-linejoin:miter;stroke:rgb(18.03894%,19.219971%,57.249451%);stroke-opacity:1;stroke-miterlimit:10;" d="M 30.820312 8.554688 L 174.804688 149.0625 L 318.789062 287.421875 L 462.8125 420.820312 L 534.804688 483.203125 L 570.820312 512.304688 L 606.796875 539.140625 L 642.8125 562.8125 L 678.789062 581.796875 L 714.804688 594.375 L 732.8125 597.695312 L 750.820312 598.789062 L 768.789062 597.695312 L 786.796875 594.375 L 822.8125 581.796875 L 858.789062 562.8125 L 894.804688 539.140625 L 930.820312 512.304688 L 966.796875 483.203125 L 1038.789062 420.820312 L 1182.8125 287.421875 L 1326.796875 149.0625 L 1470.78125 8.554688 " transform="matrix(0.1,0,0,-0.1,0,150)"/>
</g>
<g clip-path="url(#clip15)" clip-rule="nonzero">
<path style="fill:none;stroke-width:10;stroke-linecap:butt;stroke-linejoin:miter;stroke:rgb(18.03894%,19.219971%,57.249451%);stroke-opacity:1;stroke-miterlimit:10;" d="M 752.226562 744.21875 L 1470.78125 1462.8125 " transform="matrix(0.1,0,0,-0.1,0,150)"/>
</g>
<g clip-path="url(#clip16)" clip-rule="nonzero">
<path style="fill:none;stroke-width:10;stroke-linecap:butt;stroke-linejoin:miter;stroke:rgb(18.03894%,19.219971%,57.249451%);stroke-opacity:1;stroke-miterlimit:10;" d="M 752.226562 741.367188 L 1470.78125 22.8125 " transform="matrix(0.1,0,0,-0.1,0,150)"/>
</g>
<g clip-path="url(#clip17)" clip-rule="nonzero">
<path style="fill:none;stroke-width:10;stroke-linecap:butt;stroke-linejoin:miter;stroke:rgb(18.03894%,19.219971%,57.249451%);stroke-opacity:1;stroke-miterlimit:10;" d="M 749.375 741.367188 L 30.820312 22.8125 " transform="matrix(0.1,0,0,-0.1,0,150)"/>
</g>
<g clip-path="url(#clip18)" clip-rule="nonzero">
<path style="fill:none;stroke-width:10;stroke-linecap:butt;stroke-linejoin:miter;stroke:rgb(18.03894%,19.219971%,57.249451%);stroke-opacity:1;stroke-miterlimit:10;" d="M 752.226562 744.21875 L 30.820312 1462.8125 " transform="matrix(0.1,0,0,-0.1,0,150)"/>
</g>
<g clip-path="url(#clip19)" clip-rule="nonzero">
<path style="fill:none;stroke-width:10;stroke-linecap:butt;stroke-linejoin:miter;stroke:rgb(18.03894%,19.219971%,57.249451%);stroke-opacity:1;stroke-miterlimit:10;" d="M 1526.25 22.8125 L 1394.804688 166.796875 L 1331.289062 238.789062 L 1270 310.820312 L 1211.835938 382.8125 L 1158.085938 454.804688 L 1110.78125 526.796875 L 1090.429688 562.8125 L 1072.773438 598.789062 L 1058.398438 634.804688 L 1047.65625 670.820312 L 1041.054688 706.796875 L 1038.789062 742.8125 L 1041.054688 778.789062 L 1047.65625 814.804688 L 1058.398438 850.820312 L 1072.773438 886.796875 L 1090.429688 922.8125 L 1110.78125 958.789062 L 1158.085938 1030.78125 L 1211.835938 1102.8125 L 1270 1174.804688 L 1331.289062 1246.796875 L 1394.804688 1318.789062 L 1526.25 1462.8125 " transform="matrix(0.1,0,0,-0.1,0,150)"/>
</g>
<g clip-path="url(#clip20)" clip-rule="nonzero">
<path style="fill:none;stroke-width:10;stroke-linecap:butt;stroke-linejoin:miter;stroke:rgb(18.03894%,19.219971%,57.249451%);stroke-opacity:1;stroke-miterlimit:10;" d="M 1485.078125 22.8125 L 1344.53125 166.796875 L 1206.171875 310.820312 L 1072.773438 454.804688 L 1010.390625 526.796875 L 981.328125 562.8125 L 954.453125 598.789062 L 930.820312 634.804688 L 911.796875 670.820312 L 899.21875 706.796875 L 895.9375 724.804688 L 894.804688 742.8125 L 895.9375 760.820312 L 899.21875 778.789062 L 911.796875 814.804688 L 930.820312 850.820312 L 954.453125 886.796875 L 981.328125 922.8125 L 1010.390625 958.789062 L 1072.773438 1030.78125 L 1206.171875 1174.804688 L 1344.53125 1318.789062 L 1485.078125 1462.8125 " transform="matrix(0.1,0,0,-0.1,0,150)"/>
</g>
<g clip-path="url(#clip21)" clip-rule="nonzero">
<path style="fill:none;stroke-width:10;stroke-linecap:butt;stroke-linejoin:miter;stroke:rgb(18.03894%,19.219971%,57.249451%);stroke-opacity:1;stroke-miterlimit:10;" d="M -24.648438 22.8125 L 106.796875 166.796875 L 170.3125 238.789062 L 231.601562 310.820312 L 289.765625 382.8125 L 343.515625 454.804688 L 390.820312 526.796875 L 411.171875 562.8125 L 428.789062 598.789062 L 443.203125 634.804688 L 453.945312 670.820312 L 460.546875 706.796875 L 462.8125 742.8125 L 460.546875 778.789062 L 453.945312 814.804688 L 443.203125 850.820312 L 428.789062 886.796875 L 411.171875 922.8125 L 390.820312 958.789062 L 343.515625 1030.78125 L 289.765625 1102.8125 L 231.601562 1174.804688 L 170.3125 1246.796875 L 106.796875 1318.789062 L -24.648438 1462.8125 " transform="matrix(0.1,0,0,-0.1,0,150)"/>
</g>
<g clip-path="url(#clip22)" clip-rule="nonzero">
<path style="fill:none;stroke-width:10;stroke-linecap:butt;stroke-linejoin:miter;stroke:rgb(18.03894%,19.219971%,57.249451%);stroke-opacity:1;stroke-miterlimit:10;" d="M 16.523438 22.8125 L 157.070312 166.796875 L 295.429688 310.820312 L 428.789062 454.804688 L 491.210938 526.796875 L 520.273438 562.8125 L 547.148438 598.789062 L 570.820312 634.804688 L 589.804688 670.820312 L 602.382812 706.796875 L 605.664062 724.804688 L 606.796875 742.8125 L 605.664062 760.820312 L 602.382812 778.789062 L 589.804688 814.804688 L 570.820312 850.820312 L 547.148438 886.796875 L 520.273438 922.8125 L 491.210938 958.789062 L 428.789062 1030.78125 L 295.429688 1174.804688 L 157.070312 1318.789062 L 16.523438 1462.8125 " transform="matrix(0.1,0,0,-0.1,0,150)"/>
</g>
</g>
</svg>
