<?xml version="1.0" encoding="UTF-8"?>
<svg xmlns="http://www.w3.org/2000/svg" xmlns:xlink="http://www.w3.org/1999/xlink" width="150pt" height="150pt" viewBox="0 0 150 150" version="1.1">
<defs>
<clipPath id="clip1">
  <path d="M 2.082031 75 L 148 75 L 148 77 L 2.082031 77 Z M 2.082031 75 "/>
</clipPath>
<clipPath id="clip2">
  <path d="M 74 3 L 76 3 L 76 148.71875 L 74 148.71875 Z M 74 3 "/>
</clipPath>
<clipPath id="clip3">
  <path d="M 62 2.71875 L 148.082031 2.71875 L 148.082031 85 L 62 85 Z M 62 2.71875 "/>
</clipPath>
<clipPath id="clip4">
  <path d="M 62 67 L 148.082031 67 L 148.082031 148.71875 L 62 148.71875 Z M 62 67 "/>
</clipPath>
<clipPath id="clip5">
  <path d="M 2.082031 67 L 88 67 L 88 148.71875 L 2.082031 148.71875 Z M 2.082031 67 "/>
</clipPath>
<clipPath id="clip6">
  <path d="M 2.082031 2.71875 L 88 2.71875 L 88 85 L 2.082031 85 Z M 2.082031 2.71875 "/>
</clipPath>
<clipPath id="clip7">
  <path d="M 2.082031 2.71875 L 148.082031 2.71875 L 148.082031 62 L 2.082031 62 Z M 2.082031 2.71875 "/>
</clipPath>
<clipPath id="clip8">
  <path d="M 2.082031 90 L 148.082031 90 L 148.082031 148.71875 L 2.082031 148.71875 Z M 2.082031 90 "/>
</clipPath>
<clipPath id="clip9">
  <path d="M 61 2.71875 L 148.082031 2.71875 L 148.082031 90 L 61 90 Z M 61 2.71875 "/>
</clipPath>
<clipPath id="clip10">
  <path d="M 61 61 L 148.082031 61 L 148.082031 148.71875 L 61 148.71875 Z M 61 61 "/>
</clipPath>
<clipPath id="clip11">
  <path d="M 2.082031 61 L 90 61 L 90 148.71875 L 2.082031 148.71875 Z M 2.082031 61 "/>
</clipPath>
<clipPath id="clip12">
  <path d="M 2.082031 2.71875 L 90 2.71875 L 90 90 L 2.082031 90 Z M 2.082031 2.71875 "/>
</clipPath>
<clipPath id="clip13">
  <path d="M 89 2.71875 L 148.082031 2.71875 L 148.082031 148.71875 L 89 148.71875 Z M 89 2.71875 "/>
</clipPath>
<clipPath id="clip14">
  <path d="M 2.082031 2.71875 L 61 2.71875 L 61 148.71875 L 2.082031 148.71875 Z M 2.082031 2.71875 "/>
</clipPath>
</defs>
<g id="surface1">
<path style=" stroke:none;fill-rule:nonzero;fill:rgb(92.939758%,10.978699%,14.118958%);fill-opacity:1;" d="M 77.238281 75.71875 C 77.238281 74.527344 76.273438 73.558594 75.082031 73.558594 C 73.886719 73.558594 72.917969 74.527344 72.917969 75.71875 C 72.917969 76.914062 73.886719 77.878906 75.082031 77.878906 C 76.273438 77.878906 77.238281 76.914062 77.238281 75.71875 "/>
<g clip-path="url(#clip1)" clip-rule="nonzero">
<path style="fill:none;stroke-width:10;stroke-linecap:butt;stroke-linejoin:miter;stroke:rgb(92.939758%,10.978699%,14.118958%);stroke-opacity:1;stroke-miterlimit:10;" d="M 30.820312 742.8125 L 1470.78125 742.8125 " transform="matrix(0.1,0,0,-0.1,0,150)"/>
</g>
<g clip-path="url(#clip2)" clip-rule="nonzero">
<path style="fill:none;stroke-width:10;stroke-linecap:butt;stroke-linejoin:miter;stroke:rgb(92.939758%,10.978699%,14.118958%);stroke-opacity:1;stroke-miterlimit:10;" d="M 750.820312 22.8125 L 750.820312 1462.8125 " transform="matrix(0.1,0,0,-0.1,0,150)"/>
</g>
<path style=" stroke:none;fill-rule:nonzero;fill:rgb(92.939758%,10.978699%,14.118958%);fill-opacity:1;" d="M 122.601562 75.71875 L 115.398438 73.320312 L 117.199219 75.71875 L 115.398438 78.121094 "/>
<path style=" stroke:none;fill-rule:nonzero;fill:rgb(92.939758%,10.978699%,14.118958%);fill-opacity:1;" d="M 27.558594 75.71875 L 34.761719 78.121094 L 32.960938 75.71875 L 34.761719 73.320312 "/>
<path style=" stroke:none;fill-rule:nonzero;fill:rgb(92.939758%,10.978699%,14.118958%);fill-opacity:1;" d="M 75.082031 36.839844 L 77.480469 29.640625 L 75.082031 31.441406 L 72.679688 29.640625 "/>
<path style=" stroke:none;fill-rule:nonzero;fill:rgb(92.939758%,10.978699%,14.118958%);fill-opacity:1;" d="M 75.082031 114.601562 L 72.679688 121.800781 L 75.082031 120 L 77.480469 121.800781 "/>
<g clip-path="url(#clip3)" clip-rule="nonzero">
<path style="fill:none;stroke-width:10;stroke-linecap:butt;stroke-linejoin:miter;stroke:rgb(92.939758%,10.978699%,14.118958%);stroke-opacity:1;stroke-miterlimit:10;" d="M 765.703125 3523.710938 L 766.289062 3422.851562 L 766.835938 3329.023438 L 767.382812 3241.5625 L 767.96875 3159.804688 L 768.515625 3083.203125 L 769.0625 3011.367188 L 769.648438 2943.789062 L 770.195312 2880.078125 L 770.78125 2820 L 771.328125 2763.203125 L 771.875 2709.414062 L 772.460938 2658.398438 L 773.007812 2610 L 773.554688 2563.945312 L 774.140625 2520.15625 L 774.6875 2478.398438 L 775.820312 2400.507812 L 776.953125 2329.296875 L 778.046875 2263.984375 L 779.179688 2203.789062 L 780.3125 2148.203125 L 781.445312 2096.71875 L 782.539062 2048.828125 L 783.671875 2004.21875 L 784.804688 1962.578125 L 785.9375 1923.59375 L 787.03125 1886.992188 L 788.164062 1852.617188 L 790.429688 1789.726562 L 792.65625 1733.554688 L 794.921875 1683.125 L 797.148438 1637.578125 L 799.414062 1596.210938 L 801.640625 1558.515625 L 803.90625 1524.023438 L 806.132812 1492.304688 L 808.398438 1463.085938 L 810.625 1436.054688 L 815.117188 1387.65625 L 819.609375 1345.546875 L 824.101562 1308.632812 L 828.59375 1275.9375 L 833.085938 1246.835938 L 837.578125 1220.742188 L 842.070312 1197.226562 L 851.054688 1156.523438 L 860.039062 1122.5 L 869.023438 1093.632812 L 877.96875 1068.867188 L 886.953125 1047.34375 L 895.9375 1028.515625 L 913.90625 997.03125 L 931.875 971.835938 L 949.84375 951.171875 L 967.8125 933.90625 L 985.78125 919.296875 L 1003.710938 906.757812 L 1039.648438 886.367188 L 1075.585938 870.46875 L 1111.523438 857.773438 L 1183.398438 838.671875 L 1255.234375 825 L 1327.109375 814.765625 L 1398.945312 806.796875 L 1470.78125 800.390625 " transform="matrix(0.1,0,0,-0.1,0,150)"/>
</g>
<path style=" stroke:none;fill-rule:nonzero;fill:rgb(92.939758%,10.978699%,14.118958%);fill-opacity:1;" d="M 122.496094 67.058594 L 115.988281 63.152344 L 117.226562 65.886719 L 114.949219 67.839844 "/>
<g clip-path="url(#clip4)" clip-rule="nonzero">
<path style="fill:none;stroke-width:10;stroke-linecap:butt;stroke-linejoin:miter;stroke:rgb(92.939758%,10.978699%,14.118958%);stroke-opacity:1;stroke-miterlimit:10;" d="M 765.703125 -2038.125 L 766.289062 -1937.226562 L 766.835938 -1843.4375 L 767.382812 -1755.9375 L 767.96875 -1674.21875 L 768.515625 -1597.617188 L 769.0625 -1525.742188 L 769.648438 -1458.164062 L 770.195312 -1394.492188 L 770.78125 -1334.375 L 771.328125 -1277.578125 L 771.875 -1223.789062 L 772.460938 -1172.8125 L 773.007812 -1124.375 L 773.554688 -1078.359375 L 774.140625 -1034.53125 L 774.6875 -992.8125 L 775.820312 -914.882812 L 776.953125 -843.710938 L 778.046875 -778.359375 L 779.179688 -718.203125 L 780.3125 -662.617188 L 781.445312 -611.09375 L 782.539062 -563.242188 L 783.671875 -518.632812 L 784.804688 -476.992188 L 785.9375 -437.96875 L 787.03125 -401.40625 L 788.164062 -367.03125 L 790.429688 -304.101562 L 792.65625 -247.96875 L 794.921875 -197.5 L 797.148438 -151.953125 L 799.414062 -110.625 L 801.640625 -72.929688 L 803.90625 -38.398438 L 806.132812 -6.71875 L 808.398438 22.5 L 810.625 49.570312 L 815.117188 97.96875 L 819.609375 140.039062 L 824.101562 176.992188 L 828.59375 209.648438 L 833.085938 238.75 L 837.578125 264.84375 L 842.070312 288.359375 L 851.054688 329.0625 L 860.039062 363.085938 L 869.023438 391.953125 L 877.96875 416.71875 L 886.953125 438.242188 L 895.9375 457.070312 L 913.90625 488.554688 L 931.875 513.789062 L 949.84375 534.453125 L 967.8125 551.679688 L 985.78125 566.289062 L 1003.710938 578.828125 L 1039.648438 599.21875 L 1075.585938 615.117188 L 1111.523438 627.8125 L 1183.398438 646.914062 L 1255.234375 660.585938 L 1327.109375 670.820312 L 1398.945312 678.828125 L 1470.78125 685.195312 " transform="matrix(0.1,0,0,-0.1,0,150)"/>
</g>
<path style=" stroke:none;fill-rule:nonzero;fill:rgb(92.939758%,10.978699%,14.118958%);fill-opacity:1;" d="M 122.496094 84.382812 L 114.949219 83.601562 L 117.226562 85.554688 L 115.988281 88.289062 "/>
<g clip-path="url(#clip5)" clip-rule="nonzero">
<path style="fill:none;stroke-width:10;stroke-linecap:butt;stroke-linejoin:miter;stroke:rgb(92.939758%,10.978699%,14.118958%);stroke-opacity:1;stroke-miterlimit:10;" d="M 30.820312 685.195312 L 102.65625 678.828125 L 174.53125 670.820312 L 246.367188 660.585938 L 318.242188 646.914062 L 390.078125 627.8125 L 426.015625 615.117188 L 461.953125 599.21875 L 497.851562 578.828125 L 515.820312 566.289062 L 533.789062 551.679688 L 551.757812 534.453125 L 569.726562 513.789062 L 587.695312 488.554688 L 605.664062 457.070312 L 614.648438 438.242188 L 623.59375 416.71875 L 632.578125 391.953125 L 641.5625 363.085938 L 650.546875 329.0625 L 659.53125 288.359375 L 664.023438 264.84375 L 668.515625 238.75 L 673.007812 209.648438 L 677.5 176.992188 L 681.992188 140.039062 L 686.484375 97.96875 L 690.976562 49.570312 L 693.242188 22.5 L 695.46875 -6.71875 L 697.734375 -38.398438 L 699.960938 -72.929688 L 702.1875 -110.625 L 704.453125 -151.953125 L 706.679688 -197.5 L 708.945312 -247.96875 L 711.171875 -304.101562 L 713.4375 -367.03125 L 714.570312 -401.40625 L 715.664062 -437.96875 L 716.796875 -476.992188 L 717.929688 -518.632812 L 719.0625 -563.242188 L 720.15625 -611.09375 L 721.289062 -662.617188 L 722.421875 -718.203125 L 723.515625 -778.359375 L 724.648438 -843.710938 L 725.78125 -914.882812 L 726.914062 -992.8125 L 727.460938 -1034.53125 L 728.007812 -1078.359375 L 728.59375 -1124.375 L 729.140625 -1172.8125 L 729.726562 -1223.789062 L 730.273438 -1277.578125 L 730.820312 -1334.375 L 731.40625 -1394.492188 L 731.953125 -1458.164062 L 732.539062 -1525.742188 L 733.085938 -1597.617188 L 733.632812 -1674.21875 L 734.21875 -1755.9375 L 734.765625 -1843.4375 L 735.3125 -1937.226562 L 735.898438 -2038.125 " transform="matrix(0.1,0,0,-0.1,0,150)"/>
</g>
<path style=" stroke:none;fill-rule:nonzero;fill:rgb(92.939758%,10.978699%,14.118958%);fill-opacity:1;" d="M 27.664062 84.382812 L 34.171875 88.289062 L 32.933594 85.554688 L 35.210938 83.601562 "/>
<g clip-path="url(#clip6)" clip-rule="nonzero">
<path style="fill:none;stroke-width:10;stroke-linecap:butt;stroke-linejoin:miter;stroke:rgb(92.939758%,10.978699%,14.118958%);stroke-opacity:1;stroke-miterlimit:10;" d="M 30.820312 800.390625 L 102.65625 806.796875 L 174.53125 814.765625 L 246.367188 825 L 318.242188 838.671875 L 390.078125 857.773438 L 426.015625 870.46875 L 461.953125 886.367188 L 497.851562 906.757812 L 515.820312 919.296875 L 533.789062 933.90625 L 551.757812 951.171875 L 569.726562 971.835938 L 587.695312 997.03125 L 605.664062 1028.515625 L 614.648438 1047.34375 L 623.59375 1068.867188 L 632.578125 1093.632812 L 641.5625 1122.5 L 650.546875 1156.523438 L 659.53125 1197.226562 L 664.023438 1220.742188 L 668.515625 1246.835938 L 673.007812 1275.9375 L 677.5 1308.632812 L 681.992188 1345.546875 L 686.484375 1387.65625 L 690.976562 1436.054688 L 693.242188 1463.085938 L 695.46875 1492.304688 L 697.734375 1524.023438 L 699.960938 1558.515625 L 702.1875 1596.210938 L 704.453125 1637.578125 L 706.679688 1683.125 L 708.945312 1733.554688 L 711.171875 1789.726562 L 713.4375 1852.617188 L 714.570312 1886.992188 L 715.664062 1923.59375 L 716.796875 1962.578125 L 717.929688 2004.21875 L 719.0625 2048.828125 L 720.15625 2096.71875 L 721.289062 2148.203125 L 722.421875 2203.789062 L 723.515625 2263.984375 L 724.648438 2329.296875 L 725.78125 2400.507812 L 726.914062 2478.398438 L 727.460938 2520.15625 L 728.007812 2563.945312 L 728.59375 2610 L 729.140625 2658.398438 L 729.726562 2709.414062 L 730.273438 2763.203125 L 730.820312 2820 L 731.40625 2880.078125 L 731.953125 2943.789062 L 732.539062 3011.367188 L 733.085938 3083.203125 L 733.632812 3159.804688 L 734.21875 3241.5625 L 734.765625 3329.023438 L 735.3125 3422.851562 L 735.898438 3523.710938 " transform="matrix(0.1,0,0,-0.1,0,150)"/>
</g>
<path style=" stroke:none;fill-rule:nonzero;fill:rgb(92.939758%,10.978699%,14.118958%);fill-opacity:1;" d="M 27.664062 67.058594 L 35.210938 67.839844 L 32.933594 65.886719 L 34.171875 63.152344 "/>
<g clip-path="url(#clip7)" clip-rule="nonzero">
<path style="fill:none;stroke-width:10;stroke-linecap:butt;stroke-linejoin:miter;stroke:rgb(18.03894%,19.219971%,57.249451%);stroke-opacity:1;stroke-miterlimit:10;" d="M 30.820312 1518.28125 L 174.804688 1386.796875 L 246.796875 1323.28125 L 318.789062 1261.992188 L 390.820312 1203.828125 L 462.8125 1150.078125 L 534.804688 1102.8125 L 570.820312 1082.421875 L 606.796875 1064.804688 L 642.8125 1050.390625 L 678.789062 1039.648438 L 714.804688 1033.046875 L 750.820312 1030.78125 L 786.796875 1033.046875 L 822.8125 1039.648438 L 858.789062 1050.390625 L 894.804688 1064.804688 L 930.820312 1082.421875 L 966.796875 1102.8125 L 1038.789062 1150.078125 L 1110.78125 1203.828125 L 1182.8125 1261.992188 L 1254.804688 1323.28125 L 1326.796875 1386.796875 L 1470.78125 1518.28125 " transform="matrix(0.1,0,0,-0.1,0,150)"/>
</g>
<g clip-path="url(#clip8)" clip-rule="nonzero">
<path style="fill:none;stroke-width:10;stroke-linecap:butt;stroke-linejoin:miter;stroke:rgb(18.03894%,19.219971%,57.249451%);stroke-opacity:1;stroke-miterlimit:10;" d="M 30.820312 -32.65625 L 174.804688 98.828125 L 246.796875 162.304688 L 318.789062 223.59375 L 390.820312 281.757812 L 462.8125 335.507812 L 534.804688 382.8125 L 570.820312 403.164062 L 606.796875 420.820312 L 642.8125 435.234375 L 678.789062 445.9375 L 714.804688 452.578125 L 750.820312 454.804688 L 786.796875 452.578125 L 822.8125 445.9375 L 858.789062 435.234375 L 894.804688 420.820312 L 930.820312 403.164062 L 966.796875 382.8125 L 1038.789062 335.507812 L 1110.78125 281.757812 L 1182.8125 223.59375 L 1254.804688 162.304688 L 1326.796875 98.828125 L 1470.78125 -32.65625 " transform="matrix(0.1,0,0,-0.1,0,150)"/>
</g>
<g clip-path="url(#clip9)" clip-rule="nonzero">
<path style="fill:none;stroke-width:10;stroke-linecap:butt;stroke-linejoin:miter;stroke:rgb(18.03894%,19.219971%,57.249451%);stroke-opacity:1;stroke-miterlimit:10;" d="M 752.226562 744.21875 L 1470.78125 1462.8125 " transform="matrix(0.1,0,0,-0.1,0,150)"/>
</g>
<g clip-path="url(#clip10)" clip-rule="nonzero">
<path style="fill:none;stroke-width:10;stroke-linecap:butt;stroke-linejoin:miter;stroke:rgb(18.03894%,19.219971%,57.249451%);stroke-opacity:1;stroke-miterlimit:10;" d="M 752.226562 741.367188 L 1470.78125 22.8125 " transform="matrix(0.1,0,0,-0.1,0,150)"/>
</g>
<g clip-path="url(#clip11)" clip-rule="nonzero">
<path style="fill:none;stroke-width:10;stroke-linecap:butt;stroke-linejoin:miter;stroke:rgb(18.03894%,19.219971%,57.249451%);stroke-opacity:1;stroke-miterlimit:10;" d="M 749.375 741.367188 L 30.820312 22.8125 " transform="matrix(0.1,0,0,-0.1,0,150)"/>
</g>
<g clip-path="url(#clip12)" clip-rule="nonzero">
<path style="fill:none;stroke-width:10;stroke-linecap:butt;stroke-linejoin:miter;stroke:rgb(18.03894%,19.219971%,57.249451%);stroke-opacity:1;stroke-miterlimit:10;" d="M 752.226562 744.21875 L 30.820312 1462.8125 " transform="matrix(0.1,0,0,-0.1,0,150)"/>
</g>
<g clip-path="url(#clip13)" clip-rule="nonzero">
<path style="fill:none;stroke-width:10;stroke-linecap:butt;stroke-linejoin:miter;stroke:rgb(18.03894%,19.219971%,57.249451%);stroke-opacity:1;stroke-miterlimit:10;" d="M 1526.25 22.8125 L 1394.804688 166.796875 L 1331.289062 238.789062 L 1270 310.820312 L 1211.835938 382.8125 L 1158.085938 454.804688 L 1110.78125 526.796875 L 1090.429688 562.8125 L 1072.773438 598.789062 L 1058.398438 634.804688 L 1047.65625 670.820312 L 1041.054688 706.796875 L 1038.789062 742.8125 L 1041.054688 778.789062 L 1047.65625 814.804688 L 1058.398438 850.820312 L 1072.773438 886.796875 L 1090.429688 922.8125 L 1110.78125 958.789062 L 1158.085938 1030.78125 L 1211.835938 1102.8125 L 1270 1174.804688 L 1331.289062 1246.796875 L 1394.804688 1318.789062 L 1526.25 1462.8125 " transform="matrix(0.1,0,0,-0.1,0,150)"/>
</g>
<g clip-path="url(#clip14)" clip-rule="nonzero">
<path style="fill:none;stroke-width:10;stroke-linecap:butt;stroke-linejoin:miter;stroke:rgb(18.03894%,19.219971%,57.249451%);stroke-opacity:1;stroke-miterlimit:10;" d="M -24.648438 22.8125 L 106.796875 166.796875 L 170.3125 238.789062 L 231.601562 310.820312 L 289.765625 382.8125 L 343.515625 454.804688 L 390.820312 526.796875 L 411.171875 562.8125 L 428.789062 598.789062 L 443.203125 634.804688 L 453.945312 670.820312 L 460.546875 706.796875 L 462.8125 742.8125 L 460.546875 778.789062 L 453.945312 814.804688 L 443.203125 850.820312 L 428.789062 886.796875 L 411.171875 922.8125 L 390.820312 958.789062 L 343.515625 1030.78125 L 289.765625 1102.8125 L 231.601562 1174.804688 L 170.3125 1246.796875 L 106.796875 1318.789062 L -24.648438 1462.8125 " transform="matrix(0.1,0,0,-0.1,0,150)"/>
</g>
</g>
</svg>
