<?xml version="1.0" encoding="UTF-8"?>
<svg xmlns="http://www.w3.org/2000/svg" xmlns:xlink="http://www.w3.org/1999/xlink" width="157pt" height="81pt" viewBox="0 0 157 81" version="1.1">
<g id="surface1">
<path style="fill:none;stroke-width:10;stroke-linecap:butt;stroke-linejoin:miter;stroke:rgb(0%,0%,0%);stroke-opacity:1;stroke-miterlimit:10;" d="M 47.1875 232.578125 L 1465.507812 749.726562 L 1539.257812 546.757812 L 120.9375 29.609375 Z M 47.1875 232.578125 " transform="matrix(0.1,0,0,-0.1,0,81)"/>
<path style="fill:none;stroke-width:10;stroke-linecap:butt;stroke-linejoin:miter;stroke:rgb(69.921875%,69.921875%,69.921875%);stroke-opacity:1;stroke-miterlimit:10;" d="M 203.789062 117.304688 L 166.914062 218.789062 " transform="matrix(0.1,0,0,-0.1,0,81)"/>
<path style="fill:none;stroke-width:10;stroke-linecap:butt;stroke-linejoin:miter;stroke:rgb(69.921875%,69.921875%,69.921875%);stroke-opacity:1;stroke-miterlimit:10;" d="M 609.023438 265.039062 L 572.148438 366.523438 " transform="matrix(0.1,0,0,-0.1,0,81)"/>
<path style="fill:none;stroke-width:10;stroke-linecap:butt;stroke-linejoin:miter;stroke:rgb(69.921875%,69.921875%,69.921875%);stroke-opacity:1;stroke-miterlimit:10;" d="M 1014.257812 412.8125 L 977.382812 514.296875 " transform="matrix(0.1,0,0,-0.1,0,81)"/>
<path style="fill:none;stroke-width:10;stroke-linecap:butt;stroke-linejoin:miter;stroke:rgb(69.921875%,69.921875%,69.921875%);stroke-opacity:1;stroke-miterlimit:10;" d="M 1419.492188 560.546875 L 1382.617188 662.03125 " transform="matrix(0.1,0,0,-0.1,0,81)"/>
<path style="fill:none;stroke-width:10;stroke-linecap:butt;stroke-linejoin:miter;stroke:rgb(69.921875%,69.921875%,69.921875%);stroke-opacity:1;stroke-miterlimit:10;" d="M 203.789062 117.304688 L 609.023438 265.039062 " transform="matrix(0.1,0,0,-0.1,0,81)"/>
<path style="fill:none;stroke-width:10;stroke-linecap:butt;stroke-linejoin:miter;stroke:rgb(69.921875%,69.921875%,69.921875%);stroke-opacity:1;stroke-miterlimit:10;" d="M 609.023438 265.039062 L 1014.257812 412.8125 " transform="matrix(0.1,0,0,-0.1,0,81)"/>
<path style="fill:none;stroke-width:10;stroke-linecap:butt;stroke-linejoin:miter;stroke:rgb(69.921875%,69.921875%,69.921875%);stroke-opacity:1;stroke-miterlimit:10;" d="M 1014.257812 412.8125 L 1419.492188 560.546875 " transform="matrix(0.1,0,0,-0.1,0,81)"/>
<path style="fill:none;stroke-width:10;stroke-linecap:butt;stroke-linejoin:miter;stroke:rgb(69.921875%,69.921875%,69.921875%);stroke-opacity:1;stroke-miterlimit:10;" d="M 166.914062 218.789062 L 572.148438 366.523438 " transform="matrix(0.1,0,0,-0.1,0,81)"/>
<path style="fill:none;stroke-width:10;stroke-linecap:butt;stroke-linejoin:miter;stroke:rgb(69.921875%,69.921875%,69.921875%);stroke-opacity:1;stroke-miterlimit:10;" d="M 572.148438 366.523438 L 977.382812 514.296875 " transform="matrix(0.1,0,0,-0.1,0,81)"/>
<path style="fill:none;stroke-width:10;stroke-linecap:butt;stroke-linejoin:miter;stroke:rgb(69.921875%,69.921875%,69.921875%);stroke-opacity:1;stroke-miterlimit:10;" d="M 977.382812 514.296875 L 1382.617188 662.03125 " transform="matrix(0.1,0,0,-0.1,0,81)"/>
<path style="fill:none;stroke-width:10;stroke-linecap:butt;stroke-linejoin:miter;stroke:rgb(69.921875%,69.921875%,69.921875%);stroke-opacity:1;stroke-miterlimit:10;" d="M 203.789062 117.304688 L 572.148438 366.523438 " transform="matrix(0.1,0,0,-0.1,0,81)"/>
<path style="fill:none;stroke-width:10;stroke-linecap:butt;stroke-linejoin:miter;stroke:rgb(69.921875%,69.921875%,69.921875%);stroke-opacity:1;stroke-miterlimit:10;" d="M 609.023438 265.039062 L 166.914062 218.789062 " transform="matrix(0.1,0,0,-0.1,0,81)"/>
<path style="fill:none;stroke-width:10;stroke-linecap:butt;stroke-linejoin:miter;stroke:rgb(69.921875%,69.921875%,69.921875%);stroke-opacity:1;stroke-miterlimit:10;" d="M 1014.257812 412.8125 L 572.148438 366.523438 " transform="matrix(0.1,0,0,-0.1,0,81)"/>
<path style="fill:none;stroke-width:10;stroke-linecap:butt;stroke-linejoin:miter;stroke:rgb(69.921875%,69.921875%,69.921875%);stroke-opacity:1;stroke-miterlimit:10;" d="M 609.023438 265.039062 L 977.382812 514.296875 " transform="matrix(0.1,0,0,-0.1,0,81)"/>
<path style="fill:none;stroke-width:10;stroke-linecap:butt;stroke-linejoin:miter;stroke:rgb(69.921875%,69.921875%,69.921875%);stroke-opacity:1;stroke-miterlimit:10;" d="M 1014.257812 412.8125 L 1382.617188 662.03125 " transform="matrix(0.1,0,0,-0.1,0,81)"/>
<path style="fill:none;stroke-width:10;stroke-linecap:butt;stroke-linejoin:miter;stroke:rgb(69.921875%,69.921875%,69.921875%);stroke-opacity:1;stroke-miterlimit:10;" d="M 1419.492188 560.546875 L 977.382812 514.296875 " transform="matrix(0.1,0,0,-0.1,0,81)"/>
<path style=" stroke:none;fill-rule:nonzero;fill:rgb(0%,0%,0%);fill-opacity:1;" d="M 23.417969 69.269531 C 23.417969 67.589844 22.058594 66.226562 20.378906 66.226562 C 18.703125 66.226562 17.339844 67.589844 17.339844 69.269531 C 17.339844 70.953125 18.703125 72.316406 20.378906 72.316406 C 22.058594 72.316406 23.417969 70.953125 23.417969 69.269531 "/>
<path style=" stroke:none;fill-rule:nonzero;fill:rgb(0%,0%,0%);fill-opacity:1;" d="M 63.941406 54.496094 C 63.941406 52.8125 62.582031 51.449219 60.902344 51.449219 C 59.226562 51.449219 57.863281 52.8125 57.863281 54.496094 C 57.863281 56.175781 59.226562 57.539062 60.902344 57.539062 C 62.582031 57.539062 63.941406 56.175781 63.941406 54.496094 "/>
<path style=" stroke:none;fill-rule:nonzero;fill:rgb(0%,0%,0%);fill-opacity:1;" d="M 104.464844 39.71875 C 104.464844 38.039062 103.105469 36.675781 101.425781 36.675781 C 99.75 36.675781 98.386719 38.039062 98.386719 39.71875 C 98.386719 41.402344 99.75 42.765625 101.425781 42.765625 C 103.105469 42.765625 104.464844 41.402344 104.464844 39.71875 "/>
<path style=" stroke:none;fill-rule:nonzero;fill:rgb(0%,0%,0%);fill-opacity:1;" d="M 144.988281 24.945312 C 144.988281 23.261719 143.628906 21.898438 141.949219 21.898438 C 140.269531 21.898438 138.910156 23.261719 138.910156 24.945312 C 138.910156 26.625 140.269531 27.988281 141.949219 27.988281 C 143.628906 27.988281 144.988281 26.625 144.988281 24.945312 "/>
<path style=" stroke:none;fill-rule:nonzero;fill:rgb(0%,0%,0%);fill-opacity:1;" d="M 19.730469 59.121094 C 19.730469 57.441406 18.371094 56.078125 16.691406 56.078125 C 15.015625 56.078125 13.652344 57.441406 13.652344 59.121094 C 13.652344 60.804688 15.015625 62.167969 16.691406 62.167969 C 18.371094 62.167969 19.730469 60.804688 19.730469 59.121094 "/>
<path style=" stroke:none;fill-rule:nonzero;fill:rgb(0%,0%,0%);fill-opacity:1;" d="M 60.253906 44.347656 C 60.253906 42.664062 58.894531 41.300781 57.214844 41.300781 C 55.539062 41.300781 54.175781 42.664062 54.175781 44.347656 C 54.175781 46.027344 55.539062 47.390625 57.214844 47.390625 C 58.894531 47.390625 60.253906 46.027344 60.253906 44.347656 "/>
<path style=" stroke:none;fill-rule:nonzero;fill:rgb(0%,0%,0%);fill-opacity:1;" d="M 100.777344 29.570312 C 100.777344 27.890625 99.417969 26.527344 97.738281 26.527344 C 96.0625 26.527344 94.699219 27.890625 94.699219 29.570312 C 94.699219 31.253906 96.0625 32.617188 97.738281 32.617188 C 99.417969 32.617188 100.777344 31.253906 100.777344 29.570312 "/>
<path style=" stroke:none;fill-rule:nonzero;fill:rgb(0%,0%,0%);fill-opacity:1;" d="M 141.300781 14.796875 C 141.300781 13.113281 139.941406 11.75 138.261719 11.75 C 136.585938 11.75 135.222656 13.113281 135.222656 14.796875 C 135.222656 16.476562 136.585938 17.839844 138.261719 17.839844 C 139.941406 17.839844 141.300781 16.476562 141.300781 14.796875 "/>
</g>
</svg>
