<?xml version="1.0" encoding="UTF-8"?>
<svg xmlns="http://www.w3.org/2000/svg" xmlns:xlink="http://www.w3.org/1999/xlink" width="113pt" height="111pt" viewBox="0 0 113 111" version="1.1">
<defs>
<clipPath id="clip1">
  <path d="M 2.082031 55 L 112 55 L 112 57 L 2.082031 57 Z M 2.082031 55 "/>
</clipPath>
<clipPath id="clip2">
  <path d="M 56 1 L 58 1 L 58 110.921875 L 56 110.921875 Z M 56 1 "/>
</clipPath>
<clipPath id="clip3">
  <path d="M 2.082031 0.921875 L 112.082031 0.921875 L 112.082031 110.921875 L 2.082031 110.921875 Z M 2.082031 0.921875 "/>
</clipPath>
</defs>
<g id="surface1">
<g clip-path="url(#clip1)" clip-rule="nonzero">
<path style="fill:none;stroke-width:5;stroke-linecap:butt;stroke-linejoin:miter;stroke:rgb(0%,0%,0%);stroke-opacity:1;stroke-miterlimit:10;" d="M 30.820312 550.820312 L 1110.78125 550.820312 " transform="matrix(0.1,0,0,-0.1,0,111)"/>
</g>
<g clip-path="url(#clip2)" clip-rule="nonzero">
<path style="fill:none;stroke-width:5;stroke-linecap:butt;stroke-linejoin:miter;stroke:rgb(0%,0%,0%);stroke-opacity:1;stroke-miterlimit:10;" d="M 570.820312 10.820312 L 570.820312 1090.78125 " transform="matrix(0.1,0,0,-0.1,0,111)"/>
</g>
<path style=" stroke:none;fill-rule:nonzero;fill:rgb(59.959412%,59.959412%,59.959412%);fill-opacity:1;" d="M 57.082031 55.917969 L 90.671875 48.78125 L 83.53125 15.1875 L 49.941406 22.328125 "/>
<path style="fill:none;stroke-width:15;stroke-linecap:butt;stroke-linejoin:miter;stroke:rgb(0%,0%,0%);stroke-opacity:1;stroke-miterlimit:10;" d="M 570.820312 550.820312 L 914.21875 550.820312 L 914.21875 894.21875 L 570.820312 894.21875 Z M 570.820312 550.820312 " transform="matrix(0.1,0,0,-0.1,0,111)"/>
<path style="fill:none;stroke-width:5;stroke-linecap:butt;stroke-linejoin:miter;stroke:rgb(0%,0%,0%);stroke-opacity:1;stroke-miterlimit:10;" d="M 771.679688 550.820312 L 769.21875 582.226562 L 761.835938 612.890625 L 749.765625 641.992188 L 733.320312 668.867188 L 712.851562 692.851562 L 688.867188 713.320312 L 661.992188 729.765625 L 632.890625 741.835938 L 602.226562 749.21875 L 570.820312 751.679688 L 539.375 749.21875 L 508.710938 741.835938 L 479.609375 729.765625 L 452.734375 713.320312 L 428.75 692.851562 L 408.28125 668.867188 L 391.796875 641.992188 L 379.765625 612.890625 L 372.382812 582.226562 L 369.921875 550.820312 L 372.382812 519.375 L 379.765625 488.710938 L 391.796875 459.609375 L 408.28125 432.734375 L 428.75 408.75 L 452.734375 388.28125 L 479.609375 371.796875 L 508.710938 359.765625 L 539.375 352.382812 L 570.820312 349.921875 L 602.226562 352.382812 L 632.890625 359.765625 L 661.992188 371.796875 L 688.867188 388.28125 L 712.851562 408.75 L 733.320312 432.734375 L 749.765625 459.609375 L 761.835938 488.710938 L 769.21875 519.375 L 771.679688 550.820312 " transform="matrix(0.1,0,0,-0.1,0,111)"/>
<path style="fill:none;stroke-width:5;stroke-linecap:butt;stroke-linejoin:miter;stroke:rgb(0%,0%,0%);stroke-opacity:1;stroke-miterlimit:10;" d="M 914.21875 550.820312 L 913.164062 577.734375 L 910 604.53125 L 904.765625 630.976562 L 897.421875 656.914062 L 888.085938 682.226562 L 876.796875 706.71875 L 863.632812 730.234375 L 848.632812 752.65625 L 831.953125 773.867188 L 813.632812 793.632812 L 793.867188 811.953125 L 772.65625 828.632812 L 750.234375 843.632812 L 726.71875 856.796875 L 702.226562 868.085938 L 676.914062 877.421875 L 650.976562 884.765625 L 624.53125 890 L 597.734375 893.164062 L 570.820312 894.21875 L 543.867188 893.164062 L 517.070312 890 L 490.625 884.765625 L 464.6875 877.421875 L 439.375 868.085938 L 414.882812 856.796875 L 391.367188 843.632812 L 368.945312 828.632812 L 347.773438 811.953125 L 327.96875 793.632812 L 309.648438 773.867188 L 292.96875 752.65625 L 277.96875 730.234375 L 264.804688 706.71875 L 253.515625 682.226562 L 244.179688 656.914062 L 236.835938 630.976562 L 231.601562 604.53125 L 228.4375 577.734375 L 227.34375 550.820312 L 228.4375 523.867188 L 231.601562 497.070312 L 236.835938 470.625 L 244.179688 444.6875 L 253.515625 419.375 L 264.804688 394.882812 L 277.96875 371.367188 L 292.96875 348.945312 L 309.648438 327.773438 L 327.96875 307.96875 L 347.773438 289.648438 L 368.945312 272.96875 L 391.367188 257.96875 L 414.882812 244.804688 L 439.375 233.515625 L 464.6875 224.179688 L 490.625 216.835938 L 517.070312 211.601562 L 543.867188 208.4375 L 570.820312 207.34375 L 597.734375 208.4375 L 624.53125 211.601562 L 650.976562 216.835938 L 676.914062 224.179688 L 702.226562 233.515625 L 726.71875 244.804688 L 750.234375 257.96875 L 772.65625 272.96875 L 793.867188 289.648438 L 813.632812 307.96875 L 831.953125 327.773438 L 848.632812 348.945312 L 863.632812 371.367188 L 876.796875 394.882812 L 888.085938 419.375 L 897.421875 444.6875 L 904.765625 470.625 L 910 497.070312 L 913.164062 523.867188 L 914.21875 550.820312 " transform="matrix(0.1,0,0,-0.1,0,111)"/>
<g clip-path="url(#clip3)" clip-rule="nonzero">
<path style="fill:none;stroke-width:5;stroke-linecap:butt;stroke-linejoin:miter;stroke:rgb(0%,0%,0%);stroke-opacity:1;stroke-miterlimit:10;" d="M 1056.796875 550.820312 L 1055.3125 588.945312 L 1050.820312 626.835938 L 1043.359375 664.257812 L 1033.007812 700.976562 L 1019.804688 736.796875 L 1003.828125 771.445312 L 985.195312 804.726562 L 963.984375 836.484375 L 940.351562 866.445312 L 914.453125 894.453125 L 886.445312 920.351562 L 856.484375 943.984375 L 824.726562 965.195312 L 791.445312 983.828125 L 756.796875 999.804688 L 720.976562 1013.007812 L 684.257812 1023.359375 L 646.835938 1030.820312 L 608.945312 1035.3125 L 570.820312 1036.796875 L 532.65625 1035.3125 L 494.765625 1030.820312 L 457.34375 1023.359375 L 420.625 1013.007812 L 384.804688 999.804688 L 350.15625 983.828125 L 316.875 965.195312 L 285.15625 943.984375 L 255.15625 920.351562 L 227.148438 894.453125 L 201.25 866.445312 L 177.617188 836.484375 L 156.40625 804.726562 L 137.773438 771.445312 L 121.796875 736.796875 L 108.59375 700.976562 L 98.242188 664.257812 L 90.78125 626.835938 L 86.289062 588.945312 L 84.804688 550.820312 L 86.289062 512.65625 L 90.78125 474.765625 L 98.242188 437.34375 L 108.59375 400.625 L 121.796875 364.804688 L 137.773438 330.15625 L 156.40625 296.875 L 177.617188 265.15625 L 201.25 235.15625 L 227.148438 207.148438 L 255.15625 181.25 L 285.15625 157.617188 L 316.875 136.40625 L 350.15625 117.773438 L 384.804688 101.796875 L 420.625 88.59375 L 457.34375 78.242188 L 494.765625 70.78125 L 532.65625 66.289062 L 570.820312 64.804688 L 608.945312 66.289062 L 646.835938 70.78125 L 684.257812 78.242188 L 720.976562 88.59375 L 756.796875 101.796875 L 791.445312 117.773438 L 824.726562 136.40625 L 856.484375 157.617188 L 886.445312 181.25 L 914.453125 207.148438 L 940.351562 235.15625 L 963.984375 265.15625 L 985.195312 296.875 L 1003.828125 330.15625 L 1019.804688 364.804688 L 1033.007812 400.625 L 1043.359375 437.34375 L 1050.820312 474.765625 L 1055.3125 512.65625 L 1056.796875 550.820312 " transform="matrix(0.1,0,0,-0.1,0,111)"/>
</g>
<path style="fill:none;stroke-width:10;stroke-linecap:butt;stroke-linejoin:miter;stroke:rgb(92.939758%,10.978699%,14.118958%);stroke-opacity:1;stroke-miterlimit:10;" d="M 771.679688 550.820312 L 771.679688 651.25 " transform="matrix(0.1,0,0,-0.1,0,111)"/>
<path style=" stroke:none;fill-rule:nonzero;fill:rgb(92.939758%,10.978699%,14.118958%);fill-opacity:1;" d="M 77.167969 45.875 L 74.769531 53.078125 L 77.167969 51.277344 L 79.566406 53.078125 "/>
<path style="fill:none;stroke-width:10;stroke-linecap:butt;stroke-linejoin:miter;stroke:rgb(92.939758%,10.978699%,14.118958%);stroke-opacity:1;stroke-miterlimit:10;" d="M 914.21875 550.820312 L 914.21875 722.539062 " transform="matrix(0.1,0,0,-0.1,0,111)"/>
<path style=" stroke:none;fill-rule:nonzero;fill:rgb(92.939758%,10.978699%,14.118958%);fill-opacity:1;" d="M 91.421875 38.746094 L 89.023438 45.949219 L 91.421875 44.148438 L 93.824219 45.949219 "/>
<path style="fill:none;stroke-width:10;stroke-linecap:butt;stroke-linejoin:miter;stroke:rgb(92.939758%,10.978699%,14.118958%);stroke-opacity:1;stroke-miterlimit:10;" d="M 1056.796875 550.820312 L 1056.796875 793.789062 " transform="matrix(0.1,0,0,-0.1,0,111)"/>
<path style=" stroke:none;fill-rule:nonzero;fill:rgb(92.939758%,10.978699%,14.118958%);fill-opacity:1;" d="M 105.679688 31.621094 L 103.28125 38.820312 L 105.679688 37.019531 L 108.078125 38.820312 "/>
<path style="fill:none;stroke-width:10;stroke-linecap:butt;stroke-linejoin:miter;stroke:rgb(92.939758%,10.978699%,14.118958%);stroke-opacity:1;stroke-miterlimit:10;" d="M 369.921875 550.820312 L 369.921875 450.351562 " transform="matrix(0.1,0,0,-0.1,0,111)"/>
<path style=" stroke:none;fill-rule:nonzero;fill:rgb(92.939758%,10.978699%,14.118958%);fill-opacity:1;" d="M 36.992188 65.964844 L 39.390625 58.765625 L 36.992188 60.5625 L 34.59375 58.765625 "/>
<path style="fill:none;stroke-width:10;stroke-linecap:butt;stroke-linejoin:miter;stroke:rgb(92.939758%,10.978699%,14.118958%);stroke-opacity:1;stroke-miterlimit:10;" d="M 227.34375 550.820312 L 227.34375 379.0625 " transform="matrix(0.1,0,0,-0.1,0,111)"/>
<path style=" stroke:none;fill-rule:nonzero;fill:rgb(92.939758%,10.978699%,14.118958%);fill-opacity:1;" d="M 22.734375 73.09375 L 25.136719 65.890625 L 22.734375 67.691406 L 20.335938 65.890625 "/>
<path style="fill:none;stroke-width:10;stroke-linecap:butt;stroke-linejoin:miter;stroke:rgb(92.939758%,10.978699%,14.118958%);stroke-opacity:1;stroke-miterlimit:10;" d="M 84.804688 550.820312 L 84.804688 307.8125 " transform="matrix(0.1,0,0,-0.1,0,111)"/>
<path style=" stroke:none;fill-rule:nonzero;fill:rgb(92.939758%,10.978699%,14.118958%);fill-opacity:1;" d="M 8.480469 80.21875 L 10.878906 73.019531 L 8.480469 74.820312 L 6.082031 73.019531 "/>
<path style="fill:none;stroke-width:10;stroke-linecap:butt;stroke-linejoin:miter;stroke:rgb(92.939758%,10.978699%,14.118958%);stroke-opacity:1;stroke-miterlimit:10;" d="M 570.820312 751.679688 L 470.351562 751.679688 " transform="matrix(0.1,0,0,-0.1,0,111)"/>
<path style=" stroke:none;fill-rule:nonzero;fill:rgb(92.939758%,10.978699%,14.118958%);fill-opacity:1;" d="M 47.035156 35.832031 L 54.234375 38.230469 L 52.4375 35.832031 L 54.234375 33.433594 "/>
<path style="fill:none;stroke-width:10;stroke-linecap:butt;stroke-linejoin:miter;stroke:rgb(92.939758%,10.978699%,14.118958%);stroke-opacity:1;stroke-miterlimit:10;" d="M 570.820312 894.21875 L 399.0625 894.21875 " transform="matrix(0.1,0,0,-0.1,0,111)"/>
<path style=" stroke:none;fill-rule:nonzero;fill:rgb(92.939758%,10.978699%,14.118958%);fill-opacity:1;" d="M 39.90625 21.578125 L 47.109375 23.976562 L 45.308594 21.578125 L 47.109375 19.175781 "/>
<path style="fill:none;stroke-width:10;stroke-linecap:butt;stroke-linejoin:miter;stroke:rgb(92.939758%,10.978699%,14.118958%);stroke-opacity:1;stroke-miterlimit:10;" d="M 570.820312 1036.796875 L 327.8125 1036.796875 " transform="matrix(0.1,0,0,-0.1,0,111)"/>
<path style=" stroke:none;fill-rule:nonzero;fill:rgb(92.939758%,10.978699%,14.118958%);fill-opacity:1;" d="M 32.78125 7.320312 L 39.980469 9.71875 L 38.179688 7.320312 L 39.980469 4.921875 "/>
<path style="fill:none;stroke-width:10;stroke-linecap:butt;stroke-linejoin:miter;stroke:rgb(92.939758%,10.978699%,14.118958%);stroke-opacity:1;stroke-miterlimit:10;" d="M 570.820312 349.921875 L 671.25 349.921875 " transform="matrix(0.1,0,0,-0.1,0,111)"/>
<path style=" stroke:none;fill-rule:nonzero;fill:rgb(92.939758%,10.978699%,14.118958%);fill-opacity:1;" d="M 67.125 76.007812 L 59.921875 73.609375 L 61.722656 76.007812 L 59.921875 78.40625 "/>
<path style="fill:none;stroke-width:10;stroke-linecap:butt;stroke-linejoin:miter;stroke:rgb(92.939758%,10.978699%,14.118958%);stroke-opacity:1;stroke-miterlimit:10;" d="M 570.820312 207.34375 L 742.539062 207.34375 " transform="matrix(0.1,0,0,-0.1,0,111)"/>
<path style=" stroke:none;fill-rule:nonzero;fill:rgb(92.939758%,10.978699%,14.118958%);fill-opacity:1;" d="M 74.253906 90.265625 L 67.050781 87.863281 L 68.851562 90.265625 L 67.050781 92.664062 "/>
<path style="fill:none;stroke-width:10;stroke-linecap:butt;stroke-linejoin:miter;stroke:rgb(92.939758%,10.978699%,14.118958%);stroke-opacity:1;stroke-miterlimit:10;" d="M 570.820312 64.804688 L 813.789062 64.804688 " transform="matrix(0.1,0,0,-0.1,0,111)"/>
<path style=" stroke:none;fill-rule:nonzero;fill:rgb(92.939758%,10.978699%,14.118958%);fill-opacity:1;" d="M 81.378906 104.519531 L 74.179688 102.121094 L 75.980469 104.519531 L 74.179688 106.917969 "/>
</g>
</svg>
