<?xml version="1.0" encoding="UTF-8"?>
<svg xmlns="http://www.w3.org/2000/svg" xmlns:xlink="http://www.w3.org/1999/xlink" width="134pt" height="97pt" viewBox="0 0 134 97" version="1.1">
<g id="surface1">
<path style="fill:none;stroke-width:5;stroke-linecap:butt;stroke-linejoin:miter;stroke:rgb(18.03894%,19.219971%,57.249451%);stroke-opacity:1;stroke-miterlimit:10;" d="M 38.789062 50.820312 L 218.789062 50.820312 " transform="matrix(0.1,0,0,-0.1,0,97)"/>
<path style=" stroke:none;fill-rule:nonzero;fill:rgb(18.03894%,19.219971%,57.249451%);fill-opacity:1;" d="M 21.878906 91.917969 L 15.878906 89.917969 L 17.378906 91.917969 L 15.878906 93.917969 "/>
<path style="fill:none;stroke-width:5;stroke-linecap:butt;stroke-linejoin:miter;stroke:rgb(18.03894%,19.219971%,57.249451%);stroke-opacity:1;stroke-miterlimit:10;" d="M 38.789062 338.789062 L 218.789062 338.789062 " transform="matrix(0.1,0,0,-0.1,0,97)"/>
<path style=" stroke:none;fill-rule:nonzero;fill:rgb(18.03894%,19.219971%,57.249451%);fill-opacity:1;" d="M 21.878906 63.121094 L 15.878906 61.121094 L 17.378906 63.121094 L 15.878906 65.121094 "/>
<path style="fill:none;stroke-width:5;stroke-linecap:butt;stroke-linejoin:miter;stroke:rgb(18.03894%,19.219971%,57.249451%);stroke-opacity:1;stroke-miterlimit:10;" d="M 38.789062 626.796875 L 218.789062 626.796875 " transform="matrix(0.1,0,0,-0.1,0,97)"/>
<path style=" stroke:none;fill-rule:nonzero;fill:rgb(18.03894%,19.219971%,57.249451%);fill-opacity:1;" d="M 21.878906 34.320312 L 15.878906 32.320312 L 17.378906 34.320312 L 15.878906 36.320312 "/>
<path style="fill:none;stroke-width:5;stroke-linecap:butt;stroke-linejoin:miter;stroke:rgb(18.03894%,19.219971%,57.249451%);stroke-opacity:1;stroke-miterlimit:10;" d="M 38.789062 914.804688 L 218.789062 914.804688 " transform="matrix(0.1,0,0,-0.1,0,97)"/>
<path style=" stroke:none;fill-rule:nonzero;fill:rgb(18.03894%,19.219971%,57.249451%);fill-opacity:1;" d="M 21.878906 5.519531 L 15.878906 3.519531 L 17.378906 5.519531 L 15.878906 7.519531 "/>
<path style="fill:none;stroke-width:5;stroke-linecap:butt;stroke-linejoin:miter;stroke:rgb(18.03894%,19.219971%,57.249451%);stroke-opacity:1;stroke-miterlimit:10;" d="M 398.789062 50.820312 L 578.789062 50.820312 " transform="matrix(0.1,0,0,-0.1,0,97)"/>
<path style=" stroke:none;fill-rule:nonzero;fill:rgb(18.03894%,19.219971%,57.249451%);fill-opacity:1;" d="M 57.878906 91.917969 L 51.878906 89.917969 L 53.378906 91.917969 L 51.878906 93.917969 "/>
<path style="fill:none;stroke-width:5;stroke-linecap:butt;stroke-linejoin:miter;stroke:rgb(18.03894%,19.219971%,57.249451%);stroke-opacity:1;stroke-miterlimit:10;" d="M 398.789062 338.789062 L 578.789062 338.789062 " transform="matrix(0.1,0,0,-0.1,0,97)"/>
<path style=" stroke:none;fill-rule:nonzero;fill:rgb(18.03894%,19.219971%,57.249451%);fill-opacity:1;" d="M 57.878906 63.121094 L 51.878906 61.121094 L 53.378906 63.121094 L 51.878906 65.121094 "/>
<path style="fill:none;stroke-width:5;stroke-linecap:butt;stroke-linejoin:miter;stroke:rgb(18.03894%,19.219971%,57.249451%);stroke-opacity:1;stroke-miterlimit:10;" d="M 398.789062 626.796875 L 578.789062 626.796875 " transform="matrix(0.1,0,0,-0.1,0,97)"/>
<path style=" stroke:none;fill-rule:nonzero;fill:rgb(18.03894%,19.219971%,57.249451%);fill-opacity:1;" d="M 57.878906 34.320312 L 51.878906 32.320312 L 53.378906 34.320312 L 51.878906 36.320312 "/>
<path style="fill:none;stroke-width:5;stroke-linecap:butt;stroke-linejoin:miter;stroke:rgb(18.03894%,19.219971%,57.249451%);stroke-opacity:1;stroke-miterlimit:10;" d="M 398.789062 914.804688 L 578.789062 914.804688 " transform="matrix(0.1,0,0,-0.1,0,97)"/>
<path style=" stroke:none;fill-rule:nonzero;fill:rgb(18.03894%,19.219971%,57.249451%);fill-opacity:1;" d="M 57.878906 5.519531 L 51.878906 3.519531 L 53.378906 5.519531 L 51.878906 7.519531 "/>
<path style="fill:none;stroke-width:5;stroke-linecap:butt;stroke-linejoin:miter;stroke:rgb(18.03894%,19.219971%,57.249451%);stroke-opacity:1;stroke-miterlimit:10;" d="M 758.789062 50.820312 L 938.789062 50.820312 " transform="matrix(0.1,0,0,-0.1,0,97)"/>
<path style=" stroke:none;fill-rule:nonzero;fill:rgb(18.03894%,19.219971%,57.249451%);fill-opacity:1;" d="M 93.878906 91.917969 L 87.878906 89.917969 L 89.378906 91.917969 L 87.878906 93.917969 "/>
<path style="fill:none;stroke-width:5;stroke-linecap:butt;stroke-linejoin:miter;stroke:rgb(18.03894%,19.219971%,57.249451%);stroke-opacity:1;stroke-miterlimit:10;" d="M 758.789062 338.789062 L 938.789062 338.789062 " transform="matrix(0.1,0,0,-0.1,0,97)"/>
<path style=" stroke:none;fill-rule:nonzero;fill:rgb(18.03894%,19.219971%,57.249451%);fill-opacity:1;" d="M 93.878906 63.121094 L 87.878906 61.121094 L 89.378906 63.121094 L 87.878906 65.121094 "/>
<path style="fill:none;stroke-width:5;stroke-linecap:butt;stroke-linejoin:miter;stroke:rgb(18.03894%,19.219971%,57.249451%);stroke-opacity:1;stroke-miterlimit:10;" d="M 758.789062 626.796875 L 938.789062 626.796875 " transform="matrix(0.1,0,0,-0.1,0,97)"/>
<path style=" stroke:none;fill-rule:nonzero;fill:rgb(18.03894%,19.219971%,57.249451%);fill-opacity:1;" d="M 93.878906 34.320312 L 87.878906 32.320312 L 89.378906 34.320312 L 87.878906 36.320312 "/>
<path style="fill:none;stroke-width:5;stroke-linecap:butt;stroke-linejoin:miter;stroke:rgb(18.03894%,19.219971%,57.249451%);stroke-opacity:1;stroke-miterlimit:10;" d="M 758.789062 914.804688 L 938.789062 914.804688 " transform="matrix(0.1,0,0,-0.1,0,97)"/>
<path style=" stroke:none;fill-rule:nonzero;fill:rgb(18.03894%,19.219971%,57.249451%);fill-opacity:1;" d="M 93.878906 5.519531 L 87.878906 3.519531 L 89.378906 5.519531 L 87.878906 7.519531 "/>
<path style="fill:none;stroke-width:5;stroke-linecap:butt;stroke-linejoin:miter;stroke:rgb(18.03894%,19.219971%,57.249451%);stroke-opacity:1;stroke-miterlimit:10;" d="M 1118.789062 50.820312 L 1298.789062 50.820312 " transform="matrix(0.1,0,0,-0.1,0,97)"/>
<path style=" stroke:none;fill-rule:nonzero;fill:rgb(18.03894%,19.219971%,57.249451%);fill-opacity:1;" d="M 129.878906 91.917969 L 123.878906 89.917969 L 125.378906 91.917969 L 123.878906 93.917969 "/>
<path style="fill:none;stroke-width:5;stroke-linecap:butt;stroke-linejoin:miter;stroke:rgb(18.03894%,19.219971%,57.249451%);stroke-opacity:1;stroke-miterlimit:10;" d="M 1118.789062 338.789062 L 1298.789062 338.789062 " transform="matrix(0.1,0,0,-0.1,0,97)"/>
<path style=" stroke:none;fill-rule:nonzero;fill:rgb(18.03894%,19.219971%,57.249451%);fill-opacity:1;" d="M 129.878906 63.121094 L 123.878906 61.121094 L 125.378906 63.121094 L 123.878906 65.121094 "/>
<path style="fill:none;stroke-width:5;stroke-linecap:butt;stroke-linejoin:miter;stroke:rgb(18.03894%,19.219971%,57.249451%);stroke-opacity:1;stroke-miterlimit:10;" d="M 1118.789062 626.796875 L 1298.789062 626.796875 " transform="matrix(0.1,0,0,-0.1,0,97)"/>
<path style=" stroke:none;fill-rule:nonzero;fill:rgb(18.03894%,19.219971%,57.249451%);fill-opacity:1;" d="M 129.878906 34.320312 L 123.878906 32.320312 L 125.378906 34.320312 L 123.878906 36.320312 "/>
<path style="fill:none;stroke-width:5;stroke-linecap:butt;stroke-linejoin:miter;stroke:rgb(18.03894%,19.219971%,57.249451%);stroke-opacity:1;stroke-miterlimit:10;" d="M 1118.789062 914.804688 L 1298.789062 914.804688 " transform="matrix(0.1,0,0,-0.1,0,97)"/>
<path style=" stroke:none;fill-rule:nonzero;fill:rgb(18.03894%,19.219971%,57.249451%);fill-opacity:1;" d="M 129.878906 5.519531 L 123.878906 3.519531 L 125.378906 5.519531 L 123.878906 7.519531 "/>
<path style="fill:none;stroke-width:20;stroke-linecap:butt;stroke-linejoin:miter;stroke:rgb(92.939758%,10.978699%,14.118958%);stroke-opacity:1;stroke-miterlimit:10;" d="M 1010.78125 482.8125 C 1010.78125 681.601562 849.609375 842.8125 650.820312 842.8125 C 451.992188 842.8125 290.820312 681.601562 290.820312 482.8125 C 290.820312 283.984375 451.992188 122.8125 650.820312 122.8125 C 849.609375 122.8125 1010.78125 283.984375 1010.78125 482.8125 " transform="matrix(0.1,0,0,-0.1,0,97)"/>
<path style="fill:none;stroke-width:10;stroke-linecap:butt;stroke-linejoin:miter;stroke:rgb(13.729858%,12.159729%,12.548828%);stroke-opacity:1;stroke-miterlimit:10;" d="M 362.8125 482.8125 L 938.789062 482.8125 " transform="matrix(0.1,0,0,-0.1,0,97)"/>
<path style="fill:none;stroke-width:10;stroke-linecap:butt;stroke-linejoin:miter;stroke:rgb(13.729858%,12.159729%,12.548828%);stroke-opacity:1;stroke-miterlimit:10;" d="M 650.820312 194.804688 L 650.820312 770.820312 " transform="matrix(0.1,0,0,-0.1,0,97)"/>
<path style="fill:none;stroke-width:40;stroke-linecap:butt;stroke-linejoin:miter;stroke:rgb(13.729858%,12.159729%,12.548828%);stroke-opacity:1;stroke-miterlimit:10;" d="M 362.8125 482.8125 L 218.789062 482.8125 " transform="matrix(0.1,0,0,-0.1,0,97)"/>
<path style="fill:none;stroke-width:40;stroke-linecap:butt;stroke-linejoin:miter;stroke:rgb(13.729858%,12.159729%,12.548828%);stroke-opacity:1;stroke-miterlimit:10;" d="M 938.789062 482.8125 L 1082.8125 482.8125 " transform="matrix(0.1,0,0,-0.1,0,97)"/>
<path style="fill:none;stroke-width:40;stroke-linecap:butt;stroke-linejoin:miter;stroke:rgb(13.729858%,12.159729%,12.548828%);stroke-opacity:1;stroke-miterlimit:10;" d="M 650.820312 194.804688 L 650.820312 50.820312 " transform="matrix(0.1,0,0,-0.1,0,97)"/>
<path style="fill:none;stroke-width:40;stroke-linecap:butt;stroke-linejoin:miter;stroke:rgb(13.729858%,12.159729%,12.548828%);stroke-opacity:1;stroke-miterlimit:10;" d="M 650.820312 770.820312 L 650.820312 914.804688 " transform="matrix(0.1,0,0,-0.1,0,97)"/>
<path style=" stroke:none;fill-rule:nonzero;fill:rgb(13.729858%,12.159729%,12.548828%);fill-opacity:1;" d="M 68.679688 48.71875 C 68.679688 46.730469 67.066406 45.121094 65.082031 45.121094 C 63.09375 45.121094 61.480469 46.730469 61.480469 48.71875 C 61.480469 50.707031 63.09375 52.320312 65.082031 52.320312 C 67.066406 52.320312 68.679688 50.707031 68.679688 48.71875 "/>
</g>
</svg>
