<?xml version="1.0" encoding="UTF-8"?>
<svg xmlns="http://www.w3.org/2000/svg" xmlns:xlink="http://www.w3.org/1999/xlink" width="91pt" height="89pt" viewBox="0 0 91 89" version="1.1">
<g id="surface1">
<path style="fill:none;stroke-width:5;stroke-linecap:butt;stroke-linejoin:miter;stroke:rgb(18.03894%,19.219971%,57.249451%);stroke-opacity:1;stroke-miterlimit:10;" d="M 588.085938 560.078125 L 460.820312 687.34375 " transform="matrix(0.1,0,0,-0.1,0,89)"/>
<path style=" stroke:none;fill-rule:nonzero;fill:rgb(18.03894%,19.219971%,57.249451%);fill-opacity:1;" d="M 46.082031 20.265625 L 48.910156 25.921875 L 49.261719 23.445312 L 51.738281 23.09375 "/>
<path style="fill:none;stroke-width:5;stroke-linecap:butt;stroke-linejoin:miter;stroke:rgb(18.03894%,19.219971%,57.249451%);stroke-opacity:1;stroke-miterlimit:10;" d="M 333.515625 560.078125 L 206.25 432.8125 " transform="matrix(0.1,0,0,-0.1,0,89)"/>
<path style=" stroke:none;fill-rule:nonzero;fill:rgb(18.03894%,19.219971%,57.249451%);fill-opacity:1;" d="M 20.625 45.71875 L 26.28125 42.890625 L 23.804688 42.539062 L 23.453125 40.0625 "/>
<path style="fill:none;stroke-width:5;stroke-linecap:butt;stroke-linejoin:miter;stroke:rgb(18.03894%,19.219971%,57.249451%);stroke-opacity:1;stroke-miterlimit:10;" d="M 333.515625 305.507812 L 460.820312 178.242188 " transform="matrix(0.1,0,0,-0.1,0,89)"/>
<path style=" stroke:none;fill-rule:nonzero;fill:rgb(18.03894%,19.219971%,57.249451%);fill-opacity:1;" d="M 46.082031 71.175781 L 43.25 65.519531 L 42.898438 67.992188 L 40.421875 68.347656 "/>
<path style="fill:none;stroke-width:5;stroke-linecap:butt;stroke-linejoin:miter;stroke:rgb(18.03894%,19.219971%,57.249451%);stroke-opacity:1;stroke-miterlimit:10;" d="M 588.085938 305.507812 L 715.351562 432.8125 " transform="matrix(0.1,0,0,-0.1,0,89)"/>
<path style=" stroke:none;fill-rule:nonzero;fill:rgb(18.03894%,19.219971%,57.249451%);fill-opacity:1;" d="M 71.535156 45.71875 L 65.878906 48.546875 L 68.355469 48.902344 L 68.707031 51.378906 "/>
<path style="fill:none;stroke-width:5;stroke-linecap:butt;stroke-linejoin:miter;stroke:rgb(18.03894%,19.219971%,57.249451%);stroke-opacity:1;stroke-miterlimit:10;" d="M 820.820312 432.8125 L 820.820312 792.8125 " transform="matrix(0.1,0,0,-0.1,0,89)"/>
<path style=" stroke:none;fill-rule:nonzero;fill:rgb(18.03894%,19.219971%,57.249451%);fill-opacity:1;" d="M 82.082031 9.71875 L 80.082031 15.71875 L 82.082031 14.21875 L 84.082031 15.71875 "/>
<path style="fill:none;stroke-width:5;stroke-linecap:butt;stroke-linejoin:miter;stroke:rgb(18.03894%,19.219971%,57.249451%);stroke-opacity:1;stroke-miterlimit:10;" d="M 460.820312 792.8125 L 100.820312 792.8125 " transform="matrix(0.1,0,0,-0.1,0,89)"/>
<path style=" stroke:none;fill-rule:nonzero;fill:rgb(18.03894%,19.219971%,57.249451%);fill-opacity:1;" d="M 10.082031 9.71875 L 16.082031 11.71875 L 14.582031 9.71875 L 16.082031 7.71875 "/>
<path style="fill:none;stroke-width:5;stroke-linecap:butt;stroke-linejoin:miter;stroke:rgb(18.03894%,19.219971%,57.249451%);stroke-opacity:1;stroke-miterlimit:10;" d="M 100.820312 432.8125 L 100.820312 72.8125 " transform="matrix(0.1,0,0,-0.1,0,89)"/>
<path style=" stroke:none;fill-rule:nonzero;fill:rgb(18.03894%,19.219971%,57.249451%);fill-opacity:1;" d="M 10.082031 81.71875 L 12.082031 75.71875 L 10.082031 77.21875 L 8.082031 75.71875 "/>
<path style="fill:none;stroke-width:5;stroke-linecap:butt;stroke-linejoin:miter;stroke:rgb(18.03894%,19.219971%,57.249451%);stroke-opacity:1;stroke-miterlimit:10;" d="M 460.820312 72.8125 L 820.820312 72.8125 " transform="matrix(0.1,0,0,-0.1,0,89)"/>
<path style=" stroke:none;fill-rule:nonzero;fill:rgb(18.03894%,19.219971%,57.249451%);fill-opacity:1;" d="M 82.082031 81.71875 L 76.082031 79.71875 L 77.582031 81.71875 L 76.082031 83.71875 "/>
<path style="fill:none;stroke-width:20;stroke-linecap:butt;stroke-linejoin:miter;stroke:rgb(92.939758%,10.978699%,14.118958%);stroke-opacity:1;stroke-miterlimit:10;" d="M 820.820312 432.8125 C 820.820312 631.601562 659.609375 792.8125 460.820312 792.8125 C 261.992188 792.8125 100.820312 631.601562 100.820312 432.8125 C 100.820312 233.984375 261.992188 72.8125 460.820312 72.8125 C 659.609375 72.8125 820.820312 233.984375 820.820312 432.8125 " transform="matrix(0.1,0,0,-0.1,0,89)"/>
<path style="fill:none;stroke-width:10;stroke-linecap:butt;stroke-linejoin:miter;stroke:rgb(13.729858%,12.159729%,12.548828%);stroke-opacity:1;stroke-miterlimit:10;" d="M 172.8125 432.8125 L 748.789062 432.8125 " transform="matrix(0.1,0,0,-0.1,0,89)"/>
<path style="fill:none;stroke-width:10;stroke-linecap:butt;stroke-linejoin:miter;stroke:rgb(13.729858%,12.159729%,12.548828%);stroke-opacity:1;stroke-miterlimit:10;" d="M 460.820312 144.804688 L 460.820312 720.820312 " transform="matrix(0.1,0,0,-0.1,0,89)"/>
<path style="fill:none;stroke-width:40;stroke-linecap:butt;stroke-linejoin:miter;stroke:rgb(13.729858%,12.159729%,12.548828%);stroke-opacity:1;stroke-miterlimit:10;" d="M 172.8125 432.8125 L 28.789062 432.8125 " transform="matrix(0.1,0,0,-0.1,0,89)"/>
<path style="fill:none;stroke-width:40;stroke-linecap:butt;stroke-linejoin:miter;stroke:rgb(13.729858%,12.159729%,12.548828%);stroke-opacity:1;stroke-miterlimit:10;" d="M 748.789062 432.8125 L 892.8125 432.8125 " transform="matrix(0.1,0,0,-0.1,0,89)"/>
<path style="fill:none;stroke-width:40;stroke-linecap:butt;stroke-linejoin:miter;stroke:rgb(13.729858%,12.159729%,12.548828%);stroke-opacity:1;stroke-miterlimit:10;" d="M 460.820312 144.804688 L 460.820312 0.78125 " transform="matrix(0.1,0,0,-0.1,0,89)"/>
<path style="fill:none;stroke-width:40;stroke-linecap:butt;stroke-linejoin:miter;stroke:rgb(13.729858%,12.159729%,12.548828%);stroke-opacity:1;stroke-miterlimit:10;" d="M 460.820312 720.820312 L 460.820312 864.804688 " transform="matrix(0.1,0,0,-0.1,0,89)"/>
<path style=" stroke:none;fill-rule:nonzero;fill:rgb(13.729858%,12.159729%,12.548828%);fill-opacity:1;" d="M 49.679688 45.71875 C 49.679688 43.730469 48.066406 42.121094 46.082031 42.121094 C 44.09375 42.121094 42.480469 43.730469 42.480469 45.71875 C 42.480469 47.707031 44.09375 49.320312 46.082031 49.320312 C 48.066406 49.320312 49.679688 47.707031 49.679688 45.71875 "/>
</g>
</svg>
