<?xml version="1.0" encoding="UTF-8"?>
<svg xmlns="http://www.w3.org/2000/svg" xmlns:xlink="http://www.w3.org/1999/xlink" width="612pt" height="792pt" viewBox="0 0 612 792" version="1.1">
<g id="surface1">
<path style=" stroke:none;fill-rule:nonzero;fill:rgb(100%,100%,100%);fill-opacity:1;" d="M 259.015625 231.925781 C 258.324219 231.925781 257.722656 231.792969 257.222656 231.527344 C 256.71875 231.257812 256.328125 230.871094 256.0625 230.363281 C 255.789062 229.851562 255.65625 229.238281 255.65625 228.527344 C 255.65625 227.8125 255.789062 227.199219 256.0625 226.691406 C 256.328125 226.179688 256.71875 225.792969 257.222656 225.527344 C 257.722656 225.257812 258.324219 225.125 259.015625 225.125 C 259.789062 225.125 260.449219 225.289062 260.996094 225.621094 C 261.542969 225.949219 261.882812 226.453125 262.015625 227.125 L 260.015625 227.90625 C 259.960938 227.5 259.867188 227.226562 259.726562 227.085938 C 259.585938 226.945312 259.371094 226.875 259.074219 226.875 C 258.730469 226.875 258.46875 227.007812 258.296875 227.277344 C 258.121094 227.542969 258.035156 227.960938 258.035156 228.527344 C 258.035156 229.09375 258.121094 229.507812 258.285156 229.777344 C 258.453125 230.042969 258.707031 230.175781 259.054688 230.175781 C 259.371094 230.175781 259.597656 230.105469 259.734375 229.964844 C 259.875 229.824219 259.964844 229.59375 260.003906 229.277344 L 262.066406 229.804688 C 261.726562 231.21875 260.707031 231.925781 259.015625 231.925781 "/>
<path style=" stroke:none;fill-rule:nonzero;fill:rgb(100%,100%,100%);fill-opacity:1;" d="M 267.957031 230.117188 L 267.957031 231.824219 L 262.636719 231.824219 L 262.636719 225.226562 L 264.964844 225.226562 L 264.964844 230.117188 Z M 267.957031 230.117188 "/>
<path style=" stroke:none;fill-rule:nonzero;fill:rgb(100%,100%,100%);fill-opacity:1;" d="M 272.429688 227.976562 C 272.5625 227.875 272.625 227.71875 272.625 227.503906 C 272.625 227.292969 272.5625 227.136719 272.429688 227.035156 C 272.300781 226.9375 272.09375 226.886719 271.804688 226.886719 L 271.015625 226.886719 L 271.015625 228.125 L 271.804688 228.125 C 272.09375 228.125 272.300781 228.074219 272.429688 227.976562 M 274.953125 227.535156 C 274.953125 228.25 274.722656 228.792969 274.253906 229.164062 C 273.789062 229.539062 273.097656 229.726562 272.1875 229.726562 L 271.015625 229.726562 L 271.015625 231.824219 L 268.6875 231.824219 L 268.6875 225.226562 L 272.1875 225.226562 C 274.03125 225.226562 274.953125 225.996094 274.953125 227.535156 "/>
<path style=" stroke:none;fill-rule:nonzero;fill:rgb(100%,100%,100%);fill-opacity:1;" d="M 280.105469 229.054688 L 281.394531 229.054688 L 281.394531 227.777344 L 281.425781 226.675781 L 281.40625 226.675781 C 281.285156 227.015625 281.113281 227.371094 280.886719 227.746094 Z M 284.285156 230.566406 L 283.394531 230.566406 L 283.394531 231.828125 L 281.394531 231.828125 L 281.394531 230.566406 L 278.003906 230.566406 L 278.003906 229.605469 L 280.707031 225.226562 L 283.394531 225.226562 L 283.394531 229.054688 L 284.285156 229.054688 Z M 284.285156 230.566406 "/>
<path style=" stroke:none;fill-rule:nonzero;fill:rgb(100%,100%,100%);fill-opacity:1;" d="M 284.785156 274.824219 L 268.164062 274.824219 L 254.785156 235.226562 L 269.367188 235.226562 L 274.824219 256.886719 L 276.746094 264.625 L 278.546875 257.003906 L 284.125 235.226562 L 298.164062 235.226562 Z M 284.785156 274.824219 "/>
<path style=" stroke:none;fill-rule:nonzero;fill:rgb(100%,100%,100%);fill-opacity:1;" d="M 334.285156 264.566406 L 334.285156 274.824219 L 300.683594 274.824219 L 300.683594 235.226562 L 333.5625 235.226562 L 333.5625 245.484375 L 314.664062 245.484375 L 314.664062 250.40625 L 329.90625 250.40625 L 329.90625 259.886719 L 314.664062 259.886719 L 314.664062 264.566406 Z M 334.285156 264.566406 "/>
<path style=" stroke:none;fill-rule:nonzero;fill:rgb(100%,100%,100%);fill-opacity:1;" d="M 357.144531 275.425781 C 352.984375 275.425781 349.394531 274.625 346.375 273.027344 C 343.355469 271.425781 341.035156 269.09375 339.414062 266.035156 C 337.792969 262.976562 336.984375 259.304688 336.984375 255.027344 C 336.984375 250.746094 337.792969 247.074219 339.414062 244.015625 C 341.035156 240.957031 343.355469 238.625 346.375 237.027344 C 349.394531 235.425781 352.984375 234.625 357.144531 234.625 C 361.785156 234.625 365.742188 235.617188 369.023438 237.59375 C 372.304688 239.574219 374.34375 242.585938 375.144531 246.625 L 363.144531 251.304688 C 362.824219 248.867188 362.246094 247.226562 361.40625 246.386719 C 360.5625 245.546875 359.265625 245.125 357.503906 245.125 C 355.421875 245.125 353.863281 245.925781 352.824219 247.527344 C 351.785156 249.125 351.265625 251.625 351.265625 255.027344 C 351.265625 258.425781 351.765625 260.925781 352.765625 262.527344 C 353.765625 264.125 355.304688 264.925781 357.382812 264.925781 C 359.265625 264.925781 360.625 264.503906 361.464844 263.664062 C 362.304688 262.824219 362.84375 261.445312 363.082031 259.527344 L 375.445312 262.707031 C 373.40625 271.1875 367.304688 275.425781 357.144531 275.425781 "/>
<path style=" stroke:none;fill-rule:nonzero;fill:rgb(100%,100%,100%);fill-opacity:1;" d="M 415.824219 245.484375 L 403.464844 245.484375 L 403.464844 274.824219 L 389.484375 274.824219 L 389.484375 245.484375 L 377.0625 245.484375 L 377.0625 235.226562 L 415.824219 235.226562 Z M 415.824219 245.484375 "/>
<path style=" stroke:none;fill-rule:nonzero;fill:rgb(100%,100%,100%);fill-opacity:1;" d="M 432.652344 247.496094 C 431.714844 249.078125 431.242188 251.585938 431.242188 255.027344 C 431.242188 258.464844 431.714844 260.976562 432.652344 262.558594 C 433.589844 264.136719 435.082031 264.925781 437.125 264.925781 C 439.164062 264.925781 440.640625 264.136719 441.5625 262.558594 C 442.484375 260.976562 442.945312 258.464844 442.945312 255.027344 C 442.945312 251.585938 442.484375 249.078125 441.5625 247.496094 C 440.640625 245.914062 439.164062 245.125 437.125 245.125 C 435.082031 245.125 433.589844 245.914062 432.652344 247.496094 M 451.914062 239.996094 C 455.453125 243.574219 457.222656 248.585938 457.222656 255.027344 C 457.222656 261.464844 455.453125 266.476562 451.914062 270.058594 C 448.375 273.636719 443.441406 275.425781 437.125 275.425781 C 432.960938 275.425781 429.375 274.625 426.351562 273.027344 C 423.332031 271.425781 421.011719 269.09375 419.390625 266.035156 C 417.773438 262.976562 416.964844 259.308594 416.964844 255.027344 C 416.964844 250.746094 417.773438 247.074219 419.390625 244.015625 C 421.011719 240.957031 423.332031 238.625 426.351562 237.027344 C 429.375 235.425781 432.960938 234.625 437.125 234.625 C 443.441406 234.625 448.375 236.417969 451.914062 239.996094 "/>
<path style=" stroke:none;fill-rule:nonzero;fill:rgb(100%,100%,100%);fill-opacity:1;" d="M 475.644531 252.503906 L 480.621094 252.503906 C 482.382812 252.503906 483.632812 252.234375 484.371094 251.695312 C 485.113281 251.15625 485.484375 250.207031 485.484375 248.84375 C 485.484375 247.527344 485.113281 246.585938 484.371094 246.027344 C 483.632812 245.464844 482.382812 245.1875 480.621094 245.1875 L 475.644531 245.1875 Z M 479.484375 261.6875 L 475.644531 261.6875 L 475.644531 274.824219 L 461.960938 274.824219 L 461.960938 235.226562 L 483.441406 235.226562 C 488.722656 235.226562 492.710938 236.335938 495.414062 238.554688 C 498.113281 240.777344 499.460938 244.085938 499.460938 248.484375 C 499.460938 254.285156 497.082031 258.1875 492.324219 260.1875 L 501.683594 274.824219 L 486.5 274.824219 Z M 479.484375 261.6875 "/>
<path style=" stroke:none;fill-rule:nonzero;fill:rgb(100%,100%,100%);fill-opacity:1;" d="M 274.765625 320.425781 C 270.605469 320.425781 267.015625 319.625 263.996094 318.027344 C 260.976562 316.425781 258.65625 314.09375 257.035156 311.035156 C 255.414062 307.976562 254.605469 304.304688 254.605469 300.027344 C 254.605469 295.746094 255.414062 292.074219 257.035156 289.015625 C 258.65625 285.957031 260.976562 283.625 263.996094 282.027344 C 267.015625 280.425781 270.605469 279.625 274.765625 279.625 C 279.40625 279.625 283.367188 280.617188 286.644531 282.59375 C 289.925781 284.574219 291.964844 287.585938 292.765625 291.625 L 280.765625 296.304688 C 280.445312 293.867188 279.867188 292.226562 279.027344 291.386719 C 278.1875 290.546875 276.886719 290.125 275.125 290.125 C 273.042969 290.125 271.484375 290.925781 270.445312 292.527344 C 269.40625 294.125 268.886719 296.625 268.886719 300.027344 C 268.886719 303.425781 269.386719 305.925781 270.386719 307.527344 C 271.386719 309.125 272.925781 309.925781 275.003906 309.925781 C 276.886719 309.925781 278.246094 309.503906 279.085938 308.664062 C 279.925781 307.824219 280.464844 306.445312 280.703125 304.527344 L 293.066406 307.707031 C 291.027344 316.1875 284.925781 320.425781 274.765625 320.425781 "/>
<path style=" stroke:none;fill-rule:nonzero;fill:rgb(100%,100%,100%);fill-opacity:1;" d="M 317.304688 303.566406 L 314.125 290.367188 L 313.945312 290.367188 L 312.386719 297.085938 L 310.765625 303.566406 Z M 319.34375 312.265625 L 308.664062 312.265625 L 306.804688 319.824219 L 292.886719 319.824219 L 305.726562 280.226562 L 322.523438 280.226562 L 335.425781 319.824219 L 321.144531 319.824219 Z M 319.34375 312.265625 "/>
<path style=" stroke:none;fill-rule:nonzero;fill:rgb(100%,100%,100%);fill-opacity:1;" d="M 369.746094 309.566406 L 369.746094 319.824219 L 337.824219 319.824219 L 337.824219 280.226562 L 351.804688 280.226562 L 351.804688 309.566406 Z M 369.746094 309.566406 "/>
<path style=" stroke:none;fill-rule:nonzero;fill:rgb(100%,100%,100%);fill-opacity:1;" d="M 391.824219 320.425781 C 387.664062 320.425781 384.074219 319.625 381.054688 318.027344 C 378.035156 316.425781 375.714844 314.09375 374.09375 311.035156 C 372.472656 307.976562 371.664062 304.304688 371.664062 300.027344 C 371.664062 295.746094 372.472656 292.074219 374.09375 289.015625 C 375.714844 285.957031 378.035156 283.625 381.054688 282.027344 C 384.074219 280.425781 387.664062 279.625 391.824219 279.625 C 396.464844 279.625 400.425781 280.617188 403.707031 282.59375 C 406.984375 284.574219 409.023438 287.585938 409.824219 291.625 L 397.824219 296.304688 C 397.503906 293.867188 396.925781 292.226562 396.085938 291.386719 C 395.246094 290.546875 393.945312 290.125 392.183594 290.125 C 390.105469 290.125 388.546875 290.925781 387.503906 292.527344 C 386.464844 294.125 385.945312 296.625 385.945312 300.027344 C 385.945312 303.425781 386.445312 305.925781 387.445312 307.527344 C 388.445312 309.125 389.984375 309.925781 392.066406 309.925781 C 393.945312 309.925781 395.304688 309.503906 396.144531 308.664062 C 396.984375 307.824219 397.523438 306.445312 397.765625 304.527344 L 410.125 307.707031 C 408.085938 316.1875 401.984375 320.425781 391.824219 320.425781 "/>
<path style=" stroke:none;fill-rule:nonzero;fill:rgb(100%,100%,100%);fill-opacity:1;" d="M 450.925781 302.785156 C 450.925781 314.546875 444.542969 320.425781 431.785156 320.425781 C 419.023438 320.425781 412.644531 314.546875 412.644531 302.785156 L 412.644531 280.226562 L 426.683594 280.226562 L 426.683594 303.867188 C 426.683594 305.867188 427.113281 307.375 427.976562 308.394531 C 428.835938 309.414062 430.105469 309.925781 431.785156 309.925781 C 433.464844 309.925781 434.742188 309.414062 435.625 308.394531 C 436.503906 307.375 436.945312 305.867188 436.945312 303.867188 L 436.945312 280.226562 L 450.925781 280.226562 Z M 450.925781 302.785156 "/>
<path style=" stroke:none;fill-rule:nonzero;fill:rgb(100%,100%,100%);fill-opacity:1;" d="M 487.945312 309.566406 L 487.945312 319.824219 L 456.023438 319.824219 L 456.023438 280.226562 L 470.003906 280.226562 L 470.003906 309.566406 Z M 487.945312 309.566406 "/>
<path style=" stroke:none;fill-rule:nonzero;fill:rgb(100%,100%,100%);fill-opacity:1;" d="M 529.703125 302.785156 C 529.703125 314.546875 523.324219 320.425781 510.5625 320.425781 C 497.804688 320.425781 491.425781 314.546875 491.425781 302.785156 L 491.425781 280.226562 L 505.464844 280.226562 L 505.464844 303.867188 C 505.464844 305.867188 505.890625 307.375 506.753906 308.394531 C 507.613281 309.414062 508.882812 309.925781 510.5625 309.925781 C 512.242188 309.925781 513.523438 309.414062 514.402344 308.394531 C 515.28125 307.375 515.722656 305.867188 515.722656 303.867188 L 515.722656 280.226562 L 529.703125 280.226562 Z M 529.703125 302.785156 "/>
<path style=" stroke:none;fill-rule:nonzero;fill:rgb(100%,100%,100%);fill-opacity:1;" d="M 562.042969 281.003906 C 564.804688 281.925781 567.542969 283.566406 570.261719 285.925781 L 564.144531 294.625 C 562.34375 292.945312 560.511719 291.734375 558.652344 290.996094 C 556.792969 290.257812 554.722656 289.886719 552.441406 289.886719 C 551.042969 289.886719 549.921875 290.09375 549.082031 290.515625 C 548.242188 290.9375 547.824219 291.484375 547.824219 292.164062 C 547.824219 292.605469 548.222656 292.945312 549.023438 293.1875 C 549.820312 293.425781 551.222656 293.726562 553.222656 294.085938 C 559.023438 295.125 563.191406 296.695312 565.734375 298.796875 C 568.273438 300.898438 569.542969 303.847656 569.542969 307.648438 C 569.542969 310.367188 568.761719 312.6875 567.203125 314.605469 C 565.644531 316.527344 563.523438 317.976562 560.84375 318.957031 C 558.164062 319.933594 555.164062 320.425781 551.84375 320.425781 C 547.164062 320.425781 543.421875 319.984375 540.625 319.105469 C 537.820312 318.226562 535.082031 316.804688 532.402344 314.84375 L 538.402344 305.367188 C 540.082031 307.007812 541.921875 308.214844 543.921875 308.996094 C 545.921875 309.777344 548.222656 310.164062 550.824219 310.164062 C 553.742188 310.164062 555.203125 309.566406 555.203125 308.367188 C 555.203125 307.726562 554.742188 307.246094 553.824219 306.925781 C 552.902344 306.605469 551.402344 306.265625 549.324219 305.90625 C 546.28125 305.347656 543.691406 304.707031 541.554688 303.984375 C 539.414062 303.265625 537.53125 302.046875 535.914062 300.324219 C 534.292969 298.605469 533.484375 296.246094 533.484375 293.246094 C 533.484375 290.527344 534.203125 288.148438 535.644531 286.105469 C 537.082031 284.066406 539.191406 282.476562 541.972656 281.335938 C 544.753906 280.195312 548.101562 279.625 552.023438 279.625 C 555.941406 279.625 559.28125 280.085938 562.042969 281.003906 "/>
<path style=" stroke:none;fill-rule:nonzero;fill:rgb(100%,100%,100%);fill-opacity:1;" d="M 258.195312 324.9375 L 258.195312 325.855469 L 260.734375 325.855469 L 260.734375 327.566406 L 258.195312 327.566406 L 258.195312 329.824219 L 255.867188 329.824219 L 255.867188 323.226562 L 261.335938 323.226562 L 261.335938 324.9375 Z M 258.195312 324.9375 "/>
<path style=" stroke:none;fill-rule:nonzero;fill:rgb(100%,100%,100%);fill-opacity:1;" d="M 267.605469 328.117188 L 267.605469 329.824219 L 262.003906 329.824219 L 262.003906 323.226562 L 267.484375 323.226562 L 267.484375 324.9375 L 264.335938 324.9375 L 264.335938 325.753906 L 266.875 325.753906 L 266.875 327.335938 L 264.335938 327.335938 L 264.335938 328.117188 Z M 267.605469 328.117188 "/>
<path style=" stroke:none;fill-rule:nonzero;fill:rgb(100%,100%,100%);fill-opacity:1;" d="M 273.585938 328.117188 L 273.585938 329.824219 L 268.265625 329.824219 L 268.265625 323.226562 L 270.597656 323.226562 L 270.597656 328.117188 Z M 273.585938 328.117188 "/>
<path style=" stroke:none;fill-rule:nonzero;fill:rgb(100%,100%,100%);fill-opacity:1;" d="M 278.074219 327.785156 C 278.226562 327.53125 278.304688 327.113281 278.304688 326.527344 C 278.304688 325.9375 278.226562 325.519531 278.074219 325.265625 C 277.921875 325.011719 277.636719 324.886719 277.226562 324.886719 L 276.644531 324.886719 L 276.644531 328.164062 L 277.226562 328.164062 C 277.636719 328.164062 277.921875 328.039062 278.074219 327.785156 M 279.890625 324.082031 C 280.421875 324.652344 280.683594 325.464844 280.683594 326.527344 C 280.683594 327.585938 280.421875 328.402344 279.890625 328.96875 C 279.359375 329.539062 278.582031 329.824219 277.554688 329.824219 L 274.316406 329.824219 L 274.316406 323.226562 L 277.554688 323.226562 C 278.582031 323.226562 279.359375 323.511719 279.890625 324.082031 "/>
<path style=" stroke:none;fill-rule:nonzero;fill:rgb(100%,100%,100%);fill-opacity:1;" d="M 289.957031 329.824219 L 287.925781 329.824219 L 287.925781 327.535156 L 287.957031 325.316406 L 287.925781 325.316406 L 286.644531 329.824219 L 284.785156 329.824219 L 283.523438 325.316406 L 283.484375 325.316406 L 283.515625 327.535156 L 283.515625 329.824219 L 281.476562 329.824219 L 281.476562 323.226562 L 284.734375 323.226562 L 285.496094 326.15625 L 285.785156 327.386719 L 285.804688 327.386719 L 286.097656 326.15625 L 286.855469 323.226562 L 289.957031 323.226562 Z M 289.957031 329.824219 "/>
<path style=" stroke:none;fill-rule:nonzero;fill:rgb(100%,100%,100%);fill-opacity:1;" d="M 294.425781 327.117188 L 293.894531 324.914062 L 293.863281 324.914062 L 293.605469 326.035156 L 293.335938 327.117188 Z M 294.765625 328.566406 L 292.984375 328.566406 L 292.675781 329.824219 L 290.355469 329.824219 L 292.496094 323.226562 L 295.292969 323.226562 L 297.445312 329.824219 L 295.066406 329.824219 Z M 294.765625 328.566406 "/>
<path style=" stroke:none;fill-rule:nonzero;fill:rgb(100%,100%,100%);fill-opacity:1;" d="M 304.304688 329.824219 L 301.785156 329.824219 L 300.203125 326.824219 L 299.84375 326.015625 L 299.824219 326.015625 L 299.867188 327.375 L 299.867188 329.824219 L 297.84375 329.824219 L 297.84375 323.226562 L 300.367188 323.226562 L 301.945312 326.234375 L 302.304688 327.035156 L 302.324219 327.035156 L 302.285156 325.675781 L 302.285156 323.226562 L 304.304688 323.226562 Z M 304.304688 329.824219 "/>
<path style=" stroke:none;fill-rule:nonzero;fill:rgb(100%,100%,100%);fill-opacity:1;" d="M 317.585938 326.105469 L 318.414062 326.105469 C 318.707031 326.105469 318.917969 326.0625 319.039062 325.96875 C 319.164062 325.878906 319.226562 325.722656 319.226562 325.496094 C 319.226562 325.277344 319.164062 325.117188 319.039062 325.027344 C 318.917969 324.933594 318.707031 324.886719 318.414062 324.886719 L 317.585938 324.886719 Z M 318.226562 327.636719 L 317.585938 327.636719 L 317.585938 329.824219 L 315.304688 329.824219 L 315.304688 323.226562 L 318.886719 323.226562 C 319.765625 323.226562 320.429688 323.410156 320.878906 323.78125 C 321.332031 324.152344 321.554688 324.703125 321.554688 325.4375 C 321.554688 326.402344 321.15625 327.050781 320.363281 327.386719 L 321.925781 329.824219 L 319.394531 329.824219 Z M 318.226562 327.636719 "/>
<path style=" stroke:none;fill-rule:nonzero;fill:rgb(100%,100%,100%);fill-opacity:1;" d="M 327.957031 328.117188 L 327.957031 329.824219 L 322.355469 329.824219 L 322.355469 323.226562 L 327.835938 323.226562 L 327.835938 324.9375 L 324.683594 324.9375 L 324.683594 325.753906 L 327.226562 325.753906 L 327.226562 327.335938 L 324.683594 327.335938 L 324.683594 328.117188 Z M 327.957031 328.117188 "/>
<path style=" stroke:none;fill-rule:nonzero;fill:rgb(100%,100%,100%);fill-opacity:1;" d="M 331.765625 329.925781 C 331.070312 329.925781 330.472656 329.792969 329.96875 329.527344 C 329.46875 329.257812 329.078125 328.871094 328.808594 328.363281 C 328.539062 327.851562 328.40625 327.238281 328.40625 326.527344 C 328.40625 325.8125 328.539062 325.199219 328.808594 324.691406 C 329.078125 324.179688 329.46875 323.792969 329.96875 323.527344 C 330.472656 323.257812 331.070312 323.125 331.765625 323.125 C 332.539062 323.125 333.199219 323.289062 333.746094 323.621094 C 334.292969 323.949219 334.632812 324.453125 334.765625 325.125 L 332.765625 325.90625 C 332.710938 325.5 332.617188 325.226562 332.476562 325.085938 C 332.335938 324.945312 332.117188 324.875 331.824219 324.875 C 331.480469 324.875 331.21875 325.007812 331.042969 325.277344 C 330.871094 325.542969 330.785156 325.960938 330.785156 326.527344 C 330.785156 327.09375 330.867188 327.507812 331.035156 327.777344 C 331.203125 328.042969 331.457031 328.175781 331.804688 328.175781 C 332.117188 328.175781 332.34375 328.105469 332.484375 327.964844 C 332.625 327.824219 332.714844 327.59375 332.753906 327.277344 L 334.816406 327.804688 C 334.476562 329.21875 333.457031 329.925781 331.765625 329.925781 "/>
<path style=" stroke:none;fill-rule:nonzero;fill:rgb(100%,100%,100%);fill-opacity:1;" d="M 341.855469 323.226562 L 341.855469 329.828125 L 339.523438 329.828125 L 339.523438 327.367188 L 337.714844 327.367188 L 337.714844 329.828125 L 335.382812 329.828125 L 335.382812 323.226562 L 337.714844 323.226562 L 337.714844 325.65625 L 339.523438 325.65625 L 339.523438 323.226562 Z M 341.855469 323.226562 "/>
<path style=" stroke:none;fill-rule:nonzero;fill:rgb(100%,100%,100%);fill-opacity:1;" d="M 349.316406 329.824219 L 346.792969 329.824219 L 345.214844 326.824219 L 344.855469 326.015625 L 344.835938 326.015625 L 344.875 327.375 L 344.875 329.824219 L 342.855469 329.824219 L 342.855469 323.226562 L 345.375 323.226562 L 346.957031 326.234375 L 347.316406 327.035156 L 347.335938 327.035156 L 347.292969 325.675781 L 347.292969 323.226562 L 349.316406 323.226562 Z M 349.316406 329.824219 "/>
<path style=" stroke:none;fill-rule:nonzero;fill:rgb(100%,100%,100%);fill-opacity:1;" d="M 352.644531 329.824219 L 350.316406 329.824219 L 350.316406 323.226562 L 352.644531 323.226562 Z M 352.644531 329.824219 "/>
<path style=" stroke:none;fill-rule:nonzero;fill:rgb(100%,100%,100%);fill-opacity:1;" d="M 359.804688 324.9375 L 357.742188 324.9375 L 357.742188 329.824219 L 355.414062 329.824219 L 355.414062 324.9375 L 353.34375 324.9375 L 353.34375 323.226562 L 359.804688 323.226562 Z M 359.804688 324.9375 "/>
<path style=" stroke:none;fill-rule:nonzero;fill:rgb(100%,100%,100%);fill-opacity:1;" d="M 366.226562 328.164062 L 366.226562 329.824219 L 360.253906 329.824219 L 360.253906 328.234375 L 363.605469 324.886719 L 360.292969 324.886719 L 360.292969 323.226562 L 366.113281 323.226562 L 366.113281 324.816406 L 362.785156 328.164062 Z M 366.226562 328.164062 "/>
<path style=" stroke:none;fill-rule:nonzero;fill:rgb(100%,100%,100%);fill-opacity:1;" d="M 372.476562 328.117188 L 372.476562 329.824219 L 366.875 329.824219 L 366.875 323.226562 L 372.355469 323.226562 L 372.355469 324.9375 L 369.203125 324.9375 L 369.203125 325.753906 L 371.746094 325.753906 L 371.746094 327.335938 L 369.203125 327.335938 L 369.203125 328.117188 Z M 372.476562 328.117188 "/>
<path style=" stroke:none;fill-rule:nonzero;fill:rgb(100%,100%,100%);fill-opacity:1;" d="M 375.414062 326.105469 L 376.246094 326.105469 C 376.539062 326.105469 376.746094 326.0625 376.871094 325.96875 C 376.992188 325.878906 377.054688 325.722656 377.054688 325.496094 C 377.054688 325.277344 376.992188 325.117188 376.871094 325.027344 C 376.746094 324.933594 376.539062 324.886719 376.246094 324.886719 L 375.414062 324.886719 Z M 376.054688 327.636719 L 375.414062 327.636719 L 375.414062 329.824219 L 373.132812 329.824219 L 373.132812 323.226562 L 376.714844 323.226562 C 377.59375 323.226562 378.257812 323.410156 378.710938 323.78125 C 379.160156 324.152344 379.382812 324.703125 379.382812 325.4375 C 379.382812 326.402344 378.988281 327.050781 378.195312 327.386719 L 379.753906 329.824219 L 377.222656 329.824219 Z M 376.054688 327.636719 "/>
<path style=" stroke:none;fill-rule:nonzero;fill:rgb(100%,100%,100%);fill-opacity:1;" d="M 394.414062 327.535156 L 394.414062 329.824219 L 392.085938 329.824219 L 392.085938 327.535156 L 389.773438 323.226562 L 392.09375 323.226562 L 392.792969 324.734375 L 393.265625 325.9375 L 393.734375 324.734375 L 394.433594 323.226562 L 396.722656 323.226562 Z M 394.414062 327.535156 "/>
<path style=" stroke:none;fill-rule:nonzero;fill:rgb(100%,100%,100%);fill-opacity:1;" d="M 402.914062 328.117188 L 402.914062 329.824219 L 397.3125 329.824219 L 397.3125 323.226562 L 402.792969 323.226562 L 402.792969 324.9375 L 399.644531 324.9375 L 399.644531 325.753906 L 402.183594 325.753906 L 402.183594 327.335938 L 399.644531 327.335938 L 399.644531 328.117188 Z M 402.914062 328.117188 "/>
<path style=" stroke:none;fill-rule:nonzero;fill:rgb(100%,100%,100%);fill-opacity:1;" d="M 407.042969 327.117188 L 406.515625 324.914062 L 406.484375 324.914062 L 406.222656 326.035156 L 405.953125 327.117188 Z M 407.382812 328.566406 L 405.605469 328.566406 L 405.292969 329.824219 L 402.972656 329.824219 L 405.113281 323.226562 L 407.914062 323.226562 L 410.066406 329.824219 L 407.683594 329.824219 Z M 407.382812 328.566406 "/>
<path style=" stroke:none;fill-rule:nonzero;fill:rgb(100%,100%,100%);fill-opacity:1;" d="M 413.414062 326.105469 L 416.472656 326.105469 L 416.472656 329.824219 L 414.933594 329.824219 L 414.851562 329.074219 C 414.515625 329.640625 413.917969 329.925781 413.0625 329.925781 C 412.484375 329.925781 411.960938 329.796875 411.5 329.539062 C 411.035156 329.285156 410.667969 328.902344 410.398438 328.394531 C 410.128906 327.890625 409.996094 327.273438 409.996094 326.546875 C 409.996094 325.464844 410.296875 324.625 410.898438 324.027344 C 411.503906 323.425781 412.339844 323.125 413.414062 323.125 C 414.234375 323.125 414.886719 323.265625 415.371094 323.546875 C 415.851562 323.824219 416.226562 324.289062 416.496094 324.9375 L 414.324219 325.714844 C 414.238281 325.15625 413.960938 324.875 413.496094 324.875 C 413.105469 324.875 412.824219 325.007812 412.644531 325.269531 C 412.464844 325.535156 412.375 325.953125 412.375 326.527344 C 412.375 327.140625 412.472656 327.578125 412.664062 327.839844 C 412.855469 328.105469 413.160156 328.234375 413.574219 328.234375 C 413.867188 328.234375 414.097656 328.175781 414.269531 328.0625 C 414.4375 327.945312 414.523438 327.773438 414.523438 327.546875 L 414.523438 327.535156 L 413.414062 327.535156 Z M 413.414062 326.105469 "/>
<path style=" stroke:none;fill-rule:nonzero;fill:rgb(100%,100%,100%);fill-opacity:1;" d="M 423.023438 328.117188 L 423.023438 329.824219 L 417.421875 329.824219 L 417.421875 323.226562 L 422.90625 323.226562 L 422.90625 324.9375 L 419.753906 324.9375 L 419.753906 325.753906 L 422.292969 325.753906 L 422.292969 327.335938 L 419.753906 327.335938 L 419.753906 328.117188 Z M 423.023438 328.117188 "/>
<path style=" stroke:none;fill-rule:nonzero;fill:rgb(100%,100%,100%);fill-opacity:1;" d="M 425.964844 326.105469 L 426.792969 326.105469 C 427.085938 326.105469 427.296875 326.0625 427.417969 325.96875 C 427.542969 325.878906 427.605469 325.722656 427.605469 325.496094 C 427.605469 325.277344 427.542969 325.117188 427.417969 325.027344 C 427.296875 324.933594 427.085938 324.886719 426.792969 324.886719 L 425.964844 324.886719 Z M 426.605469 327.636719 L 425.964844 327.636719 L 425.964844 329.824219 L 423.683594 329.824219 L 423.683594 323.226562 L 427.265625 323.226562 C 428.144531 323.226562 428.808594 323.410156 429.257812 323.78125 C 429.710938 324.152344 429.933594 324.703125 429.933594 325.4375 C 429.933594 326.402344 429.535156 327.050781 428.742188 327.386719 L 430.304688 329.824219 L 427.773438 329.824219 Z M 426.605469 327.636719 "/>
<rect x="0" y="0" width="612" height="792" style="fill:rgb(15.789795%,38.938904%,55.982971%);fill-opacity:1;stroke:none;"/>
<path style="fill:none;stroke-width:1;stroke-linecap:butt;stroke-linejoin:miter;stroke:rgb(100%,100%,100%);stroke-opacity:1;stroke-miterlimit:4;" d="M 0.00181875 -0.00131875 C 0.00181875 -0.00131875 733.20885 -277.321631 1344.497912 -850.942725 C 1531.572131 -1026.485694 1544.747912 -1171.688819 1362.822131 -1164.02085 " transform="matrix(1,0,0,-1,-589.4276,-398.1146)"/>
<path style="fill:none;stroke-width:1;stroke-linecap:butt;stroke-linejoin:miter;stroke:rgb(100%,100%,100%);stroke-opacity:1;stroke-miterlimit:4;" d="M -0.000175 -0.00033125 C -0.000175 -0.00033125 728.238106 -316.910487 1269.480294 -897.187831 C 1435.117013 -1074.769862 1421.214669 -1209.894862 1228.753731 -1187.69955 " transform="matrix(1,0,0,-1,-455.3592,-421.7933)"/>
<path style="fill:none;stroke-width:1;stroke-linecap:butt;stroke-linejoin:miter;stroke:rgb(100%,100%,100%);stroke-opacity:1;stroke-miterlimit:4;" d="M 0.00179375 0.00161875 C 0.00179375 0.00161875 715.322106 -353.037444 1180.607262 -933.639006 C 1323.001794 -1111.3226 1282.169762 -1234.896819 1081.275231 -1198.41635 " transform="matrix(1,0,0,-1,-307.8807,-432.5101)"/>
<path style="fill:none;stroke-width:1;stroke-linecap:butt;stroke-linejoin:miter;stroke:rgb(100%,100%,100%);stroke-opacity:1;stroke-miterlimit:4;" d="M -0.0001625 -0.0003625 C -0.0001625 -0.0003625 694.6014 -385.312862 1078.855306 -959.902706 C 1196.44515 -1135.746456 1129.136556 -1246.422237 921.995931 -1196.05505 " transform="matrix(1,0,0,-1,-148.6014,-430.1488)"/>
<path style="fill:none;stroke-width:1;stroke-linecap:butt;stroke-linejoin:miter;stroke:rgb(100%,100%,100%);stroke-opacity:1;stroke-miterlimit:4;" d="M -0.00111875 0.000575 C -0.00111875 0.000575 666.299662 -413.378331 965.3231 -975.690831 C 1056.834819 -1147.776769 963.776225 -1244.343175 752.655131 -1180.64005 " transform="matrix(1,0,0,-1,20.7394,-414.7338)"/>
<path style="fill:none;stroke-width:1;stroke-linecap:butt;stroke-linejoin:miter;stroke:rgb(100%,100%,100%);stroke-opacity:1;stroke-miterlimit:4;" d="M -0.00113125 -0.00080625 C -0.00113125 -0.00080625 630.725431 -436.938306 841.260588 -980.832837 C 905.690275 -1147.282056 787.897306 -1228.6844 575.100431 -1152.34065 " transform="matrix(1,0,0,-1,198.2941,-386.4344)"/>
<path style="fill:none;stroke-width:1;stroke-linecap:butt;stroke-linejoin:miter;stroke:rgb(100%,100%,100%);stroke-opacity:1;stroke-miterlimit:4;" d="M -0.0002 -0.00080625 C -0.0002 -0.00080625 588.269331 -455.727369 708.015425 -975.266431 C 744.659956 -1134.262525 603.425581 -1199.617994 391.269331 -1111.46565 " transform="matrix(1,0,0,-1,382.1252,-345.5594)"/>
<path style="fill:none;stroke-width:1;stroke-linecap:butt;stroke-linejoin:miter;stroke:rgb(100%,100%,100%);stroke-opacity:1;stroke-miterlimit:4;" d="M -0.0001375 0.0005875 C -0.0001375 0.0005875 539.390487 -469.542381 567.042831 -959.061912 C 575.503769 -1108.870506 412.363144 -1157.456444 203.167831 -1058.46035 " transform="matrix(1,0,0,-1,570.2267,-292.5541)"/>
<path style="fill:none;stroke-width:1;stroke-linecap:butt;stroke-linejoin:miter;stroke:rgb(100%,100%,100%);stroke-opacity:1;stroke-miterlimit:4;" d="M 0.00183125 -0.0008875 C 0.00183125 -0.0008875 -716.302856 351.010831 -1186.216919 931.768644 C -1330.021606 1109.499112 -1290.771606 1233.795987 -1090.310669 1198.14755 " transform="matrix(1,0,0,-1,1863.7052,1964.0538)"/>
<path style="fill:none;stroke-width:1;stroke-linecap:butt;stroke-linejoin:miter;stroke:rgb(100%,100%,100%);stroke-opacity:1;stroke-miterlimit:4;" d="M -0.00108125 -0.00084375 C -0.00108125 -0.00084375 -696.036237 383.522594 -1085.188581 958.643687 C -1204.282331 1134.647594 -1138.516706 1246.12025 -931.680769 1196.55775 " transform="matrix(1,0,0,-1,1705.0753,1962.464)"/>
<path style="fill:none;stroke-width:1;stroke-linecap:butt;stroke-linejoin:miter;stroke:rgb(100%,100%,100%);stroke-opacity:1;stroke-miterlimit:4;" d="M 0.00084375 -0.00180625 C 0.00084375 -0.00180625 -668.174938 411.849756 -972.319469 975.052881 C -1065.4015 1147.412256 -973.831188 1244.841944 -762.881969 1181.90835 " transform="matrix(1,0,0,-1,1536.2765,1947.8146)"/>
<path style="fill:none;stroke-width:1;stroke-linecap:butt;stroke-linejoin:miter;stroke:rgb(100%,100%,100%);stroke-opacity:1;stroke-miterlimit:4;" d="M -0.00105625 -0.00183125 C -0.00105625 -0.00183125 -633.016681 435.681763 -848.8409 980.826294 C -914.891681 1147.658325 -798.524494 1229.982544 -585.758869 1154.36145 " transform="matrix(1,0,0,-1,1359.1534,1920.2677)"/>
<path style="fill:none;stroke-width:1;stroke-linecap:butt;stroke-linejoin:miter;stroke:rgb(100%,100%,100%);stroke-opacity:1;stroke-miterlimit:4;" d="M -0.00008125 -0.0018 C -0.00008125 -0.0018 -590.953206 454.756012 -716.097737 975.892731 C -754.394612 1135.377106 -614.500081 1201.697419 -402.242269 1114.21695 " transform="matrix(1,0,0,-1,1175.6368,1880.1232)"/>
<path style="fill:none;stroke-width:1;stroke-linecap:butt;stroke-linejoin:miter;stroke:rgb(100%,100%,100%);stroke-opacity:1;stroke-miterlimit:4;" d="M -0.00013125 -0.0018125 C -0.00013125 -0.0018125 -542.441537 468.869281 -575.539194 960.310688 C -585.6681 1110.705219 -423.769662 1160.298969 -214.336069 1061.91225 " transform="matrix(1,0,0,-1,987.7306,1827.8185)"/>
<path style="fill:none;stroke-width:1;stroke-linecap:butt;stroke-linejoin:miter;stroke:rgb(100%,100%,100%);stroke-opacity:1;stroke-miterlimit:4;" d="M -0.001125 -0.00188125 C -0.001125 -0.00188125 -488.008938 477.865306 -428.700344 934.244213 C -410.548 1073.912181 -228.415188 1106.2364 -24.090969 998.01765 " transform="matrix(1,0,0,-1,797.4855,1763.9239)"/>
<path style="fill:none;stroke-width:1;stroke-linecap:butt;stroke-linejoin:miter;stroke:rgb(100%,100%,100%);stroke-opacity:1;stroke-miterlimit:4;" d="M -0.0011375 -0.001925 C -0.0011375 -0.001925 -428.247231 481.650419 -277.180825 897.986356 C -230.950356 1025.396512 -30.567544 1040.103544 166.416831 923.23245 " transform="matrix(1,0,0,-1,606.9777,1689.1387)"/>
<path style="fill:none;stroke-width:1;stroke-linecap:butt;stroke-linejoin:miter;stroke:rgb(100%,100%,100%);stroke-opacity:1;stroke-miterlimit:4;" d="M -0.00114375 0.00005625 C -0.00114375 0.00005625 -363.81755 480.175837 -122.637862 851.925837 C -48.829269 965.691462 167.608231 962.617244 355.108231 838.37115 " transform="matrix(1,0,0,-1,418.2863,1604.2774)"/>
<path style="fill:none;stroke-width:1;stroke-linecap:butt;stroke-linejoin:miter;stroke:rgb(100%,100%,100%);stroke-opacity:1;stroke-miterlimit:4;" d="M -0.00015 -0.00193125 C -0.00015 -0.00193125 -295.414213 473.462912 33.245944 796.568381 C 133.824069 895.451194 363.964694 874.626975 539.925631 744.36135 " transform="matrix(1,0,0,-1,233.4689,1510.2676)"/>
<path style="fill:none;stroke-width:1;stroke-linecap:butt;stroke-linejoin:miter;stroke:rgb(100%,100%,100%);stroke-opacity:1;stroke-miterlimit:4;" d="M 0.001775 0.0010875 C 0.001775 0.0010875 -223.787287 461.579213 188.763494 732.520619 C 315.0174 815.434681 556.341619 777.090931 718.849431 642.22765 " transform="matrix(1,0,0,-1,54.5451,1408.1339)"/>
<path style="fill:none;stroke-width:1;stroke-linecap:butt;stroke-linejoin:miter;stroke:rgb(100%,100%,100%);stroke-opacity:1;stroke-miterlimit:4;" d="M -0.00115625 -0.0008875 C -0.00115625 -0.0008875 -149.719906 444.659269 342.2215 660.475675 C 492.772281 726.52255 742.651187 671.073331 889.928531 533.08505 " transform="matrix(1,0,0,-1,-116.534,1298.9913)"/>
<path style="fill:none;stroke-width:1;stroke-linecap:butt;stroke-linejoin:miter;stroke:rgb(100%,100%,100%);stroke-opacity:1;stroke-miterlimit:4;" d="M -0.00114375 -0.00085 C -0.00114375 -0.00085 -74.016769 422.889775 491.944169 581.221806 C 665.147294 629.678838 920.854325 557.733525 1051.295731 418.12415 " transform="matrix(1,0,0,-1,-277.9012,1184.0304)"/>
<path style="fill:none;stroke-width:1;stroke-linecap:butt;stroke-linejoin:miter;stroke:rgb(100%,100%,100%);stroke-opacity:1;stroke-miterlimit:4;" d="M 0.00183125 -0.0009125 C 0.00183125 -0.0009125 2.494019 396.499087 636.298706 495.627994 C 830.26355 525.963931 1089.005738 438.307681 1201.189331 298.60065 " transform="matrix(1,0,0,-1,-427.7948,1064.5069)"/>
<path style="fill:none;stroke-width:1;stroke-linecap:butt;stroke-linejoin:miter;stroke:rgb(100%,100%,100%);stroke-opacity:1;stroke-miterlimit:4;" d="M 0.001875 -0.0018625 C 0.001875 -0.0018625 78.978438 365.7872 773.712813 404.623137 C 986.322188 416.509856 1245.275312 314.0997 1337.974531 175.81845 " transform="matrix(1,0,0,-1,-564.58,941.7247)"/>
<path style="fill:none;stroke-width:1;stroke-linecap:butt;stroke-linejoin:miter;stroke:rgb(100%,100%,100%);stroke-opacity:1;stroke-miterlimit:4;" d="M 0.00178125 0.0000625 C 0.00178125 0.0000625 154.599438 331.082094 902.677563 309.203188 C 1131.615063 302.507875 1387.954906 186.461 1460.158031 51.11725 " transform="matrix(1,0,0,-1,-686.7635,817.0235)"/>
<path style="fill:none;stroke-width:1;stroke-linecap:butt;stroke-linejoin:miter;stroke:rgb(100%,100%,100%);stroke-opacity:1;stroke-miterlimit:4;" d="M -0.00011875 -0.000925 C -0.00011875 -0.000925 228.535037 292.760794 1021.796756 210.409231 C 1264.558475 185.206106 1515.488162 56.788137 1566.406131 -74.14155 " transform="matrix(1,0,0,-1,-793.0116,691.7647)"/>
<path style="fill:none;stroke-width:1;stroke-linecap:butt;stroke-linejoin:miter;stroke:rgb(100%,100%,100%);stroke-opacity:1;stroke-miterlimit:4;" d="M 0.0008375 -0.00140625 C 0.0008375 -0.00140625 299.9774 251.248594 1129.75865 109.318906 C 1383.700056 65.881406 1626.4774 -73.505312 1655.559431 -198.59125 " transform="matrix(1,0,0,-1,-882.1649,567.315)"/>
<path style="fill:none;stroke-width:1;stroke-linecap:butt;stroke-linejoin:miter;stroke:rgb(100%,100%,100%);stroke-opacity:1;stroke-miterlimit:4;" d="M 0.0009 0.00105 C 0.0009 0.00105 368.141525 206.989331 1225.395431 7.0323 C 1487.743088 -54.159106 1719.723556 -202.995044 1726.645431 -320.87395 " transform="matrix(1,0,0,-1,-953.2509,445.0323)"/>
<path style="fill:none;stroke-width:1;stroke-linecap:butt;stroke-linejoin:miter;stroke:rgb(100%,100%,100%);stroke-opacity:1;stroke-miterlimit:4;" d="M 0.0008125 -0.00190625 C 0.0008125 -0.00190625 432.289875 160.478563 1307.657062 -95.326125 C 1575.547687 -173.611281 1794.196125 -330.271437 1778.887531 -439.65425 " transform="matrix(1,0,0,-1,-1005.493,326.252)"/>
<path style="fill:none;stroke-width:1;stroke-linecap:butt;stroke-linejoin:miter;stroke:rgb(100%,100%,100%);stroke-opacity:1;stroke-miterlimit:4;" d="M 0.0008875 -0.00043125 C 0.0008875 -0.00043125 491.719637 112.210506 1375.649325 -196.648869 C 1646.157137 -291.1684 1849.090731 -453.941838 1811.715731 -553.63715 " transform="matrix(1,0,0,-1,-1038.3212,212.2691)"/>
<path style="fill:none;stroke-width:1;stroke-linecap:butt;stroke-linejoin:miter;stroke:rgb(100%,100%,100%);stroke-opacity:1;stroke-miterlimit:4;" d="M -0.00010625 0.000575 C -0.00010625 0.000575 545.78505 62.719325 1428.6288 -295.819738 C 1698.804581 -405.5463 1883.804581 -572.659581 1824.773331 -661.57755 " transform="matrix(1,0,0,-1,-1051.3788,104.3287)"/>
<path style="fill:none;stroke-width:1;stroke-linecap:butt;stroke-linejoin:miter;stroke:rgb(100%,100%,100%);stroke-opacity:1;stroke-miterlimit:4;" d="M 0.00186875 -0.001375 C 0.00186875 -0.001375 593.8964 12.541594 1466.013587 -391.767 C 1732.912025 -515.497469 1897.962806 -685.126375 1817.915931 -762.29825 " transform="matrix(1,0,0,-1,-1044.5214,3.608)"/>
<path style="fill:none;stroke-width:1;stroke-linecap:butt;stroke-linejoin:miter;stroke:rgb(100%,100%,100%);stroke-opacity:1;stroke-miterlimit:4;" d="M -0.00011875 -0.00043125 C -0.00011875 -0.00043125 635.519412 -37.769963 1487.402225 -483.437931 C 1748.10535 -619.82465 1891.402225 -790.113713 1791.218631 -854.69965 " transform="matrix(1,0,0,-1,-1017.8241,-88.7934)"/>
<path style="fill:none;stroke-width:1;stroke-linecap:butt;stroke-linejoin:miter;stroke:rgb(100%,100%,100%);stroke-opacity:1;stroke-miterlimit:4;" d="M 0.000875 0.0000875 C 0.000875 0.0000875 670.211813 -87.667881 1492.559469 -569.831944 C 1744.223531 -717.390537 1864.204 -886.480381 1744.973531 -937.77335 " transform="matrix(1,0,0,-1,-971.579,-171.8671)"/>
<path style="fill:none;stroke-width:1;stroke-linecap:butt;stroke-linejoin:miter;stroke:rgb(100%,100%,100%);stroke-opacity:1;stroke-miterlimit:4;" d="M 0.0018375 0.00063125 C 0.0018375 0.00063125 697.591681 -136.61265 1481.427619 -650.007181 C 1721.306525 -807.120463 1816.658087 -973.17515 1679.685431 -1010.61265 " transform="matrix(1,0,0,-1,-906.2909,-244.7064)"/>
<path style="fill:none;stroke-width:1;stroke-linecap:butt;stroke-linejoin:miter;stroke:rgb(100%,100%,100%);stroke-opacity:1;stroke-miterlimit:4;" d="M -0.000075 -0.001375 C -0.000075 -0.001375 717.355394 -184.063875 1454.124925 -723.087313 C 1679.601488 -888.04825 1749.292894 -1049.247469 1596.066331 -1072.42325 " transform="matrix(1,0,0,-1,-822.6718,-306.517)"/>
<path style="fill:none;stroke-width:1;stroke-linecap:butt;stroke-linejoin:miter;stroke:rgb(100%,100%,100%);stroke-opacity:1;stroke-miterlimit:4;" d="M 0.0008875 0.0016 C 0.0008875 0.0016 729.28995 -229.510119 1410.957919 -788.27965 C 1619.567294 -959.27965 1662.832919 -1113.869494 1495.028231 -1122.52965 " transform="matrix(1,0,0,-1,-721.6337,-356.6234)"/>
<path style="fill-rule:nonzero;fill:rgb(16.003418%,39.030457%,56.550598%);fill-opacity:1;stroke-width:10;stroke-linecap:butt;stroke-linejoin:miter;stroke:rgb(16.003418%,39.030457%,56.550598%);stroke-opacity:1;stroke-miterlimit:10;" d="M -0.00110625 -0.0003875 L -0.00110625 110.108988 L 29.338737 110.108988 L 29.338737 97.77305 L 246.893425 97.77305 L 246.893425 51.933206 L 316.256706 51.933206 L 316.256706 11.737894 L 174.694206 11.737894 L 174.694206 -0.0003875 Z M -0.00110625 -0.0003875 " transform="matrix(1,0,0,-1,147.8722,451.0543)"/>
<path style=" stroke:none;fill-rule:nonzero;fill:rgb(100%,100%,100%);fill-opacity:1;" d="M 150.199219 446.167969 L 150.199219 447.085938 L 152.738281 447.085938 L 152.738281 448.796875 L 150.199219 448.796875 L 150.199219 451.054688 L 147.871094 451.054688 L 147.871094 444.457031 L 153.339844 444.457031 L 153.339844 446.167969 Z M 150.199219 446.167969 "/>
<path style=" stroke:none;fill-rule:nonzero;fill:rgb(100%,100%,100%);fill-opacity:1;" d="M 154.011719 444.457031 L 159.488281 444.457031 L 159.488281 446.167969 L 156.339844 446.167969 L 156.339844 446.988281 L 158.878906 446.988281 L 158.878906 448.566406 L 156.339844 448.566406 L 156.339844 449.34375 L 159.609375 449.34375 L 159.609375 451.054688 L 154.011719 451.054688 Z M 154.011719 444.457031 "/>
<path style=" stroke:none;fill-rule:nonzero;fill:rgb(100%,100%,100%);fill-opacity:1;" d="M 165.589844 449.34375 L 165.589844 451.054688 L 160.273438 451.054688 L 160.273438 444.457031 L 162.601562 444.457031 L 162.601562 449.34375 Z M 165.589844 449.34375 "/>
<path style=" stroke:none;fill-rule:nonzero;fill:rgb(100%,100%,100%);fill-opacity:1;" d="M 170.308594 447.757812 C 170.308594 446.625 170.089844 446.117188 169.230469 446.117188 L 168.652344 446.117188 L 168.652344 449.394531 L 169.230469 449.394531 C 170.089844 449.394531 170.308594 448.886719 170.308594 447.757812 M 172.6875 447.757812 C 172.6875 449.855469 171.628906 451.054688 169.5625 451.054688 L 166.324219 451.054688 L 166.324219 444.457031 L 169.5625 444.457031 C 171.628906 444.457031 172.6875 445.65625 172.6875 447.757812 "/>
<path style=" stroke:none;fill-rule:nonzero;fill:rgb(100%,100%,100%);fill-opacity:1;" d="M 181.957031 451.054688 L 179.929688 451.054688 L 179.929688 448.765625 L 179.957031 446.546875 L 179.929688 446.546875 L 178.648438 451.054688 L 176.789062 451.054688 L 175.53125 446.546875 L 175.488281 446.546875 L 175.519531 448.765625 L 175.519531 451.054688 L 173.480469 451.054688 L 173.480469 444.457031 L 176.738281 444.457031 L 177.5 447.386719 L 177.789062 448.617188 L 177.808594 448.617188 L 178.097656 447.386719 L 178.859375 444.457031 L 181.957031 444.457031 Z M 181.957031 451.054688 "/>
<path style=" stroke:none;fill-rule:nonzero;fill:rgb(100%,100%,100%);fill-opacity:1;" d="M 186.429688 448.34375 L 185.902344 446.148438 L 185.871094 446.148438 L 185.609375 447.265625 L 185.339844 448.34375 Z M 186.769531 449.792969 L 184.992188 449.792969 L 184.679688 451.054688 L 182.363281 451.054688 L 184.5 444.457031 L 187.296875 444.457031 L 189.449219 451.054688 L 187.070312 451.054688 Z M 186.769531 449.792969 "/>
<path style=" stroke:none;fill-rule:nonzero;fill:rgb(100%,100%,100%);fill-opacity:1;" d="M 196.308594 451.054688 L 193.789062 451.054688 L 192.210938 448.054688 L 191.851562 447.246094 L 191.828125 447.246094 L 191.871094 448.605469 L 191.871094 451.054688 L 189.851562 451.054688 L 189.851562 444.457031 L 192.371094 444.457031 L 193.949219 447.464844 L 194.308594 448.265625 L 194.328125 448.265625 L 194.289062 446.90625 L 194.289062 444.457031 L 196.308594 444.457031 Z M 196.308594 451.054688 "/>
<path style=" stroke:none;fill-rule:nonzero;fill:rgb(100%,100%,100%);fill-opacity:1;" d="M 209.589844 447.335938 L 210.488281 447.335938 C 210.980469 447.335938 211.230469 447.175781 211.230469 446.726562 C 211.230469 446.285156 210.980469 446.117188 210.488281 446.117188 L 209.589844 446.117188 Z M 211.398438 451.054688 L 210.230469 448.867188 L 209.589844 448.867188 L 209.589844 451.054688 L 207.3125 451.054688 L 207.3125 444.457031 L 210.890625 444.457031 C 212.609375 444.457031 213.558594 445.289062 213.558594 446.558594 C 213.558594 447.554688 213.128906 448.207031 212.320312 448.527344 L 213.929688 451.054688 Z M 211.398438 451.054688 "/>
<path style=" stroke:none;fill-rule:nonzero;fill:rgb(100%,100%,100%);fill-opacity:1;" d="M 214.363281 444.457031 L 219.839844 444.457031 L 219.839844 446.167969 L 216.691406 446.167969 L 216.691406 446.988281 L 219.226562 446.988281 L 219.226562 448.566406 L 216.691406 448.566406 L 216.691406 449.34375 L 219.957031 449.34375 L 219.957031 451.054688 L 214.363281 451.054688 Z M 214.363281 444.457031 "/>
<path style=" stroke:none;fill-rule:nonzero;fill:rgb(100%,100%,100%);fill-opacity:1;" d="M 223.769531 451.152344 C 221.679688 451.152344 220.410156 449.914062 220.410156 447.757812 C 220.410156 445.597656 221.679688 444.359375 223.769531 444.359375 C 225.21875 444.359375 226.488281 444.949219 226.769531 446.355469 L 224.769531 447.136719 C 224.660156 446.277344 224.320312 446.105469 223.828125 446.105469 C 223.140625 446.105469 222.789062 446.617188 222.789062 447.757812 C 222.789062 448.886719 223.078125 449.40625 223.878906 449.40625 C 224.359375 449.40625 224.679688 449.136719 224.757812 448.507812 L 226.816406 449.035156 C 226.449219 450.585938 225.277344 451.152344 223.769531 451.152344 "/>
<path style=" stroke:none;fill-rule:nonzero;fill:rgb(100%,100%,100%);fill-opacity:1;" d="M 233.859375 444.457031 L 233.859375 451.054688 L 231.53125 451.054688 L 231.53125 448.59375 L 229.71875 448.59375 L 229.71875 451.054688 L 227.390625 451.054688 L 227.390625 444.457031 L 229.71875 444.457031 L 229.71875 446.886719 L 231.53125 446.886719 L 231.53125 444.457031 Z M 233.859375 444.457031 "/>
<path style=" stroke:none;fill-rule:nonzero;fill:rgb(100%,100%,100%);fill-opacity:1;" d="M 241.316406 451.054688 L 238.796875 451.054688 L 237.21875 448.054688 L 236.859375 447.246094 L 236.839844 447.246094 L 236.878906 448.605469 L 236.878906 451.054688 L 234.863281 451.054688 L 234.863281 444.457031 L 237.378906 444.457031 L 238.960938 447.464844 L 239.320312 448.265625 L 239.339844 448.265625 L 239.296875 446.90625 L 239.296875 444.457031 L 241.316406 444.457031 Z M 241.316406 451.054688 "/>
<path style=" stroke:none;fill-rule:nonzero;fill:rgb(100%,100%,100%);fill-opacity:1;" d="M 244.648438 451.054688 L 242.320312 451.054688 L 242.320312 444.457031 L 244.648438 444.457031 Z M 244.648438 451.054688 "/>
<path style=" stroke:none;fill-rule:nonzero;fill:rgb(100%,100%,100%);fill-opacity:1;" d="M 251.808594 446.167969 L 249.75 446.167969 L 249.75 451.054688 L 247.417969 451.054688 L 247.417969 446.167969 L 245.351562 446.167969 L 245.351562 444.457031 L 251.808594 444.457031 Z M 251.808594 446.167969 "/>
<path style=" stroke:none;fill-rule:nonzero;fill:rgb(100%,100%,100%);fill-opacity:1;" d="M 258.226562 449.394531 L 258.226562 451.054688 L 252.261719 451.054688 L 252.261719 449.464844 L 255.609375 446.117188 L 252.300781 446.117188 L 252.300781 444.457031 L 258.117188 444.457031 L 258.117188 446.046875 L 254.789062 449.394531 Z M 258.226562 449.394531 "/>
<path style=" stroke:none;fill-rule:nonzero;fill:rgb(100%,100%,100%);fill-opacity:1;" d="M 258.882812 444.457031 L 264.359375 444.457031 L 264.359375 446.167969 L 261.210938 446.167969 L 261.210938 446.988281 L 263.746094 446.988281 L 263.746094 448.566406 L 261.210938 448.566406 L 261.210938 449.34375 L 264.476562 449.34375 L 264.476562 451.054688 L 258.882812 451.054688 Z M 258.882812 444.457031 "/>
<path style=" stroke:none;fill-rule:nonzero;fill:rgb(100%,100%,100%);fill-opacity:1;" d="M 267.417969 447.335938 L 268.316406 447.335938 C 268.808594 447.335938 269.058594 447.175781 269.058594 446.726562 C 269.058594 446.285156 268.808594 446.117188 268.316406 446.117188 L 267.417969 446.117188 Z M 269.230469 451.054688 L 268.058594 448.867188 L 267.417969 448.867188 L 267.417969 451.054688 L 265.140625 451.054688 L 265.140625 444.457031 L 268.71875 444.457031 C 270.4375 444.457031 271.386719 445.289062 271.386719 446.558594 C 271.386719 447.554688 270.957031 448.207031 270.148438 448.527344 L 271.757812 451.054688 Z M 269.230469 451.054688 "/>
<path style=" stroke:none;fill-rule:nonzero;fill:rgb(100%,100%,100%);fill-opacity:1;" d="M 286.417969 448.765625 L 286.417969 451.054688 L 284.089844 451.054688 L 284.089844 448.765625 L 281.78125 444.457031 L 284.097656 444.457031 L 284.800781 445.96875 L 285.269531 447.167969 L 285.738281 445.96875 L 286.4375 444.457031 L 288.726562 444.457031 Z M 286.417969 448.765625 "/>
<path style=" stroke:none;fill-rule:nonzero;fill:rgb(100%,100%,100%);fill-opacity:1;" d="M 289.320312 444.457031 L 294.796875 444.457031 L 294.796875 446.167969 L 291.648438 446.167969 L 291.648438 446.988281 L 294.1875 446.988281 L 294.1875 448.566406 L 291.648438 448.566406 L 291.648438 449.34375 L 294.917969 449.34375 L 294.917969 451.054688 L 289.320312 451.054688 Z M 289.320312 444.457031 "/>
<path style=" stroke:none;fill-rule:nonzero;fill:rgb(100%,100%,100%);fill-opacity:1;" d="M 299.046875 448.34375 L 298.519531 446.148438 L 298.488281 446.148438 L 298.230469 447.265625 L 297.960938 448.34375 Z M 299.386719 449.792969 L 297.609375 449.792969 L 297.300781 451.054688 L 294.980469 451.054688 L 297.117188 444.457031 L 299.917969 444.457031 L 302.066406 451.054688 L 299.6875 451.054688 Z M 299.386719 449.792969 "/>
<path style=" stroke:none;fill-rule:nonzero;fill:rgb(100%,100%,100%);fill-opacity:1;" d="M 305.679688 447.335938 L 308.738281 447.335938 L 308.738281 451.054688 L 307.199219 451.054688 L 307.117188 450.285156 C 306.769531 450.855469 306.140625 451.152344 305.25 451.152344 C 303.539062 451.152344 302.261719 450.023438 302.261719 447.777344 C 302.261719 445.617188 303.53125 444.359375 305.679688 444.359375 C 307.308594 444.359375 308.238281 444.898438 308.757812 446.167969 L 306.589844 446.945312 C 306.496094 446.316406 306.167969 446.109375 305.699219 446.109375 C 304.941406 446.109375 304.640625 446.636719 304.640625 447.757812 C 304.640625 449.003906 305.03125 449.464844 305.878906 449.464844 C 306.40625 449.464844 306.789062 449.246094 306.789062 448.777344 L 306.789062 448.765625 L 305.679688 448.765625 Z M 305.679688 447.335938 "/>
<path style=" stroke:none;fill-rule:nonzero;fill:rgb(100%,100%,100%);fill-opacity:1;" d="M 309.691406 444.457031 L 315.167969 444.457031 L 315.167969 446.167969 L 312.019531 446.167969 L 312.019531 446.988281 L 314.558594 446.988281 L 314.558594 448.566406 L 312.019531 448.566406 L 312.019531 449.34375 L 315.289062 449.34375 L 315.289062 451.054688 L 309.691406 451.054688 Z M 309.691406 444.457031 "/>
<path style=" stroke:none;fill-rule:nonzero;fill:rgb(100%,100%,100%);fill-opacity:1;" d="M 318.230469 447.335938 L 319.128906 447.335938 C 319.617188 447.335938 319.867188 447.175781 319.867188 446.726562 C 319.867188 446.285156 319.617188 446.117188 319.128906 446.117188 L 318.230469 446.117188 Z M 320.039062 451.054688 L 318.867188 448.867188 L 318.230469 448.867188 L 318.230469 451.054688 L 315.949219 451.054688 L 315.949219 444.457031 L 319.527344 444.457031 C 321.246094 444.457031 322.195312 445.289062 322.195312 446.558594 C 322.195312 447.554688 321.765625 448.207031 320.957031 448.527344 L 322.566406 451.054688 Z M 320.039062 451.054688 "/>
<path style=" stroke:none;fill-rule:nonzero;fill:rgb(100%,100%,100%);fill-opacity:1;" d="M 151.230469 347.640625 C 149.140625 347.640625 147.871094 346.402344 147.871094 344.246094 C 147.871094 342.085938 149.140625 340.847656 151.230469 340.847656 C 152.679688 340.847656 153.949219 341.4375 154.230469 342.84375 L 152.230469 343.625 C 152.121094 342.765625 151.78125 342.59375 151.289062 342.59375 C 150.601562 342.59375 150.25 343.105469 150.25 344.246094 C 150.25 345.375 150.539062 345.894531 151.339844 345.894531 C 151.820312 345.894531 152.140625 345.625 152.21875 344.996094 L 154.277344 345.523438 C 153.910156 347.074219 152.738281 347.640625 151.230469 347.640625 "/>
<path style=" stroke:none;fill-rule:nonzero;fill:rgb(100%,100%,100%);fill-opacity:1;" d="M 160.167969 345.832031 L 160.167969 347.542969 L 154.851562 347.542969 L 154.851562 340.945312 L 157.179688 340.945312 L 157.179688 345.832031 Z M 160.167969 345.832031 "/>
<path style=" stroke:none;fill-rule:nonzero;fill:rgb(100%,100%,100%);fill-opacity:1;" d="M 164.839844 343.273438 C 164.839844 342.804688 164.53125 342.59375 164.019531 342.59375 L 163.230469 342.59375 L 163.230469 343.953125 L 164.019531 343.953125 C 164.53125 343.953125 164.839844 343.746094 164.839844 343.273438 M 167.167969 343.273438 C 167.167969 344.773438 166.179688 345.605469 164.402344 345.605469 L 163.230469 345.605469 L 163.230469 347.542969 L 160.902344 347.542969 L 160.902344 340.945312 L 164.402344 340.945312 C 166.179688 340.945312 167.167969 341.777344 167.167969 343.273438 "/>
<path style=" stroke:none;fill-rule:nonzero;fill:rgb(100%,100%,100%);fill-opacity:1;" d="M 173.640625 344.773438 L 173.640625 343.085938 C 173.640625 342.886719 173.648438 342.644531 173.660156 342.386719 L 173.640625 342.386719 C 173.519531 342.613281 173.390625 342.84375 173.261719 343.046875 L 172.460938 344.273438 C 172.351562 344.445312 172.242188 344.605469 172.109375 344.773438 Z M 173.609375 346.28125 L 170.390625 346.28125 L 170.390625 344.875 C 170.582031 344.535156 170.910156 344.015625 171.351562 343.34375 L 172.917969 340.945312 L 175.609375 340.945312 L 175.609375 344.773438 L 176.496094 344.773438 L 176.496094 346.28125 L 175.609375 346.28125 L 175.609375 347.542969 L 173.609375 347.542969 Z M 173.609375 346.28125 "/>
<path style=" stroke:none;fill-rule:nonzero;fill:rgb(100%,100%,100%);fill-opacity:1;" d="M 177.871094 392.878906 L 161.253906 392.878906 L 147.871094 353.28125 L 162.453125 353.28125 L 167.914062 374.941406 L 169.832031 382.679688 L 171.632812 375.0625 L 177.210938 353.28125 L 191.25 353.28125 Z M 177.871094 392.878906 "/>
<path style=" stroke:none;fill-rule:nonzero;fill:rgb(100%,100%,100%);fill-opacity:1;" d="M 193.773438 353.28125 L 226.652344 353.28125 L 226.652344 363.542969 L 207.75 363.542969 L 207.75 368.460938 L 222.992188 368.460938 L 222.992188 377.941406 L 207.75 377.941406 L 207.75 382.621094 L 227.371094 382.621094 L 227.371094 392.878906 L 193.773438 392.878906 Z M 193.773438 353.28125 "/>
<path style=" stroke:none;fill-rule:nonzero;fill:rgb(100%,100%,100%);fill-opacity:1;" d="M 250.230469 393.480469 C 237.691406 393.480469 230.070312 386.042969 230.070312 373.082031 C 230.070312 360.121094 237.691406 352.683594 250.230469 352.683594 C 258.929688 352.683594 266.550781 356.222656 268.230469 364.679688 L 256.230469 369.363281 C 255.570312 364.203125 253.53125 363.179688 250.589844 363.179688 C 246.449219 363.179688 244.351562 366.242188 244.351562 373.082031 C 244.351562 379.859375 246.089844 382.980469 250.890625 382.980469 C 253.769531 382.980469 255.691406 381.359375 256.167969 377.582031 L 268.53125 380.761719 C 266.308594 390.058594 259.289062 393.480469 250.230469 393.480469 "/>
<path style=" stroke:none;fill-rule:nonzero;fill:rgb(100%,100%,100%);fill-opacity:1;" d="M 308.910156 363.542969 L 296.550781 363.542969 L 296.550781 392.878906 L 282.570312 392.878906 L 282.570312 363.542969 L 270.152344 363.542969 L 270.152344 353.28125 L 308.910156 353.28125 Z M 308.910156 363.542969 "/>
<path style=" stroke:none;fill-rule:nonzero;fill:rgb(100%,100%,100%);fill-opacity:1;" d="M 324.328125 373.082031 C 324.328125 379.980469 326.128906 382.980469 330.210938 382.980469 C 334.289062 382.980469 336.027344 379.980469 336.027344 373.082031 C 336.027344 366.179688 334.289062 363.179688 330.210938 363.179688 C 326.128906 363.179688 324.328125 366.179688 324.328125 373.082031 M 350.308594 373.082031 C 350.308594 386.039062 342.808594 393.480469 330.210938 393.480469 C 317.667969 393.480469 310.050781 386.039062 310.050781 373.082031 C 310.050781 360.121094 317.667969 352.683594 330.210938 352.683594 C 342.808594 352.683594 350.308594 360.121094 350.308594 373.082031 "/>
<path style=" stroke:none;fill-rule:nonzero;fill:rgb(100%,100%,100%);fill-opacity:1;" d="M 368.730469 370.5625 L 374.128906 370.5625 C 377.066406 370.5625 378.566406 369.601562 378.566406 366.902344 C 378.566406 364.261719 377.066406 363.242188 374.128906 363.242188 L 368.730469 363.242188 Z M 379.585938 392.878906 L 372.570312 379.742188 L 368.730469 379.742188 L 368.730469 392.878906 L 355.046875 392.878906 L 355.046875 353.28125 L 376.527344 353.28125 C 386.847656 353.28125 392.546875 358.261719 392.546875 365.882812 C 392.546875 371.882812 389.96875 375.78125 385.109375 377.699219 L 394.765625 392.878906 Z M 379.585938 392.878906 "/>
<path style=" stroke:none;fill-rule:nonzero;fill:rgb(100%,100%,100%);fill-opacity:1;" d="M 168.03125 439.316406 C 155.492188 439.316406 147.871094 431.878906 147.871094 418.921875 C 147.871094 405.960938 155.492188 398.519531 168.03125 398.519531 C 176.730469 398.519531 184.351562 402.058594 186.03125 410.519531 L 174.03125 415.199219 C 173.371094 410.039062 171.332031 409.019531 168.390625 409.019531 C 164.25 409.019531 162.152344 412.078125 162.152344 418.921875 C 162.152344 425.699219 163.890625 428.820312 168.691406 428.820312 C 171.570312 428.820312 173.492188 427.199219 173.96875 423.417969 L 186.332031 426.597656 C 184.109375 435.898438 177.089844 439.316406 168.03125 439.316406 "/>
<path style=" stroke:none;fill-rule:nonzero;fill:rgb(100%,100%,100%);fill-opacity:1;" d="M 210.570312 422.457031 L 207.390625 409.257812 L 207.210938 409.257812 L 205.652344 415.980469 L 204.03125 422.457031 Z M 212.609375 431.160156 L 201.929688 431.160156 L 200.070312 438.71875 L 186.152344 438.71875 L 198.992188 399.121094 L 215.789062 399.121094 L 228.691406 438.71875 L 214.410156 438.71875 Z M 212.609375 431.160156 "/>
<path style=" stroke:none;fill-rule:nonzero;fill:rgb(100%,100%,100%);fill-opacity:1;" d="M 263.011719 428.457031 L 263.011719 438.71875 L 231.089844 438.71875 L 231.089844 399.121094 L 245.070312 399.121094 L 245.070312 428.457031 Z M 263.011719 428.457031 "/>
<path style=" stroke:none;fill-rule:nonzero;fill:rgb(100%,100%,100%);fill-opacity:1;" d="M 285.089844 439.316406 C 272.550781 439.316406 264.933594 431.878906 264.933594 418.921875 C 264.933594 405.960938 272.550781 398.519531 285.089844 398.519531 C 293.789062 398.519531 301.410156 402.058594 303.089844 410.519531 L 291.089844 415.199219 C 290.429688 410.039062 288.390625 409.019531 285.449219 409.019531 C 281.3125 409.019531 279.210938 412.078125 279.210938 418.921875 C 279.210938 425.699219 280.949219 428.820312 285.75 428.820312 C 288.632812 428.820312 290.550781 427.199219 291.03125 423.417969 L 303.390625 426.597656 C 301.171875 435.898438 294.152344 439.316406 285.089844 439.316406 "/>
<path style=" stroke:none;fill-rule:nonzero;fill:rgb(100%,100%,100%);fill-opacity:1;" d="M 344.308594 421.679688 C 344.308594 433.5 337.949219 439.316406 325.167969 439.316406 C 312.390625 439.316406 306.03125 433.5 306.03125 421.679688 L 306.03125 399.121094 L 320.070312 399.121094 L 320.070312 422.757812 C 320.070312 426.78125 321.871094 428.820312 325.167969 428.820312 C 328.53125 428.820312 330.328125 426.78125 330.328125 422.757812 L 330.328125 399.121094 L 344.308594 399.121094 Z M 344.308594 421.679688 "/>
<path style=" stroke:none;fill-rule:nonzero;fill:rgb(100%,100%,100%);fill-opacity:1;" d="M 381.449219 428.457031 L 381.449219 438.71875 L 349.53125 438.71875 L 349.53125 399.121094 L 363.507812 399.121094 L 363.507812 428.457031 Z M 381.449219 428.457031 "/>
<path style=" stroke:none;fill-rule:nonzero;fill:rgb(100%,100%,100%);fill-opacity:1;" d="M 423.328125 421.679688 C 423.328125 433.5 416.96875 439.316406 404.1875 439.316406 C 391.410156 439.316406 385.050781 433.5 385.050781 421.679688 L 385.050781 399.121094 L 399.089844 399.121094 L 399.089844 422.757812 C 399.089844 426.78125 400.890625 428.820312 404.1875 428.820312 C 407.546875 428.820312 409.347656 426.78125 409.347656 422.757812 L 409.347656 399.121094 L 423.328125 399.121094 Z M 423.328125 421.679688 "/>
<path style=" stroke:none;fill-rule:nonzero;fill:rgb(100%,100%,100%);fill-opacity:1;" d="M 464.128906 404.160156 L 458.488281 413.160156 C 454.707031 410.519531 450.6875 408.78125 445.886719 408.78125 C 442.769531 408.78125 441.6875 409.558594 441.6875 410.640625 C 441.6875 411.597656 443.308594 411.960938 445.589844 412.5 L 451.046875 413.761719 C 459.148438 415.621094 463.285156 418.980469 463.285156 425.339844 C 463.285156 434.9375 455.605469 439.316406 445.589844 439.316406 C 437.96875 439.316406 430.050781 437.160156 425.429688 433.320312 L 430.949219 424.140625 C 434.367188 426.898438 440.609375 429.058594 445.167969 429.058594 C 447.929688 429.058594 448.886719 428.398438 448.949219 427.378906 C 449.007812 426.238281 448.226562 425.699219 445.769531 425.160156 L 439.769531 423.839844 C 433.40625 422.457031 427.230469 420.058594 427.230469 412.140625 C 427.230469 404.039062 434.066406 398.519531 445.886719 398.519531 C 453.445312 398.519531 459.507812 400.441406 464.128906 404.160156 "/>
</g>
</svg>
