<?xml version="1.0" encoding="UTF-8"?>
<svg xmlns="http://www.w3.org/2000/svg" xmlns:xlink="http://www.w3.org/1999/xlink" width="87pt" height="101pt" viewBox="0 0 87 101" version="1.1">
<g id="surface1">
<path style="fill:none;stroke-width:15;stroke-linecap:butt;stroke-linejoin:miter;stroke:rgb(0%,0%,0%);stroke-opacity:1;stroke-miterlimit:10;" d="M 590.820312 740.820312 C 458.242188 740.820312 350.820312 633.359375 350.820312 500.820312 C 350.820312 368.242188 458.242188 260.820312 590.820312 260.820312 " transform="matrix(0.1,0,0,-0.1,0,101)"/>
<path style="fill:none;stroke-width:15;stroke-linecap:butt;stroke-linejoin:miter;stroke:rgb(0%,0%,0%);stroke-opacity:1;stroke-miterlimit:10;" d="M 590.820312 980.820312 C 325.703125 980.820312 110.820312 765.898438 110.820312 500.820312 C 110.820312 235.703125 325.703125 20.820312 590.820312 20.820312 " transform="matrix(0.1,0,0,-0.1,0,101)"/>
<path style="fill:none;stroke-width:15;stroke-linecap:butt;stroke-linejoin:miter;stroke:rgb(0%,0%,0%);stroke-opacity:1;stroke-miterlimit:10;" d="M 590.820312 740.820312 L 710.820312 740.820312 " transform="matrix(0.1,0,0,-0.1,0,101)"/>
<path style="fill:none;stroke-width:15;stroke-linecap:butt;stroke-linejoin:miter;stroke:rgb(0%,0%,0%);stroke-opacity:1;stroke-miterlimit:10;" d="M 590.820312 980.820312 L 710.820312 980.820312 " transform="matrix(0.1,0,0,-0.1,0,101)"/>
<path style="fill:none;stroke-width:15;stroke-linecap:butt;stroke-linejoin:miter;stroke:rgb(0%,0%,0%);stroke-opacity:1;stroke-miterlimit:10;" d="M 590.820312 260.820312 L 710.820312 260.820312 " transform="matrix(0.1,0,0,-0.1,0,101)"/>
<path style="fill:none;stroke-width:15;stroke-linecap:butt;stroke-linejoin:miter;stroke:rgb(0%,0%,0%);stroke-opacity:1;stroke-miterlimit:10;" d="M 590.820312 20.820312 L 710.820312 20.820312 " transform="matrix(0.1,0,0,-0.1,0,101)"/>
<path style="fill:none;stroke-width:15;stroke-linecap:butt;stroke-linejoin:miter;stroke:rgb(0%,0%,0%);stroke-opacity:1;stroke-miterlimit:10;" d="M 710.820312 740.820312 C 777.070312 740.820312 830.820312 794.53125 830.820312 860.820312 C 830.820312 927.070312 777.070312 980.820312 710.820312 980.820312 " transform="matrix(0.1,0,0,-0.1,0,101)"/>
<path style="fill:none;stroke-width:15;stroke-linecap:butt;stroke-linejoin:miter;stroke:rgb(0%,0%,0%);stroke-opacity:1;stroke-miterlimit:10;" d="M 710.820312 20.820312 C 777.070312 20.820312 830.820312 74.53125 830.820312 140.820312 C 830.820312 207.070312 777.070312 260.820312 710.820312 260.820312 " transform="matrix(0.1,0,0,-0.1,0,101)"/>
<path style="fill:none;stroke-width:10;stroke-linecap:butt;stroke-linejoin:miter;stroke:rgb(92.939758%,10.978699%,14.118958%);stroke-opacity:1;stroke-miterlimit:10;" d="M 110.820312 500.820312 C 110.820312 474.296875 164.53125 452.8125 230.820312 452.8125 C 297.070312 452.8125 350.820312 474.296875 350.820312 500.820312 " transform="matrix(0.1,0,0,-0.1,0,101)"/>
<path style="fill:none;stroke-width:10;stroke-linecap:butt;stroke-linejoin:miter;stroke:rgb(92.939758%,10.978699%,14.118958%);stroke-opacity:1;stroke-dasharray:20,20;stroke-dashoffset:10;stroke-miterlimit:10;" d="M 350.820312 500.820312 C 350.820312 527.304688 297.070312 548.789062 230.820312 548.789062 C 164.53125 548.789062 110.820312 527.304688 110.820312 500.820312 " transform="matrix(0.1,0,0,-0.1,0,101)"/>
</g>
</svg>
