<?xml version="1.0" encoding="UTF-8"?>
<svg xmlns="http://www.w3.org/2000/svg" xmlns:xlink="http://www.w3.org/1999/xlink" width="113pt" height="113pt" viewBox="0 0 113 113" version="1.1">
<g id="surface1">
<path style="fill:none;stroke-width:5;stroke-linecap:butt;stroke-linejoin:miter;stroke:rgb(18.03894%,19.219971%,57.249451%);stroke-opacity:1;stroke-miterlimit:10;" d="M 426.796875 562.8125 L 282.8125 562.8125 " transform="matrix(0.1,0,0,-0.1,0,113)"/>
<path style=" stroke:none;fill-rule:nonzero;fill:rgb(18.03894%,19.219971%,57.249451%);fill-opacity:1;" d="M 28.28125 56.71875 L 34.28125 58.71875 L 32.78125 56.71875 L 34.28125 54.71875 "/>
<path style="fill:none;stroke-width:5;stroke-linecap:butt;stroke-linejoin:miter;stroke:rgb(18.03894%,19.219971%,57.249451%);stroke-opacity:1;stroke-miterlimit:10;" d="M 570.820312 418.789062 L 570.820312 274.804688 " transform="matrix(0.1,0,0,-0.1,0,113)"/>
<path style=" stroke:none;fill-rule:nonzero;fill:rgb(18.03894%,19.219971%,57.249451%);fill-opacity:1;" d="M 57.082031 85.519531 L 59.082031 79.519531 L 57.082031 81.019531 L 55.082031 79.519531 "/>
<path style="fill:none;stroke-width:5;stroke-linecap:butt;stroke-linejoin:miter;stroke:rgb(18.03894%,19.219971%,57.249451%);stroke-opacity:1;stroke-miterlimit:10;" d="M 714.804688 562.8125 L 858.789062 562.8125 " transform="matrix(0.1,0,0,-0.1,0,113)"/>
<path style=" stroke:none;fill-rule:nonzero;fill:rgb(18.03894%,19.219971%,57.249451%);fill-opacity:1;" d="M 85.878906 56.71875 L 79.878906 54.71875 L 81.378906 56.71875 L 79.878906 58.71875 "/>
<path style="fill:none;stroke-width:5;stroke-linecap:butt;stroke-linejoin:miter;stroke:rgb(18.03894%,19.219971%,57.249451%);stroke-opacity:1;stroke-miterlimit:10;" d="M 570.820312 706.796875 L 570.820312 850.820312 " transform="matrix(0.1,0,0,-0.1,0,113)"/>
<path style=" stroke:none;fill-rule:nonzero;fill:rgb(18.03894%,19.219971%,57.249451%);fill-opacity:1;" d="M 57.082031 27.917969 L 55.082031 33.917969 L 57.082031 32.417969 L 59.082031 33.917969 "/>
<path style="fill:none;stroke-width:5;stroke-linecap:butt;stroke-linejoin:miter;stroke:rgb(18.03894%,19.219971%,57.249451%);stroke-opacity:1;stroke-miterlimit:10;" d="M 672.617188 664.609375 L 774.453125 766.445312 " transform="matrix(0.1,0,0,-0.1,0,113)"/>
<path style=" stroke:none;fill-rule:nonzero;fill:rgb(18.03894%,19.219971%,57.249451%);fill-opacity:1;" d="M 77.445312 36.355469 L 71.789062 39.183594 L 74.261719 39.535156 L 74.617188 42.011719 "/>
<path style="fill:none;stroke-width:5;stroke-linecap:butt;stroke-linejoin:miter;stroke:rgb(18.03894%,19.219971%,57.249451%);stroke-opacity:1;stroke-miterlimit:10;" d="M 672.617188 460.976562 L 774.453125 359.140625 " transform="matrix(0.1,0,0,-0.1,0,113)"/>
<path style=" stroke:none;fill-rule:nonzero;fill:rgb(18.03894%,19.219971%,57.249451%);fill-opacity:1;" d="M 77.445312 77.085938 L 74.617188 71.425781 L 74.261719 73.902344 L 71.789062 74.257812 "/>
<path style="fill:none;stroke-width:5;stroke-linecap:butt;stroke-linejoin:miter;stroke:rgb(18.03894%,19.219971%,57.249451%);stroke-opacity:1;stroke-miterlimit:10;" d="M 468.984375 664.609375 L 367.148438 766.445312 " transform="matrix(0.1,0,0,-0.1,0,113)"/>
<path style=" stroke:none;fill-rule:nonzero;fill:rgb(18.03894%,19.219971%,57.249451%);fill-opacity:1;" d="M 36.714844 36.355469 L 39.542969 42.011719 L 39.898438 39.535156 L 42.371094 39.183594 "/>
<path style="fill:none;stroke-width:5;stroke-linecap:butt;stroke-linejoin:miter;stroke:rgb(18.03894%,19.219971%,57.249451%);stroke-opacity:1;stroke-miterlimit:10;" d="M 468.984375 460.976562 L 367.148438 359.140625 " transform="matrix(0.1,0,0,-0.1,0,113)"/>
<path style=" stroke:none;fill-rule:nonzero;fill:rgb(18.03894%,19.219971%,57.249451%);fill-opacity:1;" d="M 36.714844 77.085938 L 42.371094 74.257812 L 39.898438 73.902344 L 39.542969 71.425781 "/>
<path style="fill:none;stroke-width:5;stroke-linecap:butt;stroke-linejoin:miter;stroke:rgb(18.03894%,19.219971%,57.249451%);stroke-opacity:1;stroke-miterlimit:10;" d="M 210.820312 562.8125 L 30.820312 562.8125 " transform="matrix(0.1,0,0,-0.1,0,113)"/>
<path style=" stroke:none;fill-rule:nonzero;fill:rgb(18.03894%,19.219971%,57.249451%);fill-opacity:1;" d="M 3.082031 56.71875 L 9.082031 58.71875 L 7.582031 56.71875 L 9.082031 54.71875 "/>
<path style="fill:none;stroke-width:5;stroke-linecap:butt;stroke-linejoin:miter;stroke:rgb(18.03894%,19.219971%,57.249451%);stroke-opacity:1;stroke-miterlimit:10;" d="M 570.820312 202.8125 L 570.820312 22.8125 " transform="matrix(0.1,0,0,-0.1,0,113)"/>
<path style=" stroke:none;fill-rule:nonzero;fill:rgb(18.03894%,19.219971%,57.249451%);fill-opacity:1;" d="M 57.082031 110.71875 L 59.082031 104.71875 L 57.082031 106.21875 L 55.082031 104.71875 "/>
<path style="fill:none;stroke-width:5;stroke-linecap:butt;stroke-linejoin:miter;stroke:rgb(18.03894%,19.219971%,57.249451%);stroke-opacity:1;stroke-miterlimit:10;" d="M 930.820312 562.8125 L 1110.78125 562.8125 " transform="matrix(0.1,0,0,-0.1,0,113)"/>
<path style=" stroke:none;fill-rule:nonzero;fill:rgb(18.03894%,19.219971%,57.249451%);fill-opacity:1;" d="M 111.078125 56.71875 L 105.078125 54.71875 L 106.578125 56.71875 L 105.078125 58.71875 "/>
<path style="fill:none;stroke-width:5;stroke-linecap:butt;stroke-linejoin:miter;stroke:rgb(18.03894%,19.219971%,57.249451%);stroke-opacity:1;stroke-miterlimit:10;" d="M 570.820312 922.8125 L 570.820312 1102.8125 " transform="matrix(0.1,0,0,-0.1,0,113)"/>
<path style=" stroke:none;fill-rule:nonzero;fill:rgb(18.03894%,19.219971%,57.249451%);fill-opacity:1;" d="M 57.082031 2.71875 L 55.082031 8.71875 L 57.082031 7.21875 L 59.082031 8.71875 "/>
<path style="fill:none;stroke-width:5;stroke-linecap:butt;stroke-linejoin:miter;stroke:rgb(18.03894%,19.219971%,57.249451%);stroke-opacity:1;stroke-miterlimit:10;" d="M 825.351562 817.34375 L 952.65625 944.648438 " transform="matrix(0.1,0,0,-0.1,0,113)"/>
<path style=" stroke:none;fill-rule:nonzero;fill:rgb(18.03894%,19.219971%,57.249451%);fill-opacity:1;" d="M 95.265625 18.535156 L 89.605469 21.363281 L 92.082031 21.71875 L 92.433594 24.191406 "/>
<path style="fill:none;stroke-width:5;stroke-linecap:butt;stroke-linejoin:miter;stroke:rgb(18.03894%,19.219971%,57.249451%);stroke-opacity:1;stroke-miterlimit:10;" d="M 825.351562 308.242188 L 952.65625 180.976562 " transform="matrix(0.1,0,0,-0.1,0,113)"/>
<path style=" stroke:none;fill-rule:nonzero;fill:rgb(18.03894%,19.219971%,57.249451%);fill-opacity:1;" d="M 95.265625 94.902344 L 92.433594 89.246094 L 92.082031 91.722656 L 89.605469 92.074219 "/>
<path style="fill:none;stroke-width:5;stroke-linecap:butt;stroke-linejoin:miter;stroke:rgb(18.03894%,19.219971%,57.249451%);stroke-opacity:1;stroke-miterlimit:10;" d="M 316.25 817.34375 L 188.945312 944.648438 " transform="matrix(0.1,0,0,-0.1,0,113)"/>
<path style=" stroke:none;fill-rule:nonzero;fill:rgb(18.03894%,19.219971%,57.249451%);fill-opacity:1;" d="M 18.894531 18.535156 L 21.722656 24.191406 L 22.078125 21.71875 L 24.554688 21.363281 "/>
<path style="fill:none;stroke-width:5;stroke-linecap:butt;stroke-linejoin:miter;stroke:rgb(18.03894%,19.219971%,57.249451%);stroke-opacity:1;stroke-miterlimit:10;" d="M 316.25 308.242188 L 188.945312 180.976562 " transform="matrix(0.1,0,0,-0.1,0,113)"/>
<path style=" stroke:none;fill-rule:nonzero;fill:rgb(18.03894%,19.219971%,57.249451%);fill-opacity:1;" d="M 18.894531 94.902344 L 24.554688 92.074219 L 22.078125 91.722656 L 21.722656 89.246094 "/>
<path style="fill:none;stroke-width:20;stroke-linecap:butt;stroke-linejoin:miter;stroke:rgb(92.939758%,10.978699%,14.118958%);stroke-opacity:1;stroke-miterlimit:10;" d="M 930.820312 562.8125 C 930.820312 761.601562 769.609375 922.8125 570.820312 922.8125 C 371.992188 922.8125 210.820312 761.601562 210.820312 562.8125 C 210.820312 363.984375 371.992188 202.8125 570.820312 202.8125 C 769.609375 202.8125 930.820312 363.984375 930.820312 562.8125 " transform="matrix(0.1,0,0,-0.1,0,113)"/>
<path style="fill:none;stroke-width:10;stroke-linecap:butt;stroke-linejoin:miter;stroke:rgb(13.729858%,12.159729%,12.548828%);stroke-opacity:1;stroke-miterlimit:10;" d="M 282.8125 562.8125 L 858.789062 562.8125 " transform="matrix(0.1,0,0,-0.1,0,113)"/>
<path style="fill:none;stroke-width:10;stroke-linecap:butt;stroke-linejoin:miter;stroke:rgb(13.729858%,12.159729%,12.548828%);stroke-opacity:1;stroke-miterlimit:10;" d="M 570.820312 274.804688 L 570.820312 850.820312 " transform="matrix(0.1,0,0,-0.1,0,113)"/>
<path style="fill:none;stroke-width:40;stroke-linecap:butt;stroke-linejoin:miter;stroke:rgb(13.729858%,12.159729%,12.548828%);stroke-opacity:1;stroke-miterlimit:10;" d="M 282.8125 562.8125 L 138.789062 562.8125 " transform="matrix(0.1,0,0,-0.1,0,113)"/>
<path style="fill:none;stroke-width:40;stroke-linecap:butt;stroke-linejoin:miter;stroke:rgb(13.729858%,12.159729%,12.548828%);stroke-opacity:1;stroke-miterlimit:10;" d="M 858.789062 562.8125 L 1002.8125 562.8125 " transform="matrix(0.1,0,0,-0.1,0,113)"/>
<path style="fill:none;stroke-width:40;stroke-linecap:butt;stroke-linejoin:miter;stroke:rgb(13.729858%,12.159729%,12.548828%);stroke-opacity:1;stroke-miterlimit:10;" d="M 570.820312 274.804688 L 570.820312 130.820312 " transform="matrix(0.1,0,0,-0.1,0,113)"/>
<path style="fill:none;stroke-width:40;stroke-linecap:butt;stroke-linejoin:miter;stroke:rgb(13.729858%,12.159729%,12.548828%);stroke-opacity:1;stroke-miterlimit:10;" d="M 570.820312 850.820312 L 570.820312 994.804688 " transform="matrix(0.1,0,0,-0.1,0,113)"/>
<path style=" stroke:none;fill-rule:nonzero;fill:rgb(13.729858%,12.159729%,12.548828%);fill-opacity:1;" d="M 60.679688 56.71875 C 60.679688 54.730469 59.066406 53.121094 57.082031 53.121094 C 55.09375 53.121094 53.480469 54.730469 53.480469 56.71875 C 53.480469 58.707031 55.09375 60.320312 57.082031 60.320312 C 59.066406 60.320312 60.679688 58.707031 60.679688 56.71875 "/>
</g>
</svg>
